<?xml version="1.0" encoding="UTF-8" standalone="no"?>
<!-- Created with Inkscape (http://www.inkscape.org/) -->

<svg
   xmlns:dc="http://purl.org/dc/elements/1.1/"
   xmlns:cc="http://creativecommons.org/ns#"
   xmlns:rdf="http://www.w3.org/1999/02/22-rdf-syntax-ns#"
   xmlns:svg="http://www.w3.org/2000/svg"
   xmlns="http://www.w3.org/2000/svg"
   xmlns:sodipodi="http://sodipodi.sourceforge.net/DTD/sodipodi-0.dtd"
   xmlns:inkscape="http://www.inkscape.org/namespaces/inkscape"
   width="160mm"
   height="160mm"
   viewBox="0 0 160 160"
   version="1.1"
   id="svg140"
   inkscape:version="0.92.4 5da689c313, 2019-01-14"
   sodipodi:docname="favicon.svg">
  <defs
     id="defs134" />
  <sodipodi:namedview
     id="base"
     pagecolor="#ffffff"
     bordercolor="#666666"
     borderopacity="1.0"
     inkscape:pageopacity="0.0"
     inkscape:pageshadow="2"
     inkscape:zoom="0.98994949"
     inkscape:cx="-256.50223"
     inkscape:cy="461.47133"
     inkscape:document-units="mm"
     inkscape:current-layer="layer1"
     showgrid="false"
     inkscape:window-width="3840"
     inkscape:window-height="2104"
     inkscape:window-x="0"
     inkscape:window-y="56"
     inkscape:window-maximized="1"
     fit-margin-top="3.0203"
     fit-margin-left="0"
     fit-margin-right="0"
     fit-margin-bottom="3.02029" />
  <metadata
     id="metadata137">
    <rdf:RDF>
      <cc:Work
         rdf:about="">
        <dc:format>image/svg+xml</dc:format>
        <dc:type
           rdf:resource="http://purl.org/dc/dcmitype/StillImage" />
        <dc:title></dc:title>
      </cc:Work>
    </rdf:RDF>
  </metadata>
  <g
     inkscape:label="Layer 1"
     inkscape:groupmode="layer"
     id="layer1"
     transform="translate(-68.499987,-111.99999)">
    <g
       id="g260"
       transform="matrix(2.1821019,0,0,2.1821019,-1791.3886,172.40005)">
      <g
         transform="matrix(0.35277777,0,0,-0.35277777,888.99975,-5.1289648)"
         id="g12">
        <path
           inkscape:connector-curvature="0"
           id="path14"
           style="fill:#ff9dc3;fill-opacity:1;fill-rule:nonzero;stroke:none"
           d="M 0,0 -34.641,-20 V -60 L 0,-80 34.641,-60 v 40 z" />
      </g>
      <g
         transform="matrix(0.35277777,0,0,-0.35277777,913.44097,-5.1289648)"
         id="g16">
        <path
           inkscape:connector-curvature="0"
           id="path18"
           style="fill:#ff9dc3;fill-opacity:1;fill-rule:nonzero;stroke:none"
           d="M 0,0 V 40 L -34.641,20 Z" />
      </g>
      <g
         transform="matrix(0.35277777,0,0,-0.35277777,864.55871,8.9821452)"
         id="g20">
        <path
           inkscape:connector-curvature="0"
           id="path22"
           style="fill:#ff9dc3;fill-opacity:1;fill-rule:nonzero;stroke:none"
           d="M 0,0 V 40 L -34.641,20 Z" />
      </g>
      <g
         transform="matrix(0.35277777,0,0,-0.35277777,901.22036,44.259915)"
         id="g24">
        <path
           inkscape:connector-curvature="0"
           id="path26"
           style="fill:#ff9dc3;fill-opacity:1;fill-rule:nonzero;stroke:none"
           d="M 0,0 V 40 L -34.641,20 Z" />
      </g>
      <g
         transform="matrix(0.35277777,0,0,-0.35277777,864.55871,-19.240079)"
         id="g28">
        <path
           inkscape:connector-curvature="0"
           id="path30"
           style="fill:#ff9dc3;fill-opacity:1;fill-rule:nonzero;stroke:none"
           d="m 0,0 v -40 l 34.641,20 z" />
      </g>
      <g
         transform="matrix(0.35277777,0,0,-0.35277777,913.44097,-5.1289648)"
         id="g32">
        <path
           inkscape:connector-curvature="0"
           id="path34"
           style="fill:#ff9dc3;fill-opacity:1;fill-rule:nonzero;stroke:none"
           d="m 0,0 v -40 l 34.641,20 z" />
      </g>
      <g
         transform="matrix(0.35277777,0,0,-0.35277777,876.77932,30.148805)"
         id="g36">
        <path
           inkscape:connector-curvature="0"
           id="path38"
           style="fill:#ff9dc3;fill-opacity:1;fill-rule:nonzero;stroke:none"
           d="m 0,0 v -40 l 34.641,20 z" />
      </g>
      <g
         transform="matrix(0.35277777,0,0,-0.35277777,876.77932,-26.295635)"
         id="g40">
        <path
           inkscape:connector-curvature="0"
           id="path42"
           style="fill:#ff0089;fill-opacity:1;fill-rule:nonzero;stroke:none"
           d="M 0,0 -34.641,-20 0,-40 34.641,-20 Z" />
      </g>
      <g
         transform="matrix(0.35277777,0,0,-0.35277777,913.44097,-19.240079)"
         id="g44">
        <path
           inkscape:connector-curvature="0"
           id="path46"
           style="fill:#ff0089;fill-opacity:1;fill-rule:nonzero;stroke:none"
           d="M 0,0 -34.641,20 -69.282,0 -34.641,-20 Z" />
      </g>
      <g
         transform="matrix(0.35277777,0,0,-0.35277777,901.22036,1.9265852)"
         id="g48">
        <path
           inkscape:connector-curvature="0"
           id="path50"
           style="fill:#ff0089;fill-opacity:1;fill-rule:nonzero;stroke:none"
           d="m 0,0 v 0 -40 l 34.641,20 V 20 L 0,40 -34.641,20 Z" />
      </g>
      <g
         transform="matrix(0.35277777,0,0,-0.35277777,876.77932,1.9265852)"
         id="g52">
        <path
           inkscape:connector-curvature="0"
           id="path54"
           style="fill:#ff0089;fill-opacity:1;fill-rule:nonzero;stroke:none"
           d="M 0,0 34.641,20 0,40 -34.641,20 V -20 L 0,-40 Z" />
      </g>
      <g
         transform="matrix(0.35277777,0,0,-0.35277777,901.22036,44.259915)"
         id="g56">
        <path
           inkscape:connector-curvature="0"
           id="path58"
           style="fill:#ff0089;fill-opacity:1;fill-rule:nonzero;stroke:none"
           d="M 0,0 34.641,20 V 60 L 0,40 Z" />
      </g>
      <g
         transform="matrix(0.35277777,0,0,-0.35277777,913.44097,8.9821452)"
         id="g60">
        <path
           inkscape:connector-curvature="0"
           id="path62"
           style="fill:#ff0089;fill-opacity:1;fill-rule:nonzero;stroke:none"
           d="m 0,0 v -40 l 34.641,20 0.001,40 z" />
      </g>
      <g
         transform="matrix(0.35277777,0,0,-0.35277777,864.55871,37.204365)"
         id="g64">
        <path
           inkscape:connector-curvature="0"
           id="path66"
           style="fill:#ff0089;fill-opacity:1;fill-rule:nonzero;stroke:none"
           d="M 0,0 34.641,-20 V 20 L 0,40 Z" />
      </g>
      <g
         transform="matrix(0.35277777,0,0,-0.35277777,852.3381,1.9265852)"
         id="g68">
        <path
           inkscape:connector-curvature="0"
           id="path70"
           style="fill:#ff0089;fill-opacity:1;fill-rule:nonzero;stroke:none"
           d="m 0,0 v -40 l 34.641,-20 v 40 z" />
      </g>
      <g
         transform="matrix(0.35277777,0,0,-0.35277777,888.99975,23.093255)"
         id="g72">
        <path
           inkscape:connector-curvature="0"
           id="path74"
           style="fill:#ff0089;fill-opacity:1;fill-rule:nonzero;stroke:none"
           d="M 0,0 -34.641,20 V -20 L 0,-40 34.641,-20 v 40 z" />
      </g>
      <g
         transform="matrix(0.35277777,0,0,-0.35277777,901.22036,-12.184525)"
         id="g76">
        <path
           inkscape:connector-curvature="0"
           id="path78"
           style="fill:#ffffff;fill-opacity:1;fill-rule:nonzero;stroke:none"
           d="M 0,0 -34.641,20 -69.282,0 -34.641,-20 Z" />
      </g>
      <g
         transform="matrix(0.35277777,0,0,-0.35277777,913.44097,8.9821452)"
         id="g80">
        <path
           inkscape:connector-curvature="0"
           id="path82"
           style="fill:#ffffff;fill-opacity:1;fill-rule:nonzero;stroke:none"
           d="M 0,0 -34.641,-20 V -60 L 0,-40 Z" />
      </g>
      <g
         transform="matrix(0.35277777,0,0,-0.35277777,864.55871,8.9821452)"
         id="g84">
        <path
           inkscape:connector-curvature="0"
           id="path86"
           style="fill:#ffffff;fill-opacity:1;fill-rule:nonzero;stroke:none"
           d="M 0,0 34.641,-20 V -60 L 0,-40 Z" />
      </g>
    </g>
  </g>
</svg>
