<?xml version="1.0" encoding="UTF-8" standalone="no"?>
<!-- Generator: Adobe Illustrator 24.0.3, SVG Export Plug-In . SVG Version: 6.00 Build 0)  -->

<svg
   xmlns:dc="http://purl.org/dc/elements/1.1/"
   xmlns:cc="http://creativecommons.org/ns#"
   xmlns:rdf="http://www.w3.org/1999/02/22-rdf-syntax-ns#"
   xmlns:svg="http://www.w3.org/2000/svg"
   xmlns="http://www.w3.org/2000/svg"
   xmlns:xlink="http://www.w3.org/1999/xlink"
   xmlns:sodipodi="http://sodipodi.sourceforge.net/DTD/sodipodi-0.dtd"
   xmlns:inkscape="http://www.inkscape.org/namespaces/inkscape"
   version="1.1"
   id="레이어_1"
   x="0px"
   y="0px"
   viewBox="0 0 244.91085 387.5"
   xml:space="preserve"
   sodipodi:docname="pattern-1.svg"
   width="244.91084"
   height="387.5"
   inkscape:version="0.92.5 (2060ec1f9f, 2020-04-08)"><metadata
   id="metadata471"><rdf:RDF><cc:Work
       rdf:about=""><dc:format>image/svg+xml</dc:format><dc:type
         rdf:resource="http://purl.org/dc/dcmitype/StillImage" /><dc:title></dc:title></cc:Work></rdf:RDF></metadata><defs
   id="defs469" /><sodipodi:namedview
   pagecolor="#ffffff"
   bordercolor="#666666"
   borderopacity="1"
   objecttolerance="10"
   gridtolerance="10"
   guidetolerance="10"
   inkscape:pageopacity="0"
   inkscape:pageshadow="2"
   inkscape:window-width="3840"
   inkscape:window-height="2106"
   id="namedview467"
   showgrid="false"
   inkscape:zoom="0.3299763"
   inkscape:cx="-1532.7139"
   inkscape:cy="28.539685"
   inkscape:window-x="0"
   inkscape:window-y="54"
   inkscape:window-maximized="1"
   inkscape:current-layer="레이어_1"
   fit-margin-top="0"
   fit-margin-left="0"
   fit-margin-right="0"
   fit-margin-bottom="0" />
<style
   type="text/css"
   id="style2">
	.st0{fill:#EBEBEB;}
	.st1{clip-path:url(#SVGID_2_);}
	.st2{fill:none;stroke:#FF0092;stroke-width:2;stroke-miterlimit:10;}
	.st3{fill:none;stroke:#EBEBEB;stroke-width:2;stroke-miterlimit:10;}
	.st4{fill:none;stroke:#EBEBEB;stroke-width:5;stroke-linecap:round;stroke-linejoin:round;stroke-miterlimit:10;}
	.st5{fill:none;stroke:#EBEBEB;stroke-width:22;stroke-linecap:round;stroke-linejoin:round;stroke-miterlimit:10;}
	.st6{fill:none;stroke:#EBEBEB;stroke-width:2;stroke-linecap:round;stroke-linejoin:round;stroke-miterlimit:10;}
	.st7{clip-path:url(#SVGID_4_);}
	.st8{fill:none;stroke:#FF0092;stroke-width:5;stroke-miterlimit:10;}
</style>
<g
   id="g112"
   transform="translate(-105.60024,-79.900737)">
	<g
   id="g20">
		<circle
   class="st0"
   cx="168.7"
   cy="200"
   r="2.0999999"
   id="circle4"
   style="fill:#ebebeb" />
		<circle
   class="st0"
   cx="176.39999"
   cy="207.7"
   r="2.0999999"
   id="circle6"
   style="fill:#ebebeb" />
		<circle
   class="st0"
   cx="184.10001"
   cy="215.39999"
   r="2.0999999"
   id="circle8"
   style="fill:#ebebeb" />
		<circle
   class="st0"
   cx="191.7"
   cy="223.10001"
   r="2.0999999"
   id="circle10"
   style="fill:#ebebeb" />
		<circle
   class="st0"
   cx="199.39999"
   cy="230.8"
   r="2.0999999"
   id="circle12"
   style="fill:#ebebeb" />
		<circle
   class="st0"
   cx="207.10001"
   cy="238.39999"
   r="2.0999999"
   id="circle14"
   style="fill:#ebebeb" />
		<path
   class="st0"
   d="m 216.3,247.7 c -0.8,0.8 -2.2,0.8 -3,0 -0.8,-0.8 -0.8,-2.2 0,-3 0.8,-0.8 2.2,-0.8 3,0 0.9,0.8 0.9,2.1 0,3 z"
   id="path16"
   inkscape:connector-curvature="0"
   style="fill:#ebebeb" />
		<circle
   class="st0"
   cx="222.5"
   cy="253.8"
   r="2.0999999"
   id="circle18"
   style="fill:#ebebeb" />
	</g>
	<g
   id="g38">
		<circle
   class="st0"
   cx="161"
   cy="207.7"
   r="2.0999999"
   id="circle22"
   style="fill:#ebebeb" />
		<circle
   class="st0"
   cx="168.7"
   cy="215.39999"
   r="2.0999999"
   id="circle24"
   style="fill:#ebebeb" />
		<circle
   class="st0"
   cx="176.39999"
   cy="223.10001"
   r="2.0999999"
   id="circle26"
   style="fill:#ebebeb" />
		<circle
   class="st0"
   cx="184.10001"
   cy="230.8"
   r="2.0999999"
   id="circle28"
   style="fill:#ebebeb" />
		<circle
   class="st0"
   cx="191.7"
   cy="238.39999"
   r="2.0999999"
   id="circle30"
   style="fill:#ebebeb" />
		<path
   class="st0"
   d="m 200.9,247.7 c -0.8,0.8 -2.2,0.8 -3,0 -0.8,-0.8 -0.8,-2.2 0,-3 0.8,-0.8 2.2,-0.8 3,0 0.9,0.8 0.9,2.1 0,3 z"
   id="path32"
   inkscape:connector-curvature="0"
   style="fill:#ebebeb" />
		<circle
   class="st0"
   cx="207.10001"
   cy="253.8"
   r="2.0999999"
   id="circle34"
   style="fill:#ebebeb" />
		<circle
   class="st0"
   cx="214.8"
   cy="261.5"
   r="2.0999999"
   id="circle36"
   style="fill:#ebebeb" />
	</g>
	<g
   id="g56">
		<circle
   class="st0"
   cx="153.3"
   cy="215.39999"
   r="2.0999999"
   id="circle40"
   style="fill:#ebebeb" />
		<circle
   class="st0"
   cx="161"
   cy="223.10001"
   r="2.0999999"
   id="circle42"
   style="fill:#ebebeb" />
		<circle
   class="st0"
   cx="168.7"
   cy="230.8"
   r="2.0999999"
   id="circle44"
   style="fill:#ebebeb" />
		<circle
   class="st0"
   cx="176.39999"
   cy="238.39999"
   r="2.0999999"
   id="circle46"
   style="fill:#ebebeb" />
		<path
   class="st0"
   d="m 185.6,247.7 c -0.8,0.8 -2.2,0.8 -3,0 -0.8,-0.8 -0.8,-2.2 0,-3 0.8,-0.8 2.2,-0.8 3,0 0.8,0.8 0.8,2.1 0,3 z"
   id="path48"
   inkscape:connector-curvature="0"
   style="fill:#ebebeb" />
		<circle
   class="st0"
   cx="191.7"
   cy="253.8"
   r="2.0999999"
   id="circle50"
   style="fill:#ebebeb" />
		<circle
   class="st0"
   cx="199.39999"
   cy="261.5"
   r="2.0999999"
   id="circle52"
   style="fill:#ebebeb" />
		<path
   class="st0"
   d="m 208.6,270.7 c -0.8,0.8 -2.2,0.8 -3,0 -0.8,-0.8 -0.8,-2.2 0,-3 0.8,-0.8 2.2,-0.8 3,0 0.9,0.8 0.9,2.2 0,3 z"
   id="path54"
   inkscape:connector-curvature="0"
   style="fill:#ebebeb" />
	</g>
	<g
   id="g74">
		<circle
   class="st0"
   cx="145.60001"
   cy="223.10001"
   r="2.0999999"
   id="circle58"
   style="fill:#ebebeb" />
		<circle
   class="st0"
   cx="153.3"
   cy="230.8"
   r="2.0999999"
   id="circle60"
   style="fill:#ebebeb" />
		<circle
   class="st0"
   cx="161"
   cy="238.39999"
   r="2.0999999"
   id="circle62"
   style="fill:#ebebeb" />
		<path
   class="st0"
   d="m 170.2,247.7 c -0.8,0.8 -2.2,0.8 -3,0 -0.8,-0.8 -0.8,-2.2 0,-3 0.8,-0.8 2.2,-0.8 3,0 0.8,0.8 0.8,2.1 0,3 z"
   id="path64"
   inkscape:connector-curvature="0"
   style="fill:#ebebeb" />
		<circle
   class="st0"
   cx="176.39999"
   cy="253.8"
   r="2.0999999"
   id="circle66"
   style="fill:#ebebeb" />
		<circle
   class="st0"
   cx="184.10001"
   cy="261.5"
   r="2.0999999"
   id="circle68"
   style="fill:#ebebeb" />
		<path
   class="st0"
   d="m 193.3,270.7 c -0.8,0.8 -2.2,0.8 -3,0 -0.8,-0.8 -0.8,-2.2 0,-3 0.8,-0.8 2.2,-0.8 3,0 0.8,0.8 0.8,2.2 0,3 z"
   id="path70"
   inkscape:connector-curvature="0"
   style="fill:#ebebeb" />
		<circle
   class="st0"
   cx="199.39999"
   cy="276.89999"
   r="2.0999999"
   id="circle72"
   style="fill:#ebebeb" />
	</g>
	<g
   id="g92">
		<circle
   class="st0"
   cx="137.89999"
   cy="230.8"
   r="2.0999999"
   id="circle76"
   style="fill:#ebebeb" />
		<circle
   class="st0"
   cx="145.60001"
   cy="238.39999"
   r="2.0999999"
   id="circle78"
   style="fill:#ebebeb" />
		<path
   class="st0"
   d="m 154.8,247.7 c -0.8,0.8 -2.2,0.8 -3,0 -0.8,-0.8 -0.8,-2.2 0,-3 0.8,-0.8 2.2,-0.8 3,0 0.8,0.8 0.8,2.1 0,3 z"
   id="path80"
   inkscape:connector-curvature="0"
   style="fill:#ebebeb" />
		<circle
   class="st0"
   cx="161"
   cy="253.8"
   r="2.0999999"
   id="circle82"
   style="fill:#ebebeb" />
		<circle
   class="st0"
   cx="168.7"
   cy="261.5"
   r="2.0999999"
   id="circle84"
   style="fill:#ebebeb" />
		<path
   class="st0"
   d="m 177.9,270.7 c -0.8,0.8 -2.2,0.8 -3,0 -0.8,-0.8 -0.8,-2.2 0,-3 0.8,-0.8 2.2,-0.8 3,0 0.8,0.8 0.8,2.2 0,3 z"
   id="path86"
   inkscape:connector-curvature="0"
   style="fill:#ebebeb" />
		<circle
   class="st0"
   cx="184.10001"
   cy="276.89999"
   r="2.0999999"
   id="circle88"
   style="fill:#ebebeb" />
		<path
   class="st0"
   d="m 193.3,286.1 c -0.8,0.8 -2.2,0.8 -3,0 -0.8,-0.8 -0.8,-2.2 0,-3 0.8,-0.8 2.2,-0.8 3,0 0.8,0.8 0.8,2.2 0,3 z"
   id="path90"
   inkscape:connector-curvature="0"
   style="fill:#ebebeb" />
	</g>
	<g
   id="g110">
		<circle
   class="st0"
   cx="130.2"
   cy="238.39999"
   r="2.0999999"
   id="circle94"
   style="fill:#ebebeb" />
		<path
   class="st0"
   d="m 139.4,247.7 c -0.8,0.8 -2.2,0.8 -3,0 -0.8,-0.8 -0.8,-2.2 0,-3 0.8,-0.8 2.2,-0.8 3,0 0.8,0.8 0.8,2.1 0,3 z"
   id="path96"
   inkscape:connector-curvature="0"
   style="fill:#ebebeb" />
		<circle
   class="st0"
   cx="145.60001"
   cy="253.8"
   r="2.0999999"
   id="circle98"
   style="fill:#ebebeb" />
		<circle
   class="st0"
   cx="153.3"
   cy="261.5"
   r="2.0999999"
   id="circle100"
   style="fill:#ebebeb" />
		<path
   class="st0"
   d="m 162.5,270.7 c -0.8,0.8 -2.2,0.8 -3,0 -0.8,-0.8 -0.8,-2.2 0,-3 0.8,-0.8 2.2,-0.8 3,0 0.8,0.8 0.8,2.2 0,3 z"
   id="path102"
   inkscape:connector-curvature="0"
   style="fill:#ebebeb" />
		<circle
   class="st0"
   cx="168.7"
   cy="276.89999"
   r="2.0999999"
   id="circle104"
   style="fill:#ebebeb" />
		<path
   class="st0"
   d="m 177.9,286.1 c -0.8,0.8 -2.2,0.8 -3,0 -0.8,-0.8 -0.8,-2.2 0,-3 0.8,-0.8 2.2,-0.8 3,0 0.8,0.8 0.8,2.2 0,3 z"
   id="path106"
   inkscape:connector-curvature="0"
   style="fill:#ebebeb" />
		<circle
   class="st0"
   cx="184.10001"
   cy="292.29999"
   r="2.0999999"
   id="circle108"
   style="fill:#ebebeb" />
	</g>
</g>
<g
   id="g178"
   transform="translate(-105.60024,-79.900737)">
	<g
   id="g176">
		<defs
   id="defs115">
			<circle
   id="SVGID_1_"
   cx="233.3"
   cy="234.3"
   r="30.1" />
		</defs>
		<clipPath
   id="SVGID_2_">
			<use
   xlink:href="#SVGID_1_"
   style="overflow:visible"
   id="use117"
   x="0"
   y="0"
   width="100%"
   height="100%" />
		</clipPath>
		<g
   class="st1"
   clip-path="url(#SVGID_2_)"
   id="g174">
			<line
   class="st2"
   x1="312.89999"
   y1="49.900002"
   x2="149.7"
   y2="213.10001"
   id="line120"
   style="fill:none;stroke:#ff0092;stroke-width:2;stroke-miterlimit:10" />
			<line
   class="st2"
   x1="312.89999"
   y1="58.099998"
   x2="149.7"
   y2="221.2"
   id="line122"
   style="fill:none;stroke:#ff0092;stroke-width:2;stroke-miterlimit:10" />
			<line
   class="st2"
   x1="312.89999"
   y1="66.300003"
   x2="149.7"
   y2="229.39999"
   id="line124"
   style="fill:none;stroke:#ff0092;stroke-width:2;stroke-miterlimit:10" />
			<line
   class="st2"
   x1="312.89999"
   y1="74.400002"
   x2="149.7"
   y2="237.60001"
   id="line126"
   style="fill:none;stroke:#ff0092;stroke-width:2;stroke-miterlimit:10" />
			<line
   class="st2"
   x1="312.89999"
   y1="82.599998"
   x2="149.7"
   y2="245.7"
   id="line128"
   style="fill:none;stroke:#ff0092;stroke-width:2;stroke-miterlimit:10" />
			<line
   class="st2"
   x1="312.89999"
   y1="90.800003"
   x2="149.7"
   y2="253.89999"
   id="line130"
   style="fill:none;stroke:#ff0092;stroke-width:2;stroke-miterlimit:10" />
			<line
   class="st2"
   x1="312.89999"
   y1="98.900002"
   x2="149.7"
   y2="262.10001"
   id="line132"
   style="fill:none;stroke:#ff0092;stroke-width:2;stroke-miterlimit:10" />
			<line
   class="st2"
   x1="312.89999"
   y1="107.1"
   x2="149.7"
   y2="270.20001"
   id="line134"
   style="fill:none;stroke:#ff0092;stroke-width:2;stroke-miterlimit:10" />
			<line
   class="st2"
   x1="312.89999"
   y1="115.3"
   x2="149.7"
   y2="278.39999"
   id="line136"
   style="fill:none;stroke:#ff0092;stroke-width:2;stroke-miterlimit:10" />
			<line
   class="st2"
   x1="312.89999"
   y1="123.4"
   x2="149.7"
   y2="286.60001"
   id="line138"
   style="fill:none;stroke:#ff0092;stroke-width:2;stroke-miterlimit:10" />
			<line
   class="st2"
   x1="312.89999"
   y1="131.60001"
   x2="149.7"
   y2="294.79999"
   id="line140"
   style="fill:none;stroke:#ff0092;stroke-width:2;stroke-miterlimit:10" />
			<line
   class="st2"
   x1="312.89999"
   y1="139.8"
   x2="149.7"
   y2="302.89999"
   id="line142"
   style="fill:none;stroke:#ff0092;stroke-width:2;stroke-miterlimit:10" />
			<line
   class="st2"
   x1="312.89999"
   y1="147.89999"
   x2="149.7"
   y2="311.10001"
   id="line144"
   style="fill:none;stroke:#ff0092;stroke-width:2;stroke-miterlimit:10" />
			<line
   class="st2"
   x1="312.89999"
   y1="156.10001"
   x2="149.7"
   y2="319.20001"
   id="line146"
   style="fill:none;stroke:#ff0092;stroke-width:2;stroke-miterlimit:10" />
			<line
   class="st2"
   x1="312.89999"
   y1="164.3"
   x2="149.7"
   y2="327.39999"
   id="line148"
   style="fill:none;stroke:#ff0092;stroke-width:2;stroke-miterlimit:10" />
			<line
   class="st2"
   x1="312.89999"
   y1="172.39999"
   x2="149.7"
   y2="335.60001"
   id="line150"
   style="fill:none;stroke:#ff0092;stroke-width:2;stroke-miterlimit:10" />
			<line
   class="st2"
   x1="312.89999"
   y1="180.60001"
   x2="149.7"
   y2="343.79999"
   id="line152"
   style="fill:none;stroke:#ff0092;stroke-width:2;stroke-miterlimit:10" />
			<line
   class="st2"
   x1="312.89999"
   y1="188.8"
   x2="149.7"
   y2="351.89999"
   id="line154"
   style="fill:none;stroke:#ff0092;stroke-width:2;stroke-miterlimit:10" />
			<line
   class="st2"
   x1="312.89999"
   y1="196.89999"
   x2="149.7"
   y2="360.10001"
   id="line156"
   style="fill:none;stroke:#ff0092;stroke-width:2;stroke-miterlimit:10" />
			<line
   class="st2"
   x1="312.89999"
   y1="205.10001"
   x2="149.7"
   y2="368.29999"
   id="line158"
   style="fill:none;stroke:#ff0092;stroke-width:2;stroke-miterlimit:10" />
			<line
   class="st2"
   x1="312.89999"
   y1="213.3"
   x2="149.7"
   y2="376.39999"
   id="line160"
   style="fill:none;stroke:#ff0092;stroke-width:2;stroke-miterlimit:10" />
			<line
   class="st2"
   x1="312.89999"
   y1="221.39999"
   x2="149.7"
   y2="384.60001"
   id="line162"
   style="fill:none;stroke:#ff0092;stroke-width:2;stroke-miterlimit:10" />
			<line
   class="st2"
   x1="312.89999"
   y1="229.60001"
   x2="149.7"
   y2="392.79999"
   id="line164"
   style="fill:none;stroke:#ff0092;stroke-width:2;stroke-miterlimit:10" />
			<line
   class="st2"
   x1="312.89999"
   y1="237.8"
   x2="149.7"
   y2="400.89999"
   id="line166"
   style="fill:none;stroke:#ff0092;stroke-width:2;stroke-miterlimit:10" />
			<line
   class="st2"
   x1="312.89999"
   y1="245.89999"
   x2="149.7"
   y2="409.10001"
   id="line168"
   style="fill:none;stroke:#ff0092;stroke-width:2;stroke-miterlimit:10" />
			<line
   class="st2"
   x1="312.89999"
   y1="254.10001"
   x2="149.7"
   y2="417.29999"
   id="line170"
   style="fill:none;stroke:#ff0092;stroke-width:2;stroke-miterlimit:10" />
			<line
   class="st2"
   x1="312.89999"
   y1="262.29999"
   x2="149.7"
   y2="425.39999"
   id="line172"
   style="fill:none;stroke:#ff0092;stroke-width:2;stroke-miterlimit:10" />
		</g>
	</g>
</g>

<g
   id="g210"
   transform="translate(-105.60024,-79.900737)">
	<circle
   class="st0"
   cx="209.10001"
   cy="311.5"
   r="5.1999998"
   id="circle196"
   style="fill:#ebebeb" />
	<circle
   class="st0"
   cx="192.8"
   cy="327.89999"
   r="5.1999998"
   id="circle198"
   style="fill:#ebebeb" />
	<circle
   class="st0"
   cx="176.39999"
   cy="344.39999"
   r="5.1999998"
   id="circle200"
   style="fill:#ebebeb" />
	<circle
   class="st0"
   cx="160"
   cy="360.79999"
   r="5.1999998"
   id="circle202"
   style="fill:#ebebeb" />
	<circle
   class="st0"
   cx="143.60001"
   cy="377.29999"
   r="5.1999998"
   id="circle204"
   style="fill:#ebebeb" />
	
		<circle
   transform="matrix(0.06903548,-0.9976,0.9976,0.06903548,-274.3718,493.4268)"
   class="st0"
   cx="127.2"
   cy="393.70001"
   id="ellipse206"
   r="5.1999998"
   style="fill:#ebebeb" />
	<circle
   transform="matrix(1,-0.00185822,0.00185822,1,-0.762,0.2066)"
   class="st0"
   cx="110.8"
   cy="410.20001"
   id="ellipse208"
   r="5.1999998"
   style="fill:#ebebeb" />
</g>



<line
   class="st5"
   x1="233.79974"
   y1="144.49924"
   x2="97.699776"
   y2="280.59924"
   id="line240"
   style="fill:none;stroke:#ebebeb;stroke-width:22;stroke-linecap:round;stroke-linejoin:round;stroke-miterlimit:10" />


<g
   id="g398"
   transform="translate(-105.60024,-79.900737)">
	<line
   class="st6"
   x1="277"
   y1="190.60001"
   x2="265.70001"
   y2="201.89999"
   id="line390"
   style="fill:none;stroke:#ebebeb;stroke-width:2;stroke-linecap:round;stroke-linejoin:round;stroke-miterlimit:10" />
	<line
   class="st6"
   x1="291.79999"
   y1="175.7"
   x2="280.60001"
   y2="187"
   id="line392"
   style="fill:none;stroke:#ebebeb;stroke-width:2;stroke-linecap:round;stroke-linejoin:round;stroke-miterlimit:10" />
	<line
   class="st6"
   x1="306.70001"
   y1="160.89999"
   x2="295.5"
   y2="172.10001"
   id="line394"
   style="fill:none;stroke:#ebebeb;stroke-width:2;stroke-linecap:round;stroke-linejoin:round;stroke-miterlimit:10" />
	<line
   class="st6"
   x1="321.60001"
   y1="146"
   x2="310.29999"
   y2="157.2"
   id="line396"
   style="fill:none;stroke:#ebebeb;stroke-width:2;stroke-linecap:round;stroke-linejoin:round;stroke-miterlimit:10" />
</g>

</svg>