<?xml version="1.0" encoding="UTF-8" standalone="no"?>
<!-- Generator: Adobe Illustrator 24.0.3, SVG Export Plug-In . SVG Version: 6.00 Build 0)  -->

<svg
   xmlns:dc="http://purl.org/dc/elements/1.1/"
   xmlns:cc="http://creativecommons.org/ns#"
   xmlns:rdf="http://www.w3.org/1999/02/22-rdf-syntax-ns#"
   xmlns:svg="http://www.w3.org/2000/svg"
   xmlns="http://www.w3.org/2000/svg"
   xmlns:xlink="http://www.w3.org/1999/xlink"
   xmlns:sodipodi="http://sodipodi.sourceforge.net/DTD/sodipodi-0.dtd"
   xmlns:inkscape="http://www.inkscape.org/namespaces/inkscape"
   version="1.1"
   id="레이어_1"
   x="0px"
   y="0px"
   viewBox="0 0 347.09995 387.5"
   xml:space="preserve"
   sodipodi:docname="pattern-2.svg"
   width="347.09995"
   height="387.5"
   inkscape:version="0.92.5 (2060ec1f9f, 2020-04-08)"><metadata
   id="metadata471"><rdf:RDF><cc:Work
       rdf:about=""><dc:format>image/svg+xml</dc:format><dc:type
         rdf:resource="http://purl.org/dc/dcmitype/StillImage" /><dc:title></dc:title></cc:Work></rdf:RDF></metadata><defs
   id="defs469" /><sodipodi:namedview
   pagecolor="#ffffff"
   bordercolor="#666666"
   borderopacity="1"
   objecttolerance="10"
   gridtolerance="10"
   guidetolerance="10"
   inkscape:pageopacity="0"
   inkscape:pageshadow="2"
   inkscape:window-width="3840"
   inkscape:window-height="2106"
   id="namedview467"
   showgrid="false"
   fit-margin-top="0"
   fit-margin-left="0"
   fit-margin-right="0"
   fit-margin-bottom="0"
   inkscape:zoom="0.3299763"
   inkscape:cx="-453.9"
   inkscape:cy="195.20001"
   inkscape:window-x="0"
   inkscape:window-y="54"
   inkscape:window-maximized="1"
   inkscape:current-layer="레이어_1" />
<style
   type="text/css"
   id="style2">
	.st0{fill:#EBEBEB;}
	.st1{clip-path:url(#SVGID_2_);}
	.st2{fill:none;stroke:#FF0092;stroke-width:2;stroke-miterlimit:10;}
	.st3{fill:none;stroke:#EBEBEB;stroke-width:2;stroke-miterlimit:10;}
	.st4{fill:none;stroke:#EBEBEB;stroke-width:5;stroke-linecap:round;stroke-linejoin:round;stroke-miterlimit:10;}
	.st5{fill:none;stroke:#EBEBEB;stroke-width:22;stroke-linecap:round;stroke-linejoin:round;stroke-miterlimit:10;}
	.st6{fill:none;stroke:#EBEBEB;stroke-width:2;stroke-linecap:round;stroke-linejoin:round;stroke-miterlimit:10;}
	.st7{clip-path:url(#SVGID_4_);}
	.st8{fill:none;stroke:#FF0092;stroke-width:5;stroke-miterlimit:10;}
</style>


<g
   id="g194"
   transform="translate(-1297.9,-57.699999)">
	<circle
   class="st0"
   cx="1456.3"
   cy="100.8"
   r="5.1999998"
   id="circle180"
   style="fill:#ebebeb" />
	<circle
   class="st0"
   cx="1439.9"
   cy="117.2"
   r="5.1999998"
   id="circle182"
   style="fill:#ebebeb" />
	<circle
   class="st0"
   cx="1423.5"
   cy="133.7"
   r="5.1999998"
   id="circle184"
   style="fill:#ebebeb" />
	<circle
   class="st0"
   cx="1407.1"
   cy="150.2"
   r="5.1999998"
   id="circle186"
   style="fill:#ebebeb" />
	<circle
   class="st0"
   cx="1390.8"
   cy="166.60001"
   r="5.1999998"
   id="circle188"
   style="fill:#ebebeb" />
	
		<circle
   transform="matrix(1,-0.00185806,0.00185806,1,-0.3378,2.554)"
   class="st0"
   cx="1374.4"
   cy="183.10001"
   id="ellipse190"
   r="5.1999998"
   style="fill:#ebebeb" />
	<circle
   transform="matrix(1,-0.00185816,0.00185816,1,-0.3684,2.5237)"
   class="st0"
   cx="1358"
   cy="199.5"
   id="ellipse192"
   r="5.1999998"
   style="fill:#ebebeb" />
</g>

<g
   id="g226"
   transform="translate(-1297.9,-57.699999)">
	<circle
   class="st0"
   cx="1641.7"
   cy="126.4"
   r="3.3"
   id="circle212"
   style="fill:#ebebeb" />
	<circle
   class="st0"
   cx="1631.1"
   cy="137"
   r="3.3"
   id="circle214"
   style="fill:#ebebeb" />
	<circle
   class="st0"
   cx="1620.6"
   cy="147.5"
   r="3.3"
   id="circle216"
   style="fill:#ebebeb" />
	<circle
   class="st0"
   cx="1610"
   cy="158.10001"
   r="3.3"
   id="circle218"
   style="fill:#ebebeb" />
	<circle
   class="st0"
   cx="1599.5"
   cy="168.60001"
   r="3.3"
   id="circle220"
   style="fill:#ebebeb" />
	<circle
   class="st0"
   cx="1588.9"
   cy="179.2"
   r="3.3"
   id="circle222"
   style="fill:#ebebeb" />
	<circle
   class="st0"
   cx="1578.4"
   cy="189.7"
   r="3.3"
   id="circle224"
   style="fill:#ebebeb" />
</g>
<g
   id="g236"
   transform="translate(-1297.9,-57.699999)">
	<circle
   class="st3"
   cx="1553.1"
   cy="67.099998"
   r="8.3999996"
   id="circle228"
   style="fill:none;stroke:#ebebeb;stroke-width:2;stroke-miterlimit:10" />
	<circle
   class="st3"
   cx="1530.6"
   cy="89.599998"
   r="8.3999996"
   id="circle230"
   style="fill:none;stroke:#ebebeb;stroke-width:2;stroke-miterlimit:10" />
	<circle
   class="st3"
   cx="1508.1"
   cy="112.1"
   r="8.3999996"
   id="circle232"
   style="fill:none;stroke:#ebebeb;stroke-width:2;stroke-miterlimit:10" />
	<circle
   class="st3"
   cx="1485.6"
   cy="134.60001"
   r="8.3999996"
   id="circle234"
   style="fill:none;stroke:#ebebeb;stroke-width:2;stroke-miterlimit:10" />
</g>
<line
   class="st4"
   x1="159.90005"
   y1="105"
   x2="23.799952"
   y2="241.09999"
   id="line238"
   style="fill:none;stroke:#ebebeb;stroke-width:5;stroke-linecap:round;stroke-linejoin:round;stroke-miterlimit:10" />

<circle
   class="st0"
   cx="97.79995"
   cy="287.79999"
   r="31"
   id="circle242"
   style="fill:#ebebeb" />
<g
   id="g388"
   transform="translate(-1297.9,-57.699999)">
	<g
   id="g260">
		<circle
   class="st0"
   cx="1364.8"
   cy="314"
   r="2.5999999"
   id="circle244"
   style="fill:#ebebeb" />
		<circle
   class="st0"
   cx="1374"
   cy="323.20001"
   r="2.5999999"
   id="circle246"
   style="fill:#ebebeb" />
		<circle
   class="st0"
   cx="1383.2"
   cy="332.39999"
   r="2.5999999"
   id="circle248"
   style="fill:#ebebeb" />
		<circle
   class="st0"
   cx="1392.4"
   cy="341.60001"
   r="2.5999999"
   id="circle250"
   style="fill:#ebebeb" />
		<circle
   class="st0"
   cx="1401.6"
   cy="350.79999"
   r="2.5999999"
   id="circle252"
   style="fill:#ebebeb" />
		<circle
   class="st0"
   cx="1410.8"
   cy="360"
   r="2.5999999"
   id="circle254"
   style="fill:#ebebeb" />
		<circle
   class="st0"
   cx="1419.9"
   cy="369.10001"
   r="2.5999999"
   id="circle256"
   style="fill:#ebebeb" />
		<circle
   class="st0"
   cx="1429.1"
   cy="378.29999"
   r="2.5999999"
   id="circle258"
   style="fill:#ebebeb" />
	</g>
	<g
   id="g278">
		<circle
   class="st0"
   cx="1355.6"
   cy="323.20001"
   r="2.5999999"
   id="circle262"
   style="fill:#ebebeb" />
		<circle
   class="st0"
   cx="1364.8"
   cy="332.39999"
   r="2.5999999"
   id="circle264"
   style="fill:#ebebeb" />
		<circle
   class="st0"
   cx="1374"
   cy="341.60001"
   r="2.5999999"
   id="circle266"
   style="fill:#ebebeb" />
		<circle
   class="st0"
   cx="1383.2"
   cy="350.79999"
   r="2.5999999"
   id="circle268"
   style="fill:#ebebeb" />
		<circle
   class="st0"
   cx="1392.4"
   cy="360"
   r="2.5999999"
   id="circle270"
   style="fill:#ebebeb" />
		<circle
   class="st0"
   cx="1401.6"
   cy="369.10001"
   r="2.5999999"
   id="circle272"
   style="fill:#ebebeb" />
		<circle
   class="st0"
   cx="1410.8"
   cy="378.29999"
   r="2.5999999"
   id="circle274"
   style="fill:#ebebeb" />
		<path
   class="st0"
   d="m 1421.8,389.3 c -1,1 -2.6,1 -3.6,0 -1,-1 -1,-2.6 0,-3.6 1,-1 2.6,-1 3.6,0 1,1 1,2.6 0,3.6 z"
   id="path276"
   inkscape:connector-curvature="0"
   style="fill:#ebebeb" />
	</g>
	<g
   id="g296">
		<circle
   class="st0"
   cx="1346.4"
   cy="332.39999"
   r="2.5999999"
   id="circle280"
   style="fill:#ebebeb" />
		<circle
   class="st0"
   cx="1355.6"
   cy="341.60001"
   r="2.5999999"
   id="circle282"
   style="fill:#ebebeb" />
		<circle
   class="st0"
   cx="1364.8"
   cy="350.79999"
   r="2.5999999"
   id="circle284"
   style="fill:#ebebeb" />
		<circle
   class="st0"
   cx="1374"
   cy="360"
   r="2.5999999"
   id="circle286"
   style="fill:#ebebeb" />
		<circle
   class="st0"
   cx="1383.2"
   cy="369.10001"
   r="2.5999999"
   id="circle288"
   style="fill:#ebebeb" />
		<circle
   class="st0"
   cx="1392.4"
   cy="378.29999"
   r="2.5999999"
   id="circle290"
   style="fill:#ebebeb" />
		<path
   class="st0"
   d="m 1403.4,389.3 c -1,1 -2.6,1 -3.6,0 -1,-1 -1,-2.6 0,-3.6 1,-1 2.6,-1 3.6,0 1,1 1,2.6 0,3.6 z"
   id="path292"
   inkscape:connector-curvature="0"
   style="fill:#ebebeb" />
		<circle
   class="st0"
   cx="1410.8"
   cy="396.70001"
   r="2.5999999"
   id="circle294"
   style="fill:#ebebeb" />
	</g>
	<g
   id="g314">
		<circle
   class="st0"
   cx="1337.2"
   cy="341.60001"
   r="2.5999999"
   id="circle298"
   style="fill:#ebebeb" />
		<circle
   class="st0"
   cx="1346.4"
   cy="350.79999"
   r="2.5999999"
   id="circle300"
   style="fill:#ebebeb" />
		<circle
   class="st0"
   cx="1355.6"
   cy="360"
   r="2.5999999"
   id="circle302"
   style="fill:#ebebeb" />
		<circle
   class="st0"
   cx="1364.8"
   cy="369.10001"
   r="2.5999999"
   id="circle304"
   style="fill:#ebebeb" />
		<circle
   class="st0"
   cx="1374"
   cy="378.29999"
   r="2.5999999"
   id="circle306"
   style="fill:#ebebeb" />
		<path
   class="st0"
   d="m 1385,389.3 c -1,1 -2.6,1 -3.6,0 -1,-1 -1,-2.6 0,-3.6 1,-1 2.6,-1 3.6,0 1,1 1,2.6 0,3.6 z"
   id="path308"
   inkscape:connector-curvature="0"
   style="fill:#ebebeb" />
		<circle
   class="st0"
   cx="1392.4"
   cy="396.70001"
   r="2.5999999"
   id="circle310"
   style="fill:#ebebeb" />
		<circle
   class="st0"
   cx="1401.6"
   cy="405.89999"
   r="2.5999999"
   id="circle312"
   style="fill:#ebebeb" />
	</g>
	<g
   id="g332">
		<circle
   class="st0"
   cx="1328.1"
   cy="350.79999"
   r="2.5999999"
   id="circle316"
   style="fill:#ebebeb" />
		<circle
   class="st0"
   cx="1337.2"
   cy="360"
   r="2.5999999"
   id="circle318"
   style="fill:#ebebeb" />
		<circle
   class="st0"
   cx="1346.4"
   cy="369.10001"
   r="2.5999999"
   id="circle320"
   style="fill:#ebebeb" />
		<circle
   class="st0"
   cx="1355.6"
   cy="378.29999"
   r="2.5999999"
   id="circle322"
   style="fill:#ebebeb" />
		<path
   class="st0"
   d="m 1366.6,389.3 c -1,1 -2.6,1 -3.6,0 -1,-1 -1,-2.6 0,-3.6 1,-1 2.6,-1 3.6,0 1,1 1,2.6 0,3.6 z"
   id="path324"
   inkscape:connector-curvature="0"
   style="fill:#ebebeb" />
		<circle
   class="st0"
   cx="1374"
   cy="396.70001"
   r="2.5999999"
   id="circle326"
   style="fill:#ebebeb" />
		<circle
   class="st0"
   cx="1383.2"
   cy="405.89999"
   r="2.5999999"
   id="circle328"
   style="fill:#ebebeb" />
		<path
   class="st0"
   d="m 1394.2,416.9 c -1,1 -2.6,1 -3.6,0 -1,-1 -1,-2.6 0,-3.6 1,-1 2.6,-1 3.6,0 1,1 1,2.6 0,3.6 z"
   id="path330"
   inkscape:connector-curvature="0"
   style="fill:#ebebeb" />
	</g>
	<g
   id="g350">
		<circle
   class="st0"
   cx="1318.9"
   cy="360"
   r="2.5999999"
   id="circle334"
   style="fill:#ebebeb" />
		<circle
   class="st0"
   cx="1328.1"
   cy="369.10001"
   r="2.5999999"
   id="circle336"
   style="fill:#ebebeb" />
		<circle
   class="st0"
   cx="1337.2"
   cy="378.29999"
   r="2.5999999"
   id="circle338"
   style="fill:#ebebeb" />
		<path
   class="st0"
   d="m 1348.2,389.3 c -1,1 -2.6,1 -3.6,0 -1,-1 -1,-2.6 0,-3.6 1,-1 2.6,-1 3.6,0 1,1 1,2.6 0,3.6 z"
   id="path340"
   inkscape:connector-curvature="0"
   style="fill:#ebebeb" />
		<circle
   class="st0"
   cx="1355.6"
   cy="396.70001"
   r="2.5999999"
   id="circle342"
   style="fill:#ebebeb" />
		<circle
   class="st0"
   cx="1364.8"
   cy="405.89999"
   r="2.5999999"
   id="circle344"
   style="fill:#ebebeb" />
		<path
   class="st0"
   d="m 1375.8,416.9 c -1,1 -2.6,1 -3.6,0 -1,-1 -1,-2.6 0,-3.6 1,-1 2.6,-1 3.6,0 1,1 1,2.6 0,3.6 z"
   id="path346"
   inkscape:connector-curvature="0"
   style="fill:#ebebeb" />
		<circle
   class="st0"
   cx="1383.2"
   cy="424.29999"
   r="2.5999999"
   id="circle348"
   style="fill:#ebebeb" />
	</g>
	<g
   id="g368">
		<circle
   class="st0"
   cx="1309.7"
   cy="369.10001"
   r="2.5999999"
   id="circle352"
   style="fill:#ebebeb" />
		<circle
   class="st0"
   cx="1318.9"
   cy="378.29999"
   r="2.5999999"
   id="circle354"
   style="fill:#ebebeb" />
		<path
   class="st0"
   d="m 1329.9,389.3 c -1,1 -2.6,1 -3.6,0 -1,-1 -1,-2.6 0,-3.6 1,-1 2.6,-1 3.6,0 1,1 1,2.6 0,3.6 z"
   id="path356"
   inkscape:connector-curvature="0"
   style="fill:#ebebeb" />
		<circle
   class="st0"
   cx="1337.2"
   cy="396.70001"
   r="2.5999999"
   id="circle358"
   style="fill:#ebebeb" />
		<circle
   class="st0"
   cx="1346.4"
   cy="405.89999"
   r="2.5999999"
   id="circle360"
   style="fill:#ebebeb" />
		<path
   class="st0"
   d="m 1357.4,416.9 c -1,1 -2.6,1 -3.6,0 -1,-1 -1,-2.6 0,-3.6 1,-1 2.6,-1 3.6,0 1,1 1,2.6 0,3.6 z"
   id="path362"
   inkscape:connector-curvature="0"
   style="fill:#ebebeb" />
		<circle
   class="st0"
   cx="1364.8"
   cy="424.29999"
   r="2.5999999"
   id="circle364"
   style="fill:#ebebeb" />
		<path
   class="st0"
   d="m 1375.8,435.3 c -1,1 -2.6,1 -3.6,0 -1,-1 -1,-2.6 0,-3.6 1,-1 2.6,-1 3.6,0 1,1 1,2.6 0,3.6 z"
   id="path366"
   inkscape:connector-curvature="0"
   style="fill:#ebebeb" />
	</g>
	<g
   id="g386">
		<circle
   class="st0"
   cx="1300.5"
   cy="378.29999"
   r="2.5999999"
   id="circle370"
   style="fill:#ebebeb" />
		<path
   class="st0"
   d="m 1311.5,389.3 c -1,1 -2.6,1 -3.6,0 -1,-1 -1,-2.6 0,-3.6 1,-1 2.6,-1 3.6,0 1,1 1,2.6 0,3.6 z"
   id="path372"
   inkscape:connector-curvature="0"
   style="fill:#ebebeb" />
		<circle
   class="st0"
   cx="1318.9"
   cy="396.70001"
   r="2.5999999"
   id="circle374"
   style="fill:#ebebeb" />
		<circle
   class="st0"
   cx="1328.1"
   cy="405.89999"
   r="2.5999999"
   id="circle376"
   style="fill:#ebebeb" />
		<path
   class="st0"
   d="m 1339.1,416.9 c -1,1 -2.6,1 -3.6,0 -1,-1 -1,-2.6 0,-3.6 1,-1 2.6,-1 3.6,0 1,1 1,2.6 0,3.6 z"
   id="path378"
   inkscape:connector-curvature="0"
   style="fill:#ebebeb" />
		<circle
   class="st0"
   cx="1346.4"
   cy="424.29999"
   r="2.5999999"
   id="circle380"
   style="fill:#ebebeb" />
		<path
   class="st0"
   d="m 1357.4,435.3 c -1,1 -2.6,1 -3.6,0 -1,-1 -1,-2.6 0,-3.6 1,-1 2.6,-1 3.6,0 1,1 1,2.6 0,3.6 z"
   id="path382"
   inkscape:connector-curvature="0"
   style="fill:#ebebeb" />
		<circle
   class="st0"
   cx="1364.8"
   cy="442.60001"
   r="2.5999999"
   id="circle384"
   style="fill:#ebebeb" />
	</g>
</g>

<g
   id="g464"
   transform="translate(-1297.9,-57.699999)">
	<g
   id="g462">
		<defs
   id="defs401">
			<circle
   id="SVGID_3_"
   cx="1449.2"
   cy="308.39999"
   r="51.900002" />
		</defs>
		<clipPath
   id="SVGID_4_">
			<use
   xlink:href="#SVGID_3_"
   style="overflow:visible"
   id="use403"
   x="0"
   y="0"
   width="100%"
   height="100%" />
		</clipPath>
		<g
   class="st7"
   clip-path="url(#SVGID_4_)"
   id="g460">
			<line
   class="st8"
   x1="1586.6"
   y1="-9.8999996"
   x2="1304.9"
   y2="271.79999"
   id="line406"
   style="fill:none;stroke:#ff0092;stroke-width:5;stroke-miterlimit:10" />
			<line
   class="st8"
   x1="1586.6"
   y1="4.1999998"
   x2="1304.9"
   y2="285.89999"
   id="line408"
   style="fill:none;stroke:#ff0092;stroke-width:5;stroke-miterlimit:10" />
			<line
   class="st8"
   x1="1586.6"
   y1="18.299999"
   x2="1304.9"
   y2="300"
   id="line410"
   style="fill:none;stroke:#ff0092;stroke-width:5;stroke-miterlimit:10" />
			<line
   class="st8"
   x1="1586.6"
   y1="32.400002"
   x2="1304.9"
   y2="314.10001"
   id="line412"
   style="fill:none;stroke:#ff0092;stroke-width:5;stroke-miterlimit:10" />
			<line
   class="st8"
   x1="1586.6"
   y1="46.5"
   x2="1304.9"
   y2="328.20001"
   id="line414"
   style="fill:none;stroke:#ff0092;stroke-width:5;stroke-miterlimit:10" />
			<line
   class="st8"
   x1="1586.6"
   y1="60.599998"
   x2="1304.9"
   y2="342.29999"
   id="line416"
   style="fill:none;stroke:#ff0092;stroke-width:5;stroke-miterlimit:10" />
			<line
   class="st8"
   x1="1586.6"
   y1="74.699997"
   x2="1304.9"
   y2="356.39999"
   id="line418"
   style="fill:none;stroke:#ff0092;stroke-width:5;stroke-miterlimit:10" />
			<line
   class="st8"
   x1="1586.6"
   y1="88.800003"
   x2="1304.9"
   y2="370.5"
   id="line420"
   style="fill:none;stroke:#ff0092;stroke-width:5;stroke-miterlimit:10" />
			<line
   class="st8"
   x1="1586.6"
   y1="102.9"
   x2="1304.9"
   y2="384.60001"
   id="line422"
   style="fill:none;stroke:#ff0092;stroke-width:5;stroke-miterlimit:10" />
			<line
   class="st8"
   x1="1586.6"
   y1="117"
   x2="1304.9"
   y2="398.70001"
   id="line424"
   style="fill:none;stroke:#ff0092;stroke-width:5;stroke-miterlimit:10" />
			<line
   class="st8"
   x1="1586.6"
   y1="131.10001"
   x2="1304.9"
   y2="412.79999"
   id="line426"
   style="fill:none;stroke:#ff0092;stroke-width:5;stroke-miterlimit:10" />
			<line
   class="st8"
   x1="1586.6"
   y1="145.2"
   x2="1304.9"
   y2="426.89999"
   id="line428"
   style="fill:none;stroke:#ff0092;stroke-width:5;stroke-miterlimit:10" />
			<line
   class="st8"
   x1="1586.6"
   y1="159.3"
   x2="1304.9"
   y2="441"
   id="line430"
   style="fill:none;stroke:#ff0092;stroke-width:5;stroke-miterlimit:10" />
			<line
   class="st8"
   x1="1586.6"
   y1="173.39999"
   x2="1304.9"
   y2="455.10001"
   id="line432"
   style="fill:none;stroke:#ff0092;stroke-width:5;stroke-miterlimit:10" />
			<line
   class="st8"
   x1="1586.6"
   y1="187.5"
   x2="1304.9"
   y2="469.20001"
   id="line434"
   style="fill:none;stroke:#ff0092;stroke-width:5;stroke-miterlimit:10" />
			<line
   class="st8"
   x1="1586.6"
   y1="201.60001"
   x2="1304.9"
   y2="483.29999"
   id="line436"
   style="fill:none;stroke:#ff0092;stroke-width:5;stroke-miterlimit:10" />
			<line
   class="st8"
   x1="1586.6"
   y1="215.7"
   x2="1304.9"
   y2="497.39999"
   id="line438"
   style="fill:none;stroke:#ff0092;stroke-width:5;stroke-miterlimit:10" />
			<line
   class="st8"
   x1="1586.6"
   y1="229.8"
   x2="1304.9"
   y2="511.5"
   id="line440"
   style="fill:none;stroke:#ff0092;stroke-width:5;stroke-miterlimit:10" />
			<line
   class="st8"
   x1="1586.6"
   y1="243.89999"
   x2="1304.9"
   y2="525.59998"
   id="line442"
   style="fill:none;stroke:#ff0092;stroke-width:5;stroke-miterlimit:10" />
			<line
   class="st8"
   x1="1586.6"
   y1="258"
   x2="1304.9"
   y2="539.70001"
   id="line444"
   style="fill:none;stroke:#ff0092;stroke-width:5;stroke-miterlimit:10" />
			<line
   class="st8"
   x1="1586.6"
   y1="272.10001"
   x2="1304.9"
   y2="553.79999"
   id="line446"
   style="fill:none;stroke:#ff0092;stroke-width:5;stroke-miterlimit:10" />
			<line
   class="st8"
   x1="1586.6"
   y1="286.20001"
   x2="1304.9"
   y2="567.90002"
   id="line448"
   style="fill:none;stroke:#ff0092;stroke-width:5;stroke-miterlimit:10" />
			<line
   class="st8"
   x1="1586.6"
   y1="300.29999"
   x2="1304.9"
   y2="582"
   id="line450"
   style="fill:none;stroke:#ff0092;stroke-width:5;stroke-miterlimit:10" />
			<line
   class="st8"
   x1="1586.6"
   y1="314.39999"
   x2="1304.9"
   y2="596.09998"
   id="line452"
   style="fill:none;stroke:#ff0092;stroke-width:5;stroke-miterlimit:10" />
			<line
   class="st8"
   x1="1586.6"
   y1="328.5"
   x2="1304.9"
   y2="610.20001"
   id="line454"
   style="fill:none;stroke:#ff0092;stroke-width:5;stroke-miterlimit:10" />
			<line
   class="st8"
   x1="1586.6"
   y1="342.60001"
   x2="1304.9"
   y2="624.29999"
   id="line456"
   style="fill:none;stroke:#ff0092;stroke-width:5;stroke-miterlimit:10" />
			<line
   class="st8"
   x1="1586.6"
   y1="356.70001"
   x2="1304.9"
   y2="638.40002"
   id="line458"
   style="fill:none;stroke:#ff0092;stroke-width:5;stroke-miterlimit:10" />
		</g>
	</g>
</g>
</svg>