<?xml version="1.0" encoding="UTF-8" standalone="no"?>
<!-- Created with Inkscape (http://www.inkscape.org/) -->

<svg
   xmlns:dc="http://purl.org/dc/elements/1.1/"
   xmlns:cc="http://creativecommons.org/ns#"
   xmlns:rdf="http://www.w3.org/1999/02/22-rdf-syntax-ns#"
   xmlns:svg="http://www.w3.org/2000/svg"
   xmlns="http://www.w3.org/2000/svg"
   xmlns:sodipodi="http://sodipodi.sourceforge.net/DTD/sodipodi-0.dtd"
   xmlns:inkscape="http://www.inkscape.org/namespaces/inkscape"
   width="297mm"
   height="210mm"
   viewBox="0 0 297 210"
   version="1.1"
   id="svg112"
   inkscape:version="0.92.2 2405546, 2018-03-11"
   sodipodi:docname="armeria_text.svg">
  <defs
     id="defs106" />
  <sodipodi:namedview
     id="base"
     pagecolor="#ffffff"
     bordercolor="#666666"
     borderopacity="1.0"
     inkscape:pageopacity="0.0"
     inkscape:pageshadow="2"
     inkscape:zoom="0.98994949"
     inkscape:cx="524.62261"
     inkscape:cy="390.30783"
     inkscape:document-units="mm"
     inkscape:current-layer="layer1"
     showgrid="false"
     inkscape:window-width="2880"
     inkscape:window-height="1565"
     inkscape:window-x="0"
     inkscape:window-y="55"
     inkscape:window-maximized="1" />
  <metadata
     id="metadata109">
    <rdf:RDF>
      <cc:Work
         rdf:about="">
        <dc:format>image/svg+xml</dc:format>
        <dc:type
           rdf:resource="http://purl.org/dc/dcmitype/StillImage" />
        <dc:title />
      </cc:Work>
    </rdf:RDF>
  </metadata>
  <g
     inkscape:label="Layer 1"
     inkscape:groupmode="layer"
     id="layer1"
     transform="translate(0,-87)">
    <g
       transform="matrix(0.48512839,0,0,-0.48512839,-161.98217,366.6461)"
       id="g82">
      <g
         transform="translate(437.0708,390.811)"
         id="g12">
        <path
           inkscape:connector-curvature="0"
           id="path14"
           style="fill:#3a3a3a;fill-opacity:1;fill-rule:nonzero;stroke:none"
           d="M 0,0 -16.979,-42.449 H 17.12 Z m 21.648,-53.909 h -43.296 l -9.339,-23.204 H -44.428 L -7.075,13.583 H 7.924 L 45.277,-77.113 H 30.986 Z" />
      </g>
      <g
         transform="translate(506.7983,313.6982)"
         id="g24">
        <path
           inkscape:connector-curvature="0"
           id="path26"
           style="fill:#3a3a3a;fill-opacity:1;fill-rule:nonzero;stroke:none"
           d="M 0,0 H -12.591 V 67.773 H 0 v -8.488 c 3.679,6.225 9.481,10.187 16.979,10.187 4.246,0 7.925,-0.991 10.329,-2.972 L 22.074,54.757 C 19.81,56.313 16.556,57.445 13.3,57.445 5.094,57.445 0,50.37 0,39.052 Z" />
      </g>
      <g
         transform="translate(558.7422,313.6982)"
         id="g28">
        <path
           inkscape:connector-curvature="0"
           id="path30"
           style="fill:#3a3a3a;fill-opacity:1;fill-rule:nonzero;stroke:none"
           d="M 0,0 H -12.591 V 67.773 H 0 v -8.488 c 4.105,6.225 10.896,10.187 19.526,10.187 10.612,0 18.537,-5.094 22.64,-13.725 3.679,7.923 11.178,13.725 22.072,13.725 15.706,0 25.893,-10.612 25.893,-28.015 V 0 H 77.538 v 39.476 c 0,11.178 -6.083,18.252 -16.13,18.252 -10.187,0 -16.412,-7.074 -16.412,-18.252 V 0 H 32.544 v 39.476 c 0,11.178 -6.225,18.252 -16.272,18.252 C 6.085,57.728 0,50.654 0,39.476 Z" />
      </g>
      <g
         transform="translate(755.7534,313.6982)"
         id="g32">
        <path
           inkscape:connector-curvature="0"
           id="path34"
           style="fill:#3a3a3a;fill-opacity:1;fill-rule:nonzero;stroke:none"
           d="M 0,0 H -12.591 V 67.773 H 0 v -8.488 c 3.679,6.225 9.481,10.187 16.979,10.187 4.246,0 7.925,-0.991 10.329,-2.972 L 22.074,54.757 C 19.81,56.313 16.556,57.445 13.3,57.445 5.094,57.445 0,50.37 0,39.052 Z" />
      </g>
      <path
         inkscape:connector-curvature="0"
         id="path36"
         style="fill:#3a3a3a;fill-opacity:1;fill-rule:nonzero;stroke:none"
         d="m 805.103,313.698 h -12.591 v 67.773 h 12.591 z m -14.148,86.52 c 0,4.244 3.537,7.782 7.782,7.782 4.243,0 7.781,-3.538 7.781,-7.782 0,-4.244 -3.538,-7.782 -7.781,-7.782 -4.245,0 -7.782,3.538 -7.782,7.782" />
      <g
         transform="translate(874.7642,347.6562)"
         id="g38">
        <path
           inkscape:connector-curvature="0"
           id="path40"
           style="fill:#3a3a3a;fill-opacity:1;fill-rule:nonzero;stroke:none"
           d="m 0,0 c 0,13.299 -9.196,23.77 -21.93,23.77 -12.735,0 -22.072,-10.471 -22.072,-23.77 0,-13.159 9.337,-23.913 22.072,-23.913 C -9.196,-23.913 0,-13.159 0,0 m 0,-23.346 c -5.234,-7.5 -13.44,-12.31 -23.769,-12.31 -18.395,0 -32.826,15.138 -32.826,35.656 0,20.091 13.866,35.514 32.826,35.514 10.329,0 18.535,-4.528 23.769,-11.885 V 33.815 H 12.593 V -33.958 H 0 Z" />
      </g>
      <g
         transform="translate(696.043,372.4165)"
         id="g42">
        <path
           inkscape:connector-curvature="0"
           id="path44"
           style="fill:#3a3a3a;fill-opacity:1;fill-rule:nonzero;stroke:none"
           d="M 0,0 C 10.5,0 18.221,-6.935 20.301,-19.28 H -20.58 C -18.627,-8.161 -10.907,0 0,0 m -0.142,10.754 c -19.242,0 -33.531,-15.847 -33.531,-35.514 0,-19.668 14.855,-35.657 35.513,-35.657 10.895,0 21.269,5.056 27.727,13.821 l -9.149,6.47 c -5.628,-6.261 -10.513,-9.113 -18.153,-9.113 -12.708,0 -21.545,8.829 -23.133,20.76 h 53.31 c 0,0 0.407,3.014 0.407,4.992 0,19.101 -14.031,34.241 -32.991,34.241" />
      </g>
    </g>
  </g>
</svg>
