<?xml version="1.0" encoding="UTF-8" standalone="no"?>
<!-- Created with Inkscape (http://www.inkscape.org/) -->

<svg
   xmlns:dc="http://purl.org/dc/elements/1.1/"
   xmlns:cc="http://creativecommons.org/ns#"
   xmlns:rdf="http://www.w3.org/1999/02/22-rdf-syntax-ns#"
   xmlns:svg="http://www.w3.org/2000/svg"
   xmlns="http://www.w3.org/2000/svg"
   xmlns:sodipodi="http://sodipodi.sourceforge.net/DTD/sodipodi-0.dtd"
   xmlns:inkscape="http://www.inkscape.org/namespaces/inkscape"
   width="297mm"
   height="210mm"
   viewBox="0 0 297 210"
   version="1.1"
   id="svg340"
   inkscape:version="0.92.2 2405546, 2018-03-11"
   sodipodi:docname="armeria_icon_and_text_vert.svg">
  <defs
     id="defs334" />
  <sodipodi:namedview
     id="base"
     pagecolor="#ffffff"
     bordercolor="#666666"
     borderopacity="1.0"
     inkscape:pageopacity="0.0"
     inkscape:pageshadow="2"
     inkscape:zoom="0.98994949"
     inkscape:cx="497.40448"
     inkscape:cy="458.46534"
     inkscape:document-units="mm"
     inkscape:current-layer="layer1"
     showgrid="false"
     inkscape:window-width="2880"
     inkscape:window-height="1565"
     inkscape:window-x="0"
     inkscape:window-y="55"
     inkscape:window-maximized="1" />
  <metadata
     id="metadata337">
    <rdf:RDF>
      <cc:Work
         rdf:about="">
        <dc:format>image/svg+xml</dc:format>
        <dc:type
           rdf:resource="http://purl.org/dc/dcmitype/StillImage" />
        <dc:title />
      </cc:Work>
    </rdf:RDF>
  </metadata>
  <g
     inkscape:label="Layer 1"
     inkscape:groupmode="layer"
     id="layer1"
     transform="translate(0,-87)">
    <g
       transform="matrix(0.46852605,0,0,-0.46852605,-151.35677,360.66921)"
       id="g272">
      <g
         transform="translate(539.3169,252.4316)"
         id="g12">
        <path
           inkscape:connector-curvature="0"
           id="path14"
           style="fill:#3a3a3a;fill-opacity:1;fill-rule:nonzero;stroke:none"
           d="M 0,0 -8.424,-21.061 H 8.494 Z m 10.741,-26.747 h -21.482 l -4.634,-11.513 h -6.667 L -3.51,6.739 H 3.932 L 22.464,-38.26 h -7.09 z" />
      </g>
      <g
         transform="translate(573.9121,214.1719)"
         id="g24">
        <path
           inkscape:connector-curvature="0"
           id="path26"
           style="fill:#3a3a3a;fill-opacity:1;fill-rule:nonzero;stroke:none"
           d="M 0,0 H -6.247 V 33.626 H 0 v -4.212 c 1.826,3.089 4.704,5.055 8.424,5.055 2.106,0 3.932,-0.492 5.125,-1.475 L 10.952,27.168 C 9.829,27.939 8.214,28.501 6.599,28.501 2.527,28.501 0,24.991 0,19.375 Z" />
      </g>
      <g
         transform="translate(599.6841,214.1719)"
         id="g28">
        <path
           inkscape:connector-curvature="0"
           id="path30"
           style="fill:#3a3a3a;fill-opacity:1;fill-rule:nonzero;stroke:none"
           d="M 0,0 H -6.247 V 33.626 H 0 v -4.212 c 2.037,3.089 5.406,5.055 9.688,5.055 5.265,0 9.197,-2.528 11.232,-6.81 1.826,3.931 5.546,6.81 10.952,6.81 7.792,0 12.846,-5.266 12.846,-13.901 V 0 H 38.47 v 19.586 c 0,5.546 -3.018,9.056 -8.003,9.056 -5.054,0 -8.143,-3.51 -8.143,-9.056 V 0 h -6.177 v 19.586 c 0,5.546 -3.089,9.056 -8.074,9.056 C 3.02,28.642 0,25.132 0,19.586 Z" />
      </g>
      <g
         transform="translate(697.4307,214.1719)"
         id="g32">
        <path
           inkscape:connector-curvature="0"
           id="path34"
           style="fill:#3a3a3a;fill-opacity:1;fill-rule:nonzero;stroke:none"
           d="M 0,0 H -6.247 V 33.626 H 0 v -4.212 c 1.826,3.089 4.704,5.055 8.425,5.055 2.106,0 3.931,-0.492 5.124,-1.475 L 10.952,27.168 C 9.829,27.939 8.215,28.501 6.6,28.501 2.527,28.501 0,24.991 0,19.375 Z" />
      </g>
      <path
         inkscape:connector-curvature="0"
         id="path36"
         style="fill:#3a3a3a;fill-opacity:1;fill-rule:nonzero;stroke:none"
         d="m 721.915,214.172 h -6.247 v 33.626 h 6.247 z m -7.019,42.927 c 0,2.106 1.755,3.861 3.861,3.861 2.105,0 3.86,-1.755 3.86,-3.861 0,-2.106 -1.755,-3.862 -3.86,-3.862 -2.106,0 -3.861,1.756 -3.861,3.862" />
      <g
         transform="translate(756.4775,231.0205)"
         id="g38">
        <path
           inkscape:connector-curvature="0"
           id="path40"
           style="fill:#3a3a3a;fill-opacity:1;fill-rule:nonzero;stroke:none"
           d="m 0,0 c 0,6.599 -4.562,11.793 -10.88,11.793 -6.318,0 -10.951,-5.194 -10.951,-11.793 0,-6.529 4.633,-11.864 10.951,-11.864 C -4.562,-11.864 0,-6.529 0,0 m 0,-11.583 c -2.597,-3.722 -6.668,-6.108 -11.793,-6.108 -9.126,0 -16.286,7.511 -16.286,17.691 0,9.968 6.88,17.62 16.286,17.62 5.125,0 9.196,-2.246 11.793,-5.897 v 5.054 H 6.248 V -16.849 H 0 Z" />
      </g>
      <g
         transform="translate(667.8057,243.3047)"
         id="g42">
        <path
           inkscape:connector-curvature="0"
           id="path44"
           style="fill:#3a3a3a;fill-opacity:1;fill-rule:nonzero;stroke:none"
           d="M 0,0 C 5.21,0 9.04,-3.44 10.072,-9.565 H -10.211 C -9.242,-4.049 -5.412,0 0,0 m -0.07,5.336 c -9.547,0 -16.637,-7.862 -16.637,-17.62 0,-9.759 7.37,-17.692 17.62,-17.692 5.405,0 10.553,2.509 13.757,6.858 l -4.539,3.21 c -2.793,-3.107 -5.217,-4.522 -9.007,-4.522 -6.306,0 -10.689,4.381 -11.478,10.3 h 26.45 c 0,0 0.202,1.495 0.202,2.477 0,9.477 -6.961,16.989 -16.368,16.989" />
      </g>
      <g
         transform="translate(639.9995,447.2705)"
         id="g46">
        <path
           inkscape:connector-curvature="0"
           id="path48"
           style="fill:#ff9dc3;fill-opacity:1;fill-rule:nonzero;stroke:none"
           d="M 0,0 -34.294,-19.8 V -59.4 L 0,-79.2 34.294,-59.4 v 39.6 z" />
      </g>
      <g
         transform="translate(708.5889,447.2705)"
         id="g50">
        <path
           inkscape:connector-curvature="0"
           id="path52"
           style="fill:#ff9dc3;fill-opacity:1;fill-rule:nonzero;stroke:none"
           d="M 0,0 V 39.6 L -34.295,19.8 Z" />
      </g>
      <g
         transform="translate(571.4106,407.6704)"
         id="g54">
        <path
           inkscape:connector-curvature="0"
           id="path56"
           style="fill:#ff9dc3;fill-opacity:1;fill-rule:nonzero;stroke:none"
           d="M 0,0 V 39.6 L -34.295,19.8 Z" />
      </g>
      <g
         transform="translate(674.2939,308.6709)"
         id="g58">
        <path
           inkscape:connector-curvature="0"
           id="path60"
           style="fill:#ff9dc3;fill-opacity:1;fill-rule:nonzero;stroke:none"
           d="M 0,0 V 39.6 L -34.294,19.8 Z" />
      </g>
      <g
         transform="translate(571.4106,486.8706)"
         id="g62">
        <path
           inkscape:connector-curvature="0"
           id="path64"
           style="fill:#ff9dc3;fill-opacity:1;fill-rule:nonzero;stroke:none"
           d="m 0,0 v -39.6 l 34.294,19.8 z" />
      </g>
      <g
         transform="translate(708.5889,447.2705)"
         id="g66">
        <path
           inkscape:connector-curvature="0"
           id="path68"
           style="fill:#ff9dc3;fill-opacity:1;fill-rule:nonzero;stroke:none"
           d="m 0,0 v -39.6 l 34.295,19.8 z" />
      </g>
      <g
         transform="translate(605.7051,348.2705)"
         id="g70">
        <path
           inkscape:connector-curvature="0"
           id="path72"
           style="fill:#ff9dc3;fill-opacity:1;fill-rule:nonzero;stroke:none"
           d="m 0,0 v -39.6 l 34.294,19.8 z" />
      </g>
      <g
         transform="translate(605.7051,506.6704)"
         id="g74">
        <path
           inkscape:connector-curvature="0"
           id="path76"
           style="fill:#ff0089;fill-opacity:1;fill-rule:nonzero;stroke:none"
           d="M 0,0 -34.294,-19.8 0,-39.6 34.294,-19.8 Z" />
      </g>
      <g
         transform="translate(708.5889,486.8706)"
         id="g78">
        <path
           inkscape:connector-curvature="0"
           id="path80"
           style="fill:#ff0089;fill-opacity:1;fill-rule:nonzero;stroke:none"
           d="M 0,0 -34.295,19.8 -68.589,0 -34.295,-19.8 Z" />
      </g>
      <g
         transform="translate(674.2939,427.4707)"
         id="g82">
        <path
           inkscape:connector-curvature="0"
           id="path84"
           style="fill:#ff0089;fill-opacity:1;fill-rule:nonzero;stroke:none"
           d="m 0,0 v 0 -39.6 l 34.295,19.8 V 19.8 L 0,39.6 -34.294,19.8 Z" />
      </g>
      <g
         transform="translate(605.7051,427.4707)"
         id="g86">
        <path
           inkscape:connector-curvature="0"
           id="path88"
           style="fill:#ff0089;fill-opacity:1;fill-rule:nonzero;stroke:none"
           d="M 0,0 34.294,19.8 0,39.6 -34.294,19.8 V -19.8 L 0,-39.6 Z" />
      </g>
      <g
         transform="translate(674.2939,308.6709)"
         id="g90">
        <path
           inkscape:connector-curvature="0"
           id="path92"
           style="fill:#ff0089;fill-opacity:1;fill-rule:nonzero;stroke:none"
           d="M 0,0 34.295,19.8 V 59.4 L 0,39.6 Z" />
      </g>
      <g
         transform="translate(708.5889,407.6709)"
         id="g94">
        <path
           inkscape:connector-curvature="0"
           id="path96"
           style="fill:#ff0089;fill-opacity:1;fill-rule:nonzero;stroke:none"
           d="m 0,0 0.001,-39.6 34.294,19.8 v 39.6 z" />
      </g>
      <g
         transform="translate(571.4106,328.4707)"
         id="g98">
        <path
           inkscape:connector-curvature="0"
           id="path100"
           style="fill:#ff0089;fill-opacity:1;fill-rule:nonzero;stroke:none"
           d="M 0,0 34.294,-19.8 V 19.8 L 0,39.6 Z" />
      </g>
      <g
         transform="translate(537.1157,427.4707)"
         id="g102">
        <path
           inkscape:connector-curvature="0"
           id="path104"
           style="fill:#ff0089;fill-opacity:1;fill-rule:nonzero;stroke:none"
           d="m 0,0 v -39.6 l 34.295,-19.8 v 39.6 z" />
      </g>
      <g
         transform="translate(639.9995,368.0708)"
         id="g106">
        <path
           inkscape:connector-curvature="0"
           id="path108"
           style="fill:#ff0089;fill-opacity:1;fill-rule:nonzero;stroke:none"
           d="M 0,0 -34.294,19.8 V -19.8 L 0,-39.6 34.294,-19.8 v 39.6 z" />
      </g>
      <g
         transform="translate(674.2939,467.0703)"
         id="g110">
        <path
           inkscape:connector-curvature="0"
           id="path112"
           style="fill:#ffffff;fill-opacity:1;fill-rule:nonzero;stroke:none"
           d="M 0,0 -34.294,19.8 -68.589,0 -34.294,-19.8 Z" />
      </g>
      <g
         transform="translate(708.5889,407.6704)"
         id="g114">
        <path
           inkscape:connector-curvature="0"
           id="path116"
           style="fill:#ffffff;fill-opacity:1;fill-rule:nonzero;stroke:none"
           d="M 0,0 -34.295,-19.8 V -59.4 L 0,-39.6 Z" />
      </g>
      <g
         transform="translate(571.4106,407.6704)"
         id="g118">
        <path
           inkscape:connector-curvature="0"
           id="path120"
           style="fill:#ffffff;fill-opacity:1;fill-rule:nonzero;stroke:none"
           d="M 0,0 34.294,-19.8 V -59.4 L 0,-39.6 Z" />
      </g>
    </g>
  </g>
</svg>
