<?xml version="1.0" encoding="UTF-8" standalone="no"?>
<!-- Created with Inkscape (http://www.inkscape.org/) -->

<svg
   xmlns:dc="http://purl.org/dc/elements/1.1/"
   xmlns:cc="http://creativecommons.org/ns#"
   xmlns:rdf="http://www.w3.org/1999/02/22-rdf-syntax-ns#"
   xmlns:svg="http://www.w3.org/2000/svg"
   xmlns="http://www.w3.org/2000/svg"
   xmlns:sodipodi="http://sodipodi.sourceforge.net/DTD/sodipodi-0.dtd"
   xmlns:inkscape="http://www.inkscape.org/namespaces/inkscape"
   width="297mm"
   height="210mm"
   viewBox="0 0 297 210"
   version="1.1"
   id="svg5780"
   inkscape:version="0.92.2 2405546, 2018-03-11"
   sodipodi:docname="armeria_icon_and_text_horiz_inverted_grayscale.svg">
  <defs
     id="defs5774">
    <clipPath
       clipPathUnits="userSpaceOnUse"
       id="clipPath168">
      <path
         d="m 770.919,281.119 h 45.726 v -39.6 h -45.726 z"
         id="path166"
         inkscape:connector-curvature="0" />
    </clipPath>
  </defs>
  <sodipodi:namedview
     id="base"
     pagecolor="#3a3a3a"
     bordercolor="#666666"
     borderopacity="1.0"
     inkscape:pageopacity="1"
     inkscape:pageshadow="2"
     inkscape:zoom="0.35"
     inkscape:cx="-452.85714"
     inkscape:cy="560"
     inkscape:document-units="mm"
     inkscape:current-layer="layer1"
     showgrid="false"
     inkscape:window-width="2880"
     inkscape:window-height="1565"
     inkscape:window-x="0"
     inkscape:window-y="55"
     inkscape:window-maximized="1" />
  <metadata
     id="metadata5777">
    <rdf:RDF>
      <cc:Work
         rdf:about="">
        <dc:format>image/svg+xml</dc:format>
        <dc:type
           rdf:resource="http://purl.org/dc/dcmitype/StillImage" />
        <dc:title></dc:title>
      </cc:Work>
    </rdf:RDF>
  </metadata>
  <g
     inkscape:label="Layer 1"
     inkscape:groupmode="layer"
     id="layer1"
     transform="translate(0,-87)">
    <g
       id="g5937"
       transform="matrix(3.6047759,0,0,3.6047759,-3058.8708,118.74579)">
      <g
         transform="matrix(0.35277777,0,0,-0.35277777,880.59728,17.465061)"
         id="g136">
        <path
           inkscape:connector-curvature="0"
           id="path138"
           style="fill:#ffffff;fill-opacity:1;fill-rule:nonzero;stroke:none"
           d="m 0,0 -4.462,-11.155 h 8.96 z M 5.688,-14.167 H -5.689 l -2.455,-6.098 h -3.531 l 9.816,23.834 h 3.941 l 9.815,-23.834 H 8.143 Z" />
      </g>
      <g
         transform="matrix(0.35277777,0,0,-0.35277777,887.22668,24.61396)"
         id="g140">
        <path
           inkscape:connector-curvature="0"
           id="path142"
           style="fill:#ffffff;fill-opacity:1;fill-rule:nonzero;stroke:none"
           d="M 0,0 H -3.309 V 17.811 H 0 v -2.232 c 0.967,1.637 2.491,2.678 4.462,2.678 1.115,0 2.082,-0.261 2.714,-0.781 L 5.801,14.39 C 5.205,14.799 4.351,15.096 3.495,15.096 1.339,15.096 0,13.237 0,10.263 Z" />
      </g>
      <g
         transform="matrix(0.35277777,0,0,-0.35277777,892.10181,24.61396)"
         id="g144">
        <path
           inkscape:connector-curvature="0"
           id="path146"
           style="fill:#ffffff;fill-opacity:1;fill-rule:nonzero;stroke:none"
           d="M 0,0 H -3.309 V 17.811 H 0 v -2.232 c 1.079,1.637 2.863,2.678 5.131,2.678 2.789,0 4.871,-1.339 5.949,-3.608 0.967,2.083 2.938,3.608 5.801,3.608 4.127,0 6.804,-2.789 6.804,-7.362 V 0 h -3.309 v 10.374 c 0,2.938 -1.599,4.796 -4.239,4.796 -2.677,0 -4.313,-1.858 -4.313,-4.796 V 0 H 8.552 v 10.374 c 0,2.938 -1.636,4.796 -4.276,4.796 C 1.6,15.17 0,13.312 0,10.374 Z" />
      </g>
      <g
         transform="matrix(0.35277777,0,0,-0.35277777,910.68879,24.61396)"
         id="g148">
        <path
           inkscape:connector-curvature="0"
           id="path150"
           style="fill:#ffffff;fill-opacity:1;fill-rule:nonzero;stroke:none"
           d="M 0,0 H -3.309 V 17.811 H 0 v -2.232 c 0.967,1.637 2.491,2.678 4.462,2.678 1.116,0 2.083,-0.261 2.715,-0.781 L 5.801,14.39 C 5.206,14.799 4.351,15.096 3.495,15.096 1.339,15.096 0,13.237 0,10.263 Z" />
      </g>
      <path
         inkscape:connector-curvature="0"
         id="path152"
         style="fill:#ffffff;fill-opacity:1;fill-rule:nonzero;stroke:none;stroke-width:0.35277775"
         d="m 915.32321,24.613819 h -1.16734 v -6.283325 h 1.16734 z m -1.31163,-8.020755 c 0,-0.393347 0.32773,-0.721431 0.72143,-0.721431 0.39335,0 0.72108,0.328084 0.72108,0.721431 0,0.393347 -0.32773,0.72143 -0.72108,0.72143 -0.3937,0 -0.72143,-0.328083 -0.72143,-0.72143" />
      <g
         transform="matrix(0.35277777,0,0,-0.35277777,921.87778,21.465841)"
         id="g154">
        <path
           inkscape:connector-curvature="0"
           id="path156"
           style="fill:#ffffff;fill-opacity:1;fill-rule:nonzero;stroke:none"
           d="m 0,0 c 0,3.495 -2.417,6.246 -5.763,6.246 -3.346,0 -5.8,-2.751 -5.8,-6.246 0,-3.458 2.454,-6.283 5.8,-6.283 C -2.417,-6.283 0,-3.458 0,0 m 0,-6.135 c -1.376,-1.97 -3.532,-3.234 -6.246,-3.234 -4.834,0 -8.626,3.977 -8.626,9.369 0,5.28 3.643,9.333 8.626,9.333 2.714,0 4.87,-1.19 6.246,-3.123 V 8.887 H 3.309 V -8.924 H 0 Z" />
      </g>
      <g
         transform="matrix(0.35277777,0,0,-0.35277777,905.01131,19.170388)"
         id="g158">
        <path
           inkscape:connector-curvature="0"
           id="path160"
           style="fill:#ffffff;fill-opacity:1;fill-rule:nonzero;stroke:none"
           d="M 0,0 C 2.759,0 4.788,-1.822 5.335,-5.066 H -5.408 C -4.896,-2.145 -2.866,0 0,0 m -0.037,2.826 c -5.057,0 -8.812,-4.165 -8.812,-9.333 0,-5.168 3.904,-9.369 9.332,-9.369 2.864,0 5.589,1.328 7.287,3.631 l -2.405,1.7 c -1.479,-1.644 -2.762,-2.394 -4.77,-2.394 -3.339,0 -5.661,2.32 -6.079,5.456 H 8.524 c 0,0 0.108,0.791 0.108,1.311 0,5.02 -3.687,8.998 -8.669,8.998" />
      </g>
      <g
         id="g162"
         transform="matrix(0.35277777,0,0,-0.35277777,584.50374,113.28521)">
        <g
           id="g164" />
        <g
           id="g200">
          <g
             style="opacity:0.55000299"
             id="g198"
             clip-path="url(#clipPath168)">
            <g
               id="g172"
               transform="translate(793.7822,272.3193)">
              <path
                 inkscape:connector-curvature="0"
                 id="path170"
                 style="fill:#ffffff;fill-opacity:1;fill-rule:nonzero;stroke:none"
                 d="m 0,0 -7.621,-4.4 v -8.8 L 0,-17.6 l 7.621,4.4 v 8.8 z" />
            </g>
            <g
               id="g176"
               transform="translate(809.0244,272.3193)">
              <path
                 inkscape:connector-curvature="0"
                 id="path174"
                 style="fill:#ffffff;fill-opacity:1;fill-rule:nonzero;stroke:none"
                 d="M 0,0 V 8.8 L -7.621,4.4 Z" />
            </g>
            <g
               id="g180"
               transform="translate(778.54,263.5195)">
              <path
                 inkscape:connector-curvature="0"
                 id="path178"
                 style="fill:#ffffff;fill-opacity:1;fill-rule:nonzero;stroke:none"
                 d="M 0,0 V 8.8 L -7.621,4.399 Z" />
            </g>
            <g
               id="g184"
               transform="translate(801.4033,241.5195)">
              <path
                 inkscape:connector-curvature="0"
                 id="path182"
                 style="fill:#ffffff;fill-opacity:1;fill-rule:nonzero;stroke:none"
                 d="M 0,0 V 8.8 L -7.621,4.399 Z" />
            </g>
            <g
               id="g188"
               transform="translate(778.54,281.1191)">
              <path
                 inkscape:connector-curvature="0"
                 id="path186"
                 style="fill:#ffffff;fill-opacity:1;fill-rule:nonzero;stroke:none"
                 d="m 0,0 v -8.8 l 7.621,4.401 z" />
            </g>
            <g
               id="g192"
               transform="translate(809.0244,272.3193)">
              <path
                 inkscape:connector-curvature="0"
                 id="path190"
                 style="fill:#ffffff;fill-opacity:1;fill-rule:nonzero;stroke:none"
                 d="m 0,0 v -8.8 l 7.621,4.4 z" />
            </g>
            <g
               id="g196"
               transform="translate(786.1611,250.3193)">
              <path
                 inkscape:connector-curvature="0"
                 id="path194"
                 style="fill:#ffffff;fill-opacity:1;fill-rule:nonzero;stroke:none"
                 d="m 0,0 v -8.8 l 7.621,4.4 z" />
            </g>
          </g>
        </g>
      </g>
      <g
         transform="matrix(0.35277777,0,0,-0.35277777,861.84391,12.560284)"
         id="g202">
        <path
           inkscape:connector-curvature="0"
           id="path204"
           style="fill:#ffffff;fill-opacity:1;fill-rule:nonzero;stroke:none"
           d="M 0,0 -7.621,-4.4 0,-8.8 7.621,-4.4 Z" />
      </g>
      <g
         transform="matrix(0.35277777,0,0,-0.35277777,869.90957,14.112647)"
         id="g206">
        <path
           inkscape:connector-curvature="0"
           id="path208"
           style="fill:#ffffff;fill-opacity:1;fill-rule:nonzero;stroke:none"
           d="M 0,0 -7.621,4.4 -15.242,0 -7.621,-4.399 Z" />
      </g>
      <g
         transform="matrix(0.35277777,0,0,-0.35277777,867.22101,18.769385)"
         id="g210">
        <path
           inkscape:connector-curvature="0"
           id="path212"
           style="fill:#ffffff;fill-opacity:1;fill-rule:nonzero;stroke:none"
           d="m 0,0 v 0 -8.8 l 7.621,4.401 V 4.4 L 0,8.801 -7.621,4.4 Z" />
      </g>
      <g
         transform="matrix(0.35277777,0,0,-0.35277777,861.84391,18.769385)"
         id="g214">
        <path
           inkscape:connector-curvature="0"
           id="path216"
           style="fill:#ffffff;fill-opacity:1;fill-rule:nonzero;stroke:none"
           d="M 0,0 7.621,4.4 0,8.801 -7.621,4.4 V -4.399 L 0,-8.8 Z" />
      </g>
      <g
         transform="matrix(0.35277777,0,0,-0.35277777,867.22101,28.082504)"
         id="g218">
        <path
           inkscape:connector-curvature="0"
           id="path220"
           style="fill:#ffffff;fill-opacity:1;fill-rule:nonzero;stroke:none"
           d="M 0,0 7.621,4.399 V 13.2 L 0,8.8 Z" />
      </g>
      <g
         transform="matrix(0.35277777,0,0,-0.35277777,869.90957,20.321397)"
         id="g222">
        <path
           inkscape:connector-curvature="0"
           id="path224"
           style="fill:#ffffff;fill-opacity:1;fill-rule:nonzero;stroke:none"
           d="m 0,0 v -8.8 l 7.621,4.4 v 8.799 z" />
      </g>
      <g
         transform="matrix(0.35277777,0,0,-0.35277777,859.15534,26.530494)"
         id="g226">
        <path
           inkscape:connector-curvature="0"
           id="path228"
           style="fill:#ffffff;fill-opacity:1;fill-rule:nonzero;stroke:none"
           d="M 0,0 7.621,-4.399 V 4.4 L 0,8.801 Z" />
      </g>
      <g
         transform="matrix(0.35277777,0,0,-0.35277777,856.46678,18.769385)"
         id="g230">
        <path
           inkscape:connector-curvature="0"
           id="path232"
           style="fill:#ffffff;fill-opacity:1;fill-rule:nonzero;stroke:none"
           d="m 0,0 v -8.8 l 7.621,-4.399 v 8.8 z" />
      </g>
      <g
         transform="matrix(0.35277777,0,0,-0.35277777,864.53244,23.425769)"
         id="g234">
        <path
           inkscape:connector-curvature="0"
           id="path236"
           style="fill:#ffffff;fill-opacity:1;fill-rule:nonzero;stroke:none"
           d="M 0,0 -7.621,4.399 V -4.4 L 0,-8.801 7.621,-4.4 v 8.799 z" />
      </g>
    </g>
  </g>
</svg>
