<?xml version="1.0" encoding="utf-8"?>
<!-- Generator: Adobe Illustrator 19.1.0, SVG Export Plug-In . SVG Version: 6.00 Build 0)  -->
<svg version="1.1" id="레이어_1" xmlns="http://www.w3.org/2000/svg" xmlns:xlink="http://www.w3.org/1999/xlink" x="0px"
	 y="0px" viewBox="-286 184.9 157 147" style="enable-background:new -286 184.9 157 147;" xml:space="preserve">
<style type="text/css">
	.st0{fill:#E63E9A;}
	.st1{fill:#E7EBC2;}
	.st2{fill:#231815;}
	.st3{fill:none;}
</style>
<g id="레이어_2">
	<path class="st0" d="M-255.3,238.6l-2.3-11.7l2.6-4.6l7.4-5.5l3.5,3.7l3.9,8.6l4.2,1.6l1.8,0.6l0.4-5.2l6.5,1.1l4,0.6l0.6-1.1
		l-2-1.7l-2.8-3.1l-1.6-2.7l-0.1-1.2v-0.5l6.2-9l3.6-2l7,6.4l4.6-7.7l4.9,0.8l10.2,4.5l-0.5,7.8l5.9-1.3l4.4,10.9l-0.8,3.9l7.3,6.7
		l5.5-5.4l6.7,12.1l6.8-4.9l5-2.9l4.8,7.8l4.1-1l0.1,11.6l-1.5,5.5l-10.4,3.5l2.3,6.8l-7.7,5.7l4.2,1.6l-5.1,14.8l-4.5-1.5l0.1,8
		l-11.2,1l0.2,11.7l-18.1,3l-1.7-10.4l-9.5,5.9l-4.8-5.4l-5.9,8.9l-16.9-3l-2.2,1.8l-11.3,5.4l-4.9-6.2l-3.1-8.9l-13.9,3.4l-2.3-7.9
		l-0.8-8.4l7.6-3.9l-5.2-4.5l-3.2-12.6l10.5-6.2l-1-2.3l3.7-1.7l-14-12.2c0,0-0.1-2.4,1.7-6.3c1.6-3.5,7.2-9.8,7.4-9.3
		C-264.7,233-255.3,238.6-255.3,238.6z"/>
</g>
<g id="레이어_5">
	<polygon class="st1" points="-251,284.5 -253.8,286.2 -255,287.9 -255.2,290.2 -254.2,291.9 -252.7,293.9 -251.2,294.4 
		-249.9,293.7 -250.5,290.5 -250.5,286.4 -250.2,285 	"/>
</g>
<g id="레이어_1_1_">
	<g>
		<path class="st1" d="M-195.2,246.5c-0.3-0.7-1.4-1.5-2.5-1.7c-0.4-0.1-1.5-0.2-2.1,0.4l-0.1,0.1c-0.5,0.3-1.8,1.4-1.9,2.5
			c0,0.4,0.1,0.7,0.3,1c1.7,2,3.9,2.3,4.2,2c0.1-0.1,0.2-0.2,0.3-0.3C-196.3,249.6-194.7,247.7-195.2,246.5z"/>
		<path class="st2" d="M-193.3,245.8c-0.5-1.4-2.1-2.6-4-3c-1.5-0.3-2.9,0-3.8,0.9c-0.5,0.3-2.4,1.9-2.7,3.8
			c-0.1,0.9,0.2,1.8,0.8,2.5c1.7,1.9,3.9,2.8,5.3,2.8c0,0,0,0,0.1,0c1,0,1.6-0.4,1.9-0.8l0.3-0.3
			C-194.4,250.5-192.4,248.1-193.3,245.8z M-197.3,250.8c-0.4,0.3-2.6-0.1-4.2-2c-0.3-0.3-0.4-0.6-0.3-1c0.1-1,1.4-2.2,1.9-2.5
			l0.1-0.1c0.6-0.6,1.7-0.5,2.1-0.4c1.2,0.2,2.2,1,2.5,1.7c0.5,1.2-1.1,3-1.8,3.9C-197.1,250.6-197.2,250.7-197.3,250.8z"/>
		<path class="st1" d="M-188.3,289.8c-0.1-0.9-0.5-1.5-1.1-1.8c-0.7-0.4-1.7-0.4-2.9,0c-0.6,0.2-1.1,0.8-1.2,1.6
			c-0.1,0.7-0.3,2.6,0.5,3.7c0.4,0.5,0.9,0.8,1.7,0.9c1,0.1,1.7,0,2.2-0.5C-188.2,292.8-188.1,291.1-188.3,289.8z"/>
		<path class="st2" d="M-186.3,289.5c-0.3-1.9-1.3-2.8-2-3.2c-1.2-0.7-2.9-0.8-4.6-0.1c-1.3,0.5-2.3,1.7-2.5,3.1
			c-0.2,1.2-0.3,3.6,0.9,5.2c0.7,1,1.7,1.5,3.1,1.7c0.3,0,0.6,0.1,0.9,0.1c1.5,0,2.5-0.6,3.1-1.2
			C-185.9,293.3-186.2,290.4-186.3,289.5z M-191.3,294.2c-0.8-0.1-1.4-0.4-1.7-0.9c-0.8-1.1-0.6-3-0.5-3.7c0.1-0.7,0.6-1.3,1.2-1.6
			c1.2-0.4,2.2-0.4,2.9,0c0.6,0.3,0.9,0.9,1.1,1.8c0.2,1.2,0.1,3-0.7,3.9C-189.5,294.2-190.3,294.4-191.3,294.2z"/>
		<path class="st1" d="M-222.7,288.3c-0.3-0.5-1.6-2-4.8-0.6c-0.4,0.3-1.8,2-1.6,3.5c0.2,1,1.1,1.8,3,2.2c0.1,0,1.5,0.4,2.4-0.4
			C-222.9,292.2-222.6,290.6-222.7,288.3z"/>
		<path class="st2" d="M-220.8,287.7l-0.1-0.2c0,0-2-4.1-7.5-1.8c-0.9,0.4-3,2.9-2.8,5.3c0.1,1.4,1,3.3,4.4,4.1c0,0,0.6,0.2,1.4,0.2
			c0.8,0,1.9-0.2,2.8-0.9c1.5-1.2,2.1-3.4,1.8-6.6L-220.8,287.7z M-226.3,293.3c-1.8-0.5-2.8-1.2-3-2.2c-0.2-1.5,1.2-3.2,1.6-3.5
			c3.3-1.4,4.5,0.1,4.8,0.6c0.2,2.3-0.2,3.9-1.1,4.7C-224.8,293.7-226.2,293.3-226.3,293.3z"/>
		<path class="st1" d="M-208.5,223.5c-2.2-1.6-5.4,0-5.9,0.3c-0.8,0.7-1.7,2-1.6,2.8c0.1,0.5,0.8,0.8,1.3,1c2.4,0.8,4.3,0.8,5.3-0.1
			C-208.4,226.6-208.3,224.9-208.5,223.5z"/>
		<path class="st2" d="M-206.6,222.5l-0.3-0.2c-3.4-3.1-8.4-0.2-8.6-0.1l-0.2,0.1c-0.3,0.2-2.7,2.5-2.3,4.7c0.2,0.8,0.7,1.8,2.6,2.5
			c1.4,0.5,2.6,0.7,3.7,0.7c1.4,0,2.6-0.4,3.5-1.1c1.5-1.2,2-3.3,1.5-6.1L-206.6,222.5z M-214.7,227.5c-0.5-0.2-1.2-0.5-1.3-1
			c-0.2-0.8,0.8-2.1,1.6-2.8c0.5-0.3,3.7-1.9,5.9-0.3c0.2,1.4,0.1,3.1-0.9,3.9C-210.4,228.3-212.3,228.3-214.7,227.5z"/>
		<path class="st1" d="M-240.5,252.9c-0.8,0.2-2.6,0.7-3.2,1.9c-0.4,0.8-0.3,2,0.4,3.4l0.1,0.3v0.2c0.2,0.2,1,0.6,1.8,0.5
			c1-0.1,1.7-0.7,2.1-1.9c0.4-1.2,0.9-2.8,0.6-3.4C-238.9,253.5-239.4,253.2-240.5,252.9z"/>
		<path class="st2" d="M-240.1,250.9l-0.2-0.1h-0.2c-0.1,0-3.6,0.5-4.9,3c-0.7,1.4-0.7,3.1,0.3,5c0.1,0.9,1,1.8,2.4,2.1
			c0.4,0.1,0.8,0.2,1.2,0.2c1.7,0,3.5-0.9,4.3-3.2c0.7-2.2,1.1-3.8,0.5-5C-237.5,251.8-238.5,251.3-240.1,250.9z M-239.2,257.2
			c-0.4,1.1-1.1,1.8-2.1,1.9c-0.9,0.1-1.6-0.3-1.8-0.5v-0.2l-0.1-0.3c-0.7-1.4-0.8-2.5-0.4-3.4c0.6-1.2,2.4-1.8,3.2-1.9
			c1.1,0.3,1.6,0.6,1.8,0.9C-238.4,254.4-238.8,256.1-239.2,257.2z"/>
	</g>
</g>
<g id="레이어_4">
	<g>
		<path class="st3" d="M-212.2,271.5c0,0,0.1,0,0.2,0c1.7,0.3,3.4,0.8,5.3,1.6l0.6,0.2c1.5,0.5,3,1.1,4.4,2c0.5,0.3,1.1,0.6,1.7,0.8
			c0.1,0,0.2,0.1,0.2,0.1c0-0.1,0-0.1,0-0.3v-1.3c0.1-1.7,0.1-3.6,0.4-5.3v-0.1c-1.2-0.2-2.3-0.7-3.3-1.1c-0.8-0.3-1.5-0.6-2.2-0.9
			c-0.6-0.2-1.1-0.4-1.7-0.5c-1.3-0.4-2.6-0.9-4-1.1c-0.3-0.1-0.6,0-0.8,0.1c-0.6,0.2-1,0.1-1.2,0c-0.2-0.1-0.6-0.5-0.6-1.2
			c-0.3-3.2,0.2-6.1,1.4-8.7c0.2-0.3,0.1-0.5,0.1-0.6c0,0-0.2-0.1-0.4,0c-2,0.3-3.9,0-5.7-0.3c-1.1-0.2-2.2-0.4-3.3-0.4
			c-0.4,0-0.8-0.2-1-0.5c-0.2-0.2-0.3-0.6-0.3-0.9c0.1-0.7,0.1-1.4,0.2-2.1c0.1-1.1,0.2-2.2,0.3-3.4c-0.4,0.7-1,0.6-1.4,0.4
			c-1.1-0.5-1.5-0.4-2.2,0.5l-0.5,0.4c-1.6,2.1-3.3,4.3-4.4,6.7c-0.5,1-0.4,1.9,0.2,2.5c1.4,1.7,2.9,3.4,4.9,4.8
			c2.9,2.1,4.7,4.7,5.5,7.9c0.1,0.4,0.2,0.9,0.4,1.3c0.4,1.2,0.7,2.4,0.5,3.8v0.1c0.2-0.1,0.4-0.3,0.6-0.4c0.1,0,0.2-0.1,0.3-0.1
			c0.4-0.2,0.9-0.4,1.5-0.3c0.1,0,0.3,0.1,0.4-0.3c0.3-0.8,0.7-1.6,1-2.3c0.2-0.4,0.5-0.9,0.7-1.4c0.2-0.4,0.5-0.7,0.9-1
			c0.4-0.2,0.8-0.2,1.2,0C-212.2,270.3-211.8,270.7-212.2,271.5C-212.2,271.4-212.2,271.5-212.2,271.5z"/>
		<path class="st3" d="M-259.1,258.1c0,0.1,0,0.2,0,0.2s0.1,0,0.3-0.1c0.7-0.1,1.2-0.5,1.8-0.9c0.3-0.2,0.6-0.4,0.9-0.6
			c-0.1-0.1-0.2-0.1-0.3-0.3c-1-1-2.1-1.9-3.2-2.8c-1-0.8-2-1.6-2.9-2.5c-1.3-1.3-1.7-2.8-0.9-4.3c0.9-1.7,2-3,3.3-4.6l0.1-0.1
			c0.8-0.9,1.5-1.7,1.8-2.7c0.1-0.4,0.1-0.5,0-0.6l-0.1-0.2c-1.6-1.7-3.1-3.3-5.2-4.1c-0.2-0.1-0.4-0.2-0.6-0.3
			c-0.4-0.2-0.7-0.3-1.1-0.3l0,0l0,0l0,0c-0.6,0-0.9,0.2-1,0.3c-0.3,0.5-0.7,0.9-1.1,1.3c-0.4,0.3-0.7,0.7-1,1.1
			c-0.4,0.6-0.8,1.2-1.2,1.8c-0.3,0.4-0.5,0.7-0.8,1.1c-1.4,2.1-2.5,4.4-3.4,7.1c-0.1,0.4-0.1,0.5,0,0.6c0.9,0.6,1.7,1.4,2.4,2.2
			c0.7,0.7,1.4,1.4,2.1,1.9l0.6,0.4c1,0.7,2.1,1.5,3,2.5c1.6,1.8,3.3,2.7,5.2,2.9C-259.6,257.1-259.2,257.5-259.1,258.1z"/>
		<path class="st3" d="M-259.8,245c-0.7,0.8-1.3,1.6-1.7,2.5c-0.3,0.9-0.2,1.5,0.6,2.3c1.5,1.5,3.3,2.9,4.9,4.2
			c0.5,0.4,1.1,0.9,1.6,1.3c1,0.8,2.2,1.6,3.7,1.8c0.6,0.1,1.1,0.5,1.2,1.1c0.1,0.6-0.3,1-0.4,1.1c-0.5,0.4-1,0.2-1.2,0.1
			c0,0-0.1,0-0.1-0.1c-0.4-0.2-0.7-0.3-1.1-0.4c-0.5-0.2-1-0.3-1.5-0.6c-0.1-0.1-0.4,0.1-0.6,0.2c-0.2,0.1-0.5,0.2-0.7,0.3
			c-1.5,0.4-3,1-4.4,1.5l-0.4,0.1c-0.3,0.1-0.6,0.3-0.9,0.5c-0.1,0.1-0.3,0.2-0.4,0.3c-0.1,0.1-0.1,0.1-0.1,0.2
			c0.1,0.4,0.2,0.8,0.3,1.2c0.1,0.4,0.2,0.8,0.3,1.2c0.2,0.5,0.2,1,0.3,1.5s0.2,1.1,0.4,1.6c0.4,1,0.8,1.9,1.3,2.8
			c0.3,0.7,0.7,1.3,1,2c0,0,0.1,0.2,0.4,0.2c0.4,0,0.8,0.1,1.2,0.1c2.4,0.2,4.7,0.4,6.9-0.5c0.5-0.2,1.1-0.4,1.7-0.5
			c0.3-0.1,0.6-0.2,0.9-0.2c0.5-0.1,0.9-0.1,1.2,0.1c0.2,0.1,0.4,0.4,0.5,0.8c0.1,0.3,0,0.7-0.3,0.9c-0.2,0.3-0.6,0.4-1.1,0.5
			c-0.2,0-0.4,0-0.5,0.5c-0.4,1.1-0.5,2.1-0.3,3c0,0.4,0,0.7-0.1,0.9l0,0c0.6-0.1,1.2-0.3,1.9-0.5c0.7-0.2,1.6-0.5,2.7-0.2
			c0.3,0.1,0.7,0.2,1,0.2h0.1c1.7,0,3.2,0.5,4.7,1c0.6,0.2,1.3,0.4,1.9,0.6c-0.3-1.2-0.9-2.2-1.5-3.3c-0.3-0.5-0.6-1.1-0.8-1.6
			c-0.4-0.9-0.8-1.8-1.1-2.7c-0.1-0.4-0.3-0.7-0.4-1.1c-0.3-0.8,0.1-1.5,0.4-1.9l0.1-0.1c0.1-0.2,0.3-0.3,0.4-0.4l0.1-0.1
			c0.3-1.7,1.7-1.9,2.8-2.1c0.3-0.1,0.6-0.1,0.9-0.2c0.8-0.3,1.6-0.6,2.4-0.9c0.6-0.3,1.3-0.6,2-0.8c0.1,0,0.1-0.1,0.2-0.1
			c0.1,0,0.2-0.1,0.3-0.1c-0.4-0.4-0.7-0.9-0.9-1.2c-0.1-0.2-0.3-0.4-0.4-0.6c-0.4-0.6-0.9-1.1-1.3-1.7c-0.7-0.8-1.4-1.7-2-2.7
			c-0.2-0.3-0.3-0.6-0.3-0.9c-0.1-0.5,0.3-1,0.8-1.2s1,0,1.2,0.4c0.1-0.2,0.1-0.3,0.2-0.5c1.4-2.4,3.1-5.2,5.2-7.7
			c0.5-0.5,1-1,1.5-1.4l0.4-0.3c0.6-0.5,1.2-0.4,1.8,0.1c0.1,0.1,0.1,0.1,0.2,0.2c0.2,0.2,0.4,0.4,0.6,0.4c0.3,0.1,0.4,0.3,0.5,0.4
			c0.1-0.8,0.2-1.7,0.3-2.5c0.2-1.4,0.4-3,1.2-4.5c0.1-0.2,0.1-0.3,0-0.5c-0.2-0.5-0.1-1,0.2-1.5c0.3-0.4,0.9-0.7,1.4-0.6l0.4,0.1
			c1.5,0.2,3,0.5,4.5,1.3c1.4,0.8,2.8,1.5,4,2.8l0,0c-0.6-1.1-0.3-2.1-0.1-3c0-0.2,0.1-0.3,0.1-0.5c0.1-0.5,0.2-1,0.3-1.5
			c0.2-1.1,0.4-2.3,0.9-3.4v-0.1c0.1-0.2,0.2-0.6,0.7-0.8l0.6-0.3c1.2-0.6,2.4-1.2,3.8-1.4c1.1-0.1,2.2,0,3.1,0.3c1,0.4,2,0.5,3,0.5
			c0.7,0,1.4,0.2,2,0.4c0.2,0.1,0.5,0.1,0.7,0.2h0.1c0.1,0,0.1,0,0.2,0c2.4,0.6,2.7,1,2.6,3.5c0,0.2,0,0.4,0,0.5
			c0.2-0.3,0.4-0.6,0.6-0.9c0.8-1.2,1.7-2.5,3-3.5c0,0,0.1,0,0.1-0.1c-0.1-0.7,0.1-1.1,0.4-1.3c0.3-0.3,0.8-0.3,1.4-0.1
			c0.2,0.1,0.5,0.2,0.7,0.3c0.3,0.1,0.6,0.2,0.9,0.3c0.1,0,0.2,0.1,0.2,0.1c0.5,0.2,0.5,0.1,0.6,0c0.1-0.2,0.2-0.3,0.4-0.5
			c0.5-0.6,0.7-0.9,0.4-1.4c-0.3-0.7-0.7-1.5-1-2.3c-0.3-0.6-0.5-1.3-0.8-1.9c-0.2-0.5-0.4-0.9-0.5-1.4c-0.3-0.7-0.5-1.4-0.9-2.1
			c-0.1-0.2-0.2-0.4-0.4-0.5c-0.5-0.7-1-1.5-1.2-2.4c-0.2,0.1-0.5,0.2-0.7,0.3c-1.8,0.8-3.4,1.5-3.7,3.6c0,0.3-0.2,0.6-0.3,0.8
			c-0.2,0.4-0.6,0.6-1,0.5c-0.6-0.2-1-1.8-1-1.8c-0.1-0.3-0.1-0.7,0.1-0.9c1.2-1.1,1.3-2.5,1.4-4c0-0.5,0.1-0.9,0.1-1.4
			c0.1-0.7,0-1.4,0-2.2v-0.5c0-0.4-0.2-0.7-0.6-1c-1.5-1.1-2.8-1.9-4.1-2.5c-0.8-0.4-1.9-0.8-2.9-1c-0.7-0.1-1.4-0.5-2.1-0.8
			c-0.2-0.1-0.4-0.2-0.6-0.3c-0.8-0.3-1.7-0.4-2.5-0.5c-0.1,0-0.3,0.1-0.5,0c-1.3-0.6-1.7,0-2.3,1.5c-0.9,1.8-1.7,3.7-2.1,5.7
			c-0.1,0.6,0,1,0.4,1.4c0.6,0.6,1.1,1.3,1.5,2.1c0.1,0.2,0.4,0.8,0,1.3c-0.3,0.3-0.7,0.5-1.2,0.4c-0.7-0.2-0.7-0.9-0.7-1.1v-0.1
			c0-0.4-0.2-0.7-0.5-1c-0.1-0.1-0.1-0.1-0.2-0.2c0,0,0,0.1,0,0.2c0.1,0.3,0.2,0.8-0.1,1.1c-0.1,0.1-0.3,0.3-0.7,0.3
			c-0.3,0-0.6-0.2-0.7-0.4c-0.2-0.4-0.2-0.8-0.1-1.1c0.5-1.2,0-2-1-3.2c-1.5-1.9-3.4-3.4-5.2-4.7c-0.1,0-0.1-0.1-0.2-0.1
			c-1.2,0.8-2.4,1.5-3.3,2.5c-1.5,1.6-3.3,3.6-4.9,5.8c-0.2,0.3-0.4,0.6-0.6,0.9c-0.2,0.3-0.3,0.5-0.5,0.8l0,0c0,0-0.1,0.1,0,1.1
			c0.1,1.1,2.3,3.8,2.4,3.8c0.1,0.1,0.2,0.2,0.3,0.3c0.6,0.6,1.2,1.2,1.7,2c0.3,0.4,0.6,0.6,1.1,1c0.1,0,0.1,0,0.2,0.1
			c0.2,0.1,0.6,0.2,0.7,0.5c0.1,0.2,0.1,0.5,0,0.7c-0.3,0.7-1,1.1-1.8,0.9c-0.3-0.1-0.5-0.1-0.8-0.2c-0.7-0.2-1.4-0.3-2.1-0.4
			c-1.9-0.2-3.5-0.2-4.9,0c-0.4,0-0.5,0.1-0.5,0.7c0,1.1,0.3,1.6,1.5,2c0.4,0.2,0.9,0.3,1.3,0.4c0.8,0.2,1.6,0.4,2.3,0.8
			c0.6,0.3,0.9,0.7,1,1.4c0.3,1.6,0.3,3.4,0,5.7c-0.1,0.8-0.1,1.7-0.1,2.5c0,1.2,0,2.5-0.3,3.7c-0.2,0.9-0.5,1.7-0.8,2.5l-0.5,0.2
			c-0.1,0.4-0.4,0.7-0.6,0.8c-0.2,0.1-0.4,0.1-0.8,0c-0.3-0.1-0.5-0.3-0.5-0.5c-0.2-0.4,0-0.8,0.1-1.1c0.7-1.6,1-3.4,1.1-5.2
			c0-0.9,0.1-1.8,0.2-2.7c0.1-1.3,0.2-2.5,0.2-3.8c0-0.1,0-0.1,0-0.2c0-1.5-0.4-2-2.1-2.3c-1.8-0.4-3.6-1-4.9-1.5
			c-1.6-0.6-3.2-0.7-5.1-0.3c-0.2,0-0.4,0.1-0.5,0.7c-0.2,1.3-0.2,2.7,0,4c0.1,1.2,0.2,2.4,0.2,3.6c0,1.3,0,2.6,0.2,3.9
			c0,0.3,0.2,0.7,0.3,1c0.2,0.5,0.4,1,0.4,1.6v0.2c0,0.3,0,0.6-0.1,0.9c-0.1,0.3-0.3,0.8-0.9,0.7c-0.4,0-0.6-0.3-0.8-0.5
			c-0.6-0.7-1.2-1.5-1.8-2.2c-1-1.2-1.9-2.4-2.9-3.6c-1.3-1.7-2.7-3.2-4.1-4.6c-0.2-0.2-0.4-0.4-0.7-0.5l-0.1-0.1
			c-1-0.7-1.5-0.7-2.3,0.2c-1.4,1.5-2.7,3.3-3.9,5.3c-0.6,1-1.3,1.8-2.1,2.7L-259.8,245z"/>
		<path class="st3" d="M-255,232.9c0.1,0.4,0.3,0.8,0.4,1.2c0.1,0.2,0.1,0.3,0.2,0.4c0.1,0,0.2-0.1,0.3-0.3c0.4-0.4,0.9-0.5,1.5-0.5
			c0.7,0,1.5,0.2,2.1,0.6c1.9,1.2,3.3,2.8,4.6,4.5l0.3,0.4c1.1,1.4,2.2,2.8,3.4,4.1c-0.2-1.5-0.3-3.1-0.3-4.6c0-1.3-0.1-2.7-0.3-4
			c-0.2-1.1,0-2.2,0.1-3.3c0-0.3,0.1-0.5,0.1-0.8c0.1-0.7,0.5-1.2,1.2-1.4c0.1,0,0.2,0,0.2-0.1c-0.2-0.3-0.2-0.7-0.2-0.8
			c0-2.3-1.1-4.1-2.3-6.1c-0.3-0.5-0.6-1-0.9-1.5c-0.2-0.4-0.5-0.7-0.8-1.1c-0.3-0.4-0.6-0.8-0.9-1.2c0-0.1-0.2-0.1-0.3-0.1
			c-0.1,0-0.1,0-0.2,0c-0.2,0-0.7,0-1-0.4l0,0l-0.8,0.6c-2.5,1.8-5.1,3.6-6.8,6.3c-1.1,1.8-1.3,3.9-0.4,6.2
			C-255.5,231.6-255.3,232.3-255,232.9z"/>
		<path class="st3" d="M-185.2,232.1c-0.6-0.2-1-0.4-1.3-0.1c-1.7,1.3-3,2.7-3.9,4.3c-0.4,0.7-0.8,1.4-0.7,2.1
			c0.1,0.8-0.2,1.2-0.5,1.6c-0.2,0.2-0.6,0.8-1.4,0.5c-0.5-0.2-0.7-0.6-0.6-1.3c0.2-1.4-0.1-2.8-0.3-4.2c-0.1-0.5-0.2-0.9-0.3-1.4
			c0-0.2-0.1-0.3-0.2-0.4c-0.6-0.1-1.1-0.3-1.6-0.5c-0.5-0.2-0.9-0.4-1.4-0.4c-1.1-0.1-2.6-0.3-4.1-0.7c-2.1-0.6-4.4,0.6-5.6,2.1
			c-0.4,0.5-0.5,1.2-0.7,2l-0.1,0.4c-0.4,1.8-0.7,4-0.2,6.2c0.2,0.9-0.1,1.4-0.8,1.6c-1.1,0.3-1.6-0.4-1.7-0.8
			c-0.5-1.3-1.6-2-2.6-2.7c-1.5-0.9-2.8-1.7-4.3-1.6c-0.5,0-0.5,0.1-0.6,0.3c-0.4,0.8-0.7,1.7-0.9,2.5c-0.5,1.6-0.6,3.3-0.7,5.1
			c-0.1,1.5-0.2,3-0.4,4.4c-0.1,0.8,0.3,1,0.7,1c0.5,0.1,1,0.2,1.6,0.2c0.8,0.1,1.5,0.2,2.3,0.4c1,0.2,2,0.1,3,0.1
			c0.8-0.1,1.7-0.1,2.5,0c0,0,0,0,0.1,0s0.2-0.1,0.4-0.1c0.2,0,0.4,0.1,0.6,0.3c0.3,0.3,0.5,0.7,0.1,1.5c-0.1,0.2-0.3,0.4-0.4,0.7
			c-0.1,0.2-0.3,0.4-0.4,0.6c-1.2,2.1-1.4,4.5-1.4,6.7c0,0.4,0.1,0.5,0.4,0.5c0.6,0.1,1.2,0.4,1.8,0.5c0.4,0.1,0.7,0.2,1.1,0.4
			c0.5,0.2,1.1,0.3,1.6,0.5c2.1,0.6,4.2,1.2,6.3,2.1c0.2,0.1,0.9,0.4,1,0.4c0.1-0.1,0.2-0.7,0.3-1.1l0.1-0.4
			c0.2-0.8,0.3-1.7,0.3-2.5c-0.1-1.1,0.4-1.9,1.5-2.4h0.1c0.1,0,0.1,0,0.2-0.1c0.2-0.1,0.5-0.2,1.2-0.3c2-0.2,2.9-1,3.1-2.9
			c0.1-0.8,0.5-1.4,1.1-1.6c0.6-0.3,1.4-0.1,2.2,0.4c0.2,0.2,0.5,0.3,0.7,0.5c0.6,0.5,1.2,0.9,1.9,1.2c0.5,0.2,0.7,0.6,0.7,0.8
			c0,0.1,0,0.1,0,0.1s0.1,0,0.4,0c0.4,0,0.8,0,1.2,0c1,0,2-0.1,3.1,0.1c0,0,0.1,0,0.2-0.2c1.4-1.8,2.3-4,3.1-6.1
			c0.1-0.3,0-0.3,0-0.4c-0.3-0.3-0.6-0.7-0.9-1.1c-0.8-1-1.6-2-2.8-2.4c-0.6-0.2-0.7-0.5-0.8-0.8c0,0,0,0,0-0.1c0,0,0,0-0.1,0
			c-0.1,0-0.2,0.1-0.2,0.1l-0.1,0.1c-0.2,0.1-0.5,0.4-0.8,0.3c-0.3,0-0.5-0.2-0.6-0.5c-0.2-0.4-0.2-0.7-0.1-0.9
			c0.1-0.4,0.5-0.6,0.8-0.8c0.3-0.1,0.6-0.3,0.9-0.4c1.5-0.7,3.1-1.5,4.8-1.8c1-0.2,1.8-0.7,2.6-1.3c0.2-0.2,0.3-0.3,0.2-0.5
			c-0.4-1.3-1.1-2.3-1.8-3.5c-0.6-1-1.4-1.7-2.2-2.5c-0.3-0.3-0.7-0.6-1-1c-1.6-1.6-3.2-2.6-4.8-3.1
			C-184.8,232.2-185,232.2-185.2,232.1z"/>
		<path class="st3" d="M-190.3,257.9c-0.2,0.4-0.3,0.8-0.4,1.2v0.2c0.7-0.1,1.5-0.2,2.2-0.3c-0.3-0.2-0.7-0.4-1-0.6
			C-189.8,258.2-190,258.1-190.3,257.9z"/>
		<path class="st3" d="M-155.5,265.2c-1.1-2-2.1-4-3.2-6l-0.1-0.2c-0.1-0.3-0.3-0.4-0.5-0.5c-0.2-0.1-0.4,0-0.6,0.1
			c-0.8,0.4-1.6,0.7-2.4,1c-0.5,0.2-1,0.4-1.5,0.6c-1.8,0.8-3.1,1.5-3.6,3.1c-0.1,0.4-0.4,0.5-0.5,0.6c-0.3,0.1-0.6,0.1-0.9-0.1
			c-0.3-0.1-0.4-0.4-0.5-0.5c-0.1-0.3,0-0.7,0.1-0.9c0.5-0.9,1-1.9,2.1-2.6c0.2-0.1,0.2-0.2,0.2-0.4c-0.4-1.5-0.8-2.8-1.1-4.1
			c-0.1-0.2-0.1-0.3-0.1-0.3s-0.1,0-0.4,0.1c-0.6,0.2-1.2,0.5-1.7,0.8l-0.5,0.2c-0.7,0.3-1.3,0.1-1.6-0.4c-0.2-0.3-0.1-0.6-0.1-0.7
			c0.1-0.4,0.5-0.6,0.8-0.7l0.5-0.2c0.5-0.2,1-0.4,1.5-0.6c1.9-0.6,3.4-1.8,4.7-2.9c0.4-0.3,1.2-1.2,0.9-2.3c-0.1-0.7-0.4-1.3-0.6-2
			l-0.3-0.9c-0.7-1.9-1.4-3.9-2.5-5.7c-0.3-0.6-0.6-1.2-0.9-1.8c-0.5-1.1-1-2.2-1.8-3.1c-0.1-0.1-0.1-0.1-0.1-0.1s0,0-0.2,0
			c-1.2,0.4-2.1,1.1-3.2,2.1c-0.8,0.7-0.9,1.2-0.3,2.2c0.3,0.5,0.6,1.1,0.9,1.6c0.2,0.4,0.4,0.7,0.6,1.1c0.4,0.8,0.3,1.5-0.4,2
			c-1.6,1.2-3.3,1.8-4.8,2.3l-0.4,0.1c-0.7,0.2-1.3,0.4-1.9,0.7c1.1,0.5,2,1.3,2.7,2.2c0.5,0.6,1.1,1.3,1.9,1.7
			c0.3,0.1,0.5,0.3,0.5,0.6c0.1,0.2,0,0.5-0.1,0.8c-0.2,0.3-0.3,0.6-0.4,1c-0.1,0.3-0.2,0.7-0.4,1.1c-0.4,0.7-0.8,1.3-1.2,2
			c-0.3,0.5-0.6,0.9-0.8,1.4c-0.1,0.3-0.3,0.5-0.5,0.8c-0.4,0.5-0.7,1.1-0.8,1.6c-0.1,1.4,0,2.9,0,4.2c0,0.3,0.1,0.4,0.4,0.4
			c2.2,0.3,3.8,1.6,5.4,2.9c0.5,0.4,1,0.8,1.4,1.1c1.7,1.2,3,2.9,4.3,4.6c0.1,0.2,0.5,0.7,0.2,1.2c-0.2,0.3-0.3,0.6-0.4,1
			c-0.1,0.4-0.2,0.8-0.4,1.2c-1.5,2.5-3.2,4.8-4.9,7.1c-0.1,0.2-0.3,0.4-0.4,0.6c1.3-0.4,2.6-0.6,4-0.7c0.3,0,0.6-0.1,0.9-0.1
			c0.8-0.1,1.6-0.1,2.4-0.4c0.3-0.1,0.6-0.1,0.8-0.1c0.5,0,0.8,0.2,1,0.3c0.5,0.4,0.8,1.1,0.7,2c0,0.3,0,0.6,0,0.9
			c0.2,1.5,0.1,2.9-0.2,4.4c-0.2,0.6-0.3,1.4,0.1,1.8c0.1,0.1,0.6,0.2,1.2,0.1c0.7-0.2,1.1-0.5,1.2-0.7c0.2-0.7,0.5-1.4,0.8-2.1
			c0.1-0.3,0.3-0.7,0.4-1c0.9-2.3,1.5-4.8,2-7.5c0.2-1.1,0.2-1.7-0.4-2.3c-0.5-0.5-4-2.5-4.9-3l-0.2-0.1c-0.4-0.2-0.9-0.4-1.2-1
			c-0.1-0.3-0.4-0.8,0.1-1.3c0.4-0.3,0.9-0.3,1.3,0c0.6,0.5,1.3,0.7,2,1.1c0.5,0.2,1,0.4,1.5,0.7c0.2,0.1,0.3,0.1,0.6,0.1h0.1
			c0.5,0,0.9-0.3,1.4-0.6l0,0l2.8-2.7c0.2-0.2,0.5-0.5,0.7-0.7c0.5-0.4,0.7-0.9,0.5-1.7C-154.3,268-154.7,266.5-155.5,265.2z"/>
		<path class="st3" d="M-166.2,285.4c-0.1-0.1-0.2-0.1-0.4,0c-0.8,0.1-1.5,0.1-2.2,0.1c-0.8,0-1.5,0-2.2,0.1l-0.3,0.1
			c-1.3,0.2-2.5,0.5-3.6,1.1c-0.5,0.3-1,0.6-1.5,0.3c-0.5-0.2-0.6-0.9-0.6-1.4s0.1-1,0.4-1.3c1.2-1.4,2.4-3,3.8-5.1
			c0.3-0.4,0.6-0.8,0.9-1.2c0.8-1.1,1.5-2.1,2-3.2c0.2-0.5,0.2-0.9-0.2-1.3c-1.3-1.6-2.6-2.8-3.8-3.8l-0.3-0.2
			c-1.7-1.3-3.3-2.5-5.4-2.9h-0.2c-0.1,0-0.2-0.1-0.3,0l-0.4,0.3c-0.5,0.3-0.9,0.6-1.3,1c-1.4,1.4-2.3,3.1-3.2,4.8l-0.1,0.3
			c-1,1.9-2,3.8-2.5,6v0.2c-0.1,0.4-0.2,0.9-0.7,1.2c-0.4,0.2-0.9,0.1-1.1-0.3c-0.3-0.5-0.2-1-0.1-1.4v-0.2c0-0.1,0.1-0.2,0.1-0.3
			c0.2-0.8,0.5-1.4,0.9-2.1c0.2-0.5,0.5-1,0.6-1.5c1.1-3.2,2.8-6,4.9-8.3c1.1-1.2,2.2-2.8,1.8-4.7c-0.1-0.3-0.6-0.8-0.8-0.8
			c-0.7-0.1-1.6-0.1-2.5,0c-0.7,0-1.3,0.1-1.9,0c-1.6,0.1-2.9,0.2-4.2,0.4c-0.7,0.1-1.4,0.3-2.1,0.4c-0.8,0.2-1.6,0.4-2.4,0.5
			c-0.8,0.1-1,0.3-1.1,1c-0.1,0.5-0.1,1-0.2,1.4c-0.2,1.1-0.3,2.3-0.6,3.4c-0.3,1.4-0.3,3-0.4,4.4c0,1,0,2-0.1,3
			c0,0.3,0.1,0.6,0.2,0.9l0.1,0.2c0.2,0.4,0.4,1-0.2,1.7c-0.7,0.7-1.7,0.7-2.3,0.4c-1.1-0.4-2.1-1-3.1-1.5l-0.7-0.4
			c-1.3-0.7-2.7-1.3-4.5-1.9c-0.6-0.2-1.3-0.4-1.9-0.5c-0.9-0.2-1.8-0.5-2.7-0.8c-0.6-0.2-0.6-0.2-0.8,0.2c-0.1,0.1-0.1,0.3-0.2,0.4
			s-0.1,0.2-0.2,0.4c-1.5,3.5-2.1,7-2.1,10.5c0,0.4,0,0.9,0,1.3c0,1.1-0.1,2.1,0.2,3.2c0.1,0.6,0.3,0.9,0.6,1.1
			c1.4,1,3.1,1.6,5.4,1.7c0.3,0,1,0.1,1.7,0.2c1.1,0.1,2.6,0.3,3.1,0.3c0.7-0.1,1.3,0.5,1.5,0.9c0.4,0.6-0.1,1.1-0.3,1.4
			c-0.5,0.6-1,0.7-1.7,0.3c-0.2-0.1-0.3-0.1-0.7,0.1c-1.9,0.7-3.8,1.7-5.6,2.7c-0.5,0.3-1,0.5-1.5,0.8c-0.3,0.2-0.5,0.4-0.3,0.9
			c0.3,1.2,0.8,2.3,1.6,3.5c0.3,0.5,0.7,0.9,1.1,1.4c0.2,0.3,0.5,0.6,0.7,0.9c1.3,1.7,2.5,3.2,3.6,4.5c0.2,0.2,0.3,0.3,0.6,0.1
			l0.2-0.1c0.9-0.6,1.8-1.3,2.8-1.7c2-1,3.7-2.3,5.3-3.7c0.3-0.3,0.7-0.6,1.2-0.6c0.1,0,0.3,0,0.5,0.1c0.8,0.3,0.9,1.2,0.9,1.7
			c0,0.2,0,0.4,0,0.6c0,0.1,0,0.2,0,0.3c-0.1,2.1-0.1,4.3,0.2,6.5c0.2,1.5,0.6,1.8,2.2,1.7c1.6-0.2,3.3-0.5,4.8-0.8
			c0.9-0.2,1.8-0.4,2.7-0.6c2.3-0.4,4.6-1.1,6.9-1.8l0.4-0.1c0.4-0.1,0.4-0.3,0.4-0.5c-0.1-1.5-0.7-6.8-1-7.7
			c-0.2-0.7-0.6-0.7-1.4-0.7c-0.2,0-0.4,0-0.6,0c-0.1,0-0.1,0-0.2,0c-0.3,0-0.6,0-0.9-0.3c-0.2-0.2-0.3-0.4-0.3-0.7
			c0-0.5,0.2-0.8,0.4-0.9c0.3-0.2,0.7-0.3,1.1-0.2c0.7,0.2,1.5,0.1,2.3,0.1c0.4,0,0.7,0,1.1,0h0.8c2,0.1,4,0.1,6-0.3
			c0.3-0.1,0.6-0.1,0.9-0.2c0.8-0.2,1.6-0.4,2.4-0.4c0.3,0,0.3,0,0.3,0s0-0.1,0-0.2c0-0.4,0-0.7,0-1c0-0.7,0-1.5,0.1-2.2
			c0.1-0.7,0-1.4,0-2.1c0-0.6-0.1-1.2,0-1.9c0-0.7,0.1-1.4,0.2-2.1c0.2-1.4,0.3-2.8,0.1-4.2C-166,285.7-166.1,285.5-166.2,285.4z"/>
		<path class="st3" d="M-235.9,299.2c-3.7,0-7.2-0.7-10.6-1.4c-0.6-0.1-1.2-0.2-1.7-0.1c-1.2,0.3-1.4-0.6-1.5-0.9
			c-0.3-1-0.6-1.2-0.6-1.2c-0.4,0.2-0.9,0.2-1.3,0c-1.6-0.6-3.8-3.2-4.3-4.4c-1.2-2.6,0.6-4.8,1.2-5.5c0.6-0.7,3.6-2.4,4.1-2.4
			c0,0,0-0.1,0-0.2c-0.1-0.8,0.1-1.6,0.3-2.3c0.1-0.3,0.1-0.6,0.2-0.9c0.2-1.1,0.8-1.7,1.5-2l-0.1-0.1c-0.3-0.3-0.3-0.6-0.3-0.9
			v-0.4c-0.1-0.9-0.2-1.9,0.2-2.8c-2,0.9-4,0.7-5.8,0.5c-0.9-0.1-1.8,0-2.9,0.2c-0.6,0.1-1.4,0-1.8-1s-0.8-1.9-1.2-2.8
			c-0.7-1.4-1.4-2.9-1.8-4.5c0-0.1,0-0.1,0-0.1s-0.1,0-0.2,0c-0.5,0.2-1,0.3-1.5,0.4c-1,0.3-2,0.5-2.8,1c-0.6,0.3-0.7,0.4-1.1,0.7
			c-0.3,0.3-0.7,0.6-1,0.9c-0.6,0.6-1.2,1.2-1.9,1.7c-0.5,0.4-0.5,1-0.4,1.4l0.1,0.5c0.5,2.6,1.1,5.2,1.9,7.7
			c0.5,1.4,1.3,2.5,2.4,3.8c0.1,0.1,0.3,0.2,0.4,0.2c0.5,0.2,0.9,1,1,1.5c0.3-0.1,0.5-0.1,0.8-0.2h0.2c0.4-0.1,0.7,0,1,0.1
			c0.2,0.2,0.4,0.4,0.4,0.7c0.1,0.8-0.5,1-0.8,1.1c-0.1,0-0.1,0-0.2,0.1c-3.3,1.3-5.8,2.5-7.9,4c-0.1,0.1-0.1,0.1-0.1,0.3
			c0.1,1.3,0.4,2.5,0.7,3.8l0.2,1c0.3,1.6,0.7,3.3,1.2,4.9c0.4,1.3,0.9,2.5,1.5,3.5c0.5,1,2,1,2.4,0.9c2-0.5,4.2-1.2,6.5-1.4
			c0.9-0.1,1.6-0.7,2.3-1.4c0.4-0.4,1.1-0.6,1.8-0.6c0.6,0,1.1,0.1,1.4,0.4c0.3,0.3,0.5,0.7,0.4,1.1c-0.3,1.1,0.1,2.2,0.5,3.3
			c0.1,0.3,0.2,0.5,0.3,0.8c0.9,2.7,2.5,5.4,4.9,8.5c0.5,0.6,0.6,0.5,0.8,0.3c0.5-0.4,1.1-0.2,1.4-0.1c0.1,0,0.2,0.1,0.3,0.1
			c1.2,0.1,2.1-0.1,2.7-0.5c1-0.7,2-1,3-1.4c0.9-0.3,1.7-0.6,2.4-1c0.3-0.2,0.7-0.4,1-0.5c0.3-0.2,0.7-0.3,1-0.5
			c-0.9-0.5-0.8-1.6-0.8-2c0.1-3.1,0.5-6.1,0.9-8.7c0.1-0.4,0.1-0.9,0.1-1.4c0-0.7,0.1-1.3,0.4-1.8
			C-235.2,299.1-235.5,299.2-235.9,299.2L-235.9,299.2z"/>
		<path class="st3" d="M-143.8,251.1L-143.8,251.1c0.1-1.9-0.2-3.6-0.5-5.3v-0.2c-0.1-0.4-0.1-0.4-0.2-0.4c0,0-0.1-0.1-0.4,0.1
			c-0.3,0.1-0.7,0.2-1,0.3c-0.8,0.2-1.5,0.4-2.2,0.8c-0.9,0.4-1.7,1-2.6,1.5c-0.5,0.3-1.1,0.7-1.6,1c0,0-0.1,0-0.1,0.1
			c-0.4,0.3-0.8,0.3-1.1,0c-0.5-0.4-0.3-1-0.2-1.2c0.2-0.6,0.6-0.8,1-1c0.5-0.3,1-0.6,1.4-0.8c0.6-0.3,1.1-0.7,1.7-1
			c0.3-0.2,0.3-0.3,0.2-0.6c-0.3-1-0.9-2-1.4-2.9c-0.2-0.3-0.3-0.5-0.5-0.8c-1.1-1.9-1.1-1.9-3.2-1c-3.1,1.3-5.8,3.3-8.1,5.9
			c-0.2,0.3-0.2,0.3-0.1,0.7c1.1,2,0.7,5.2-1.7,6.6c-0.2,0.1-0.4,0.2-0.6,0.4c-0.3,0.2-0.6,0.4-1,0.6c-0.4,0.2-0.5,0.3-0.2,1
			l0.1,0.3c0.4,1.2,0.9,2.4,0.9,3.6c0.9-0.5,1.8-0.9,2.8-1.2c0.9-0.3,1.7-0.6,2.4-1c0.3-0.2,0.7-0.3,1-0.3c0.1,0,0.3,0,0.4,0.1
			c0.5,0.1,0.8,0.5,1.1,1.1c0.3,0.6,0.6,1.2,0.9,1.9c0.6,1.3,1.2,2.6,2,3.8c0.3,0.4,0.5,0.7,0.6,0.8c0.1,0,0.5-0.2,0.8-0.3
			c2.2-1,4.6-1.8,7.2-2.4c0.6-0.1,0.9-0.4,1-1C-143.9,256.5-143.6,253.7-143.8,251.1L-143.8,251.1z"/>
		<path class="st3" d="M-213.1,305.9c-0.2-0.3-0.3-0.5-0.5-0.7c-0.9-1-1.3-2.1-1.7-3.2c-0.1-0.4-0.3-0.8-0.4-1.1
			c-0.3-0.8-0.6-1.6-0.3-2.7c0-0.2,0.2-0.7,0.7-0.9c0.3-0.1,0.6-0.1,1,0c0.2,0.1,0.2,0,0.3-0.1c0.9-0.9,2.1-1.4,3.2-1.8
			c0.3-0.1,0.6-0.3,1-0.4c0.3-0.1,0.6-0.3,0.9-0.5c-0.3-0.1-0.6-0.1-0.9-0.1s-0.6,0-0.8-0.1c-1.5-0.3-3.3-0.6-4.8-1.4
			c-0.1,0-0.2-0.1-0.3-0.1c-1.4-0.4-1.9-0.9-1.9-2.4c0-0.5,0-1.1,0.1-1.6c0.2-0.6,0-1.1-0.1-1.7c-0.1-0.5-0.3-1-0.2-1.6
			c0-0.4,0-0.8,0.1-1.3c0.1-2.2,0.2-4.4,0.9-6.6c-0.8,0.1-1.3,0.6-1.9,1.2l-0.4,0.4c-0.2,0.2-0.4,0.4-0.7,0.6c0,0-0.1,0-0.1,0.1
			c-0.2,0.1-0.6,0.5-1.1,0.1c-0.5-0.3-0.7-0.9-0.5-1.4c0.2-0.7,0.3-1.5,0.3-2.3c0-0.6,0.1-1.1,0.2-1.7c0.1-0.7-0.1-1.6-0.3-2.4
			l-0.6-0.3c-0.2-0.9-0.5-1.9-0.9-2.7c-1-2-2.5-3.5-4.4-4.4c-0.5-0.2-1,0-1.6,0.2c-2.1,1-4,1.7-5.8,2.3c-0.7,0.2-1.1,0.8-1.5,1.4
			c-0.2,0.3-0.3,0.5-0.5,0.7c0,0.1,0,0.2,0.1,0.2c0,0.1,0,0.2,0.1,0.2c0.3,1.5,1,2.8,1.8,4.1c0.4,0.7,0.8,1.5,1.1,2.2
			c0.3,0.6,0.6,1.3,1,1.9l0.3,0.6c0.4,0.7,0.3,1.1,0.1,1.4c-0.2,0.3-0.5,0.6-1.3,0.6c-1.2,0-2.5-0.2-3.9-0.8c-1-0.4-2.1-0.5-3.2-0.7
			c-0.4-0.1-0.8-0.1-1.2-0.2c-1.4-0.3-2.7,0-4,0.3c-0.3,0.1-0.7,0.1-1,0.2h-0.1c-0.4,0.1-0.6,0.1-1,0.7c-0.1,0.2-0.6,1.8-0.7,2.6
			c-0.5,3.5-0.2,7,0.2,10.2c0.1,1,0.5,1.6,1.4,2c1.5,0.6,2.9,1,4.6,1c0.6,0,1.2,0.2,1.7,0.3c0.6,0.1,1.1,0.3,1.6,0.3
			c0.4,0,0.7,0,1.1,0c0.8,0,1.5,0.1,2.3,0c0.4,0,0.8-0.1,1.1,0.3c0.2,0.2,0.3,0.5,0.3,0.8c0,0.2-0.1,0.4-0.1,0.5
			c0.1-0.1,0.2-0.2,0.2-0.2l0.1-0.1c0.2-0.2,0.7-0.7,1.3-0.2c0.3,0.2,0.6,0.6,0.6,1c0,0.2-0.1,0.5-0.2,0.7c-0.7,0.8-0.7,1.7-0.8,2.7
			c0,0.5-0.1,1-0.2,1.5c-0.3,1.5-0.4,3-0.4,4.6v0.7c0,0.2,0,0.2,0,0.2s0,0,0.2,0.1c1.3,0.6,2.7,1.1,4,1.5c0.5,0.1,1,0.3,1.5,0.5
			c1.3,0.4,2.6,1,4.1,1.7c1.1,0.6,2.3,0.8,3.5,1c0.5,0.1,1,0.2,1.5,0.3c1.1,0.2,1.8-0.3,2.5-1.1c1.2-1.3,2-3,2.8-4.5
			c0.3-0.6,0.6-1.2,0.9-1.7c0.1-0.2,0.1-0.4,0-0.6C-212.9,306.2-213,306-213.1,305.9z"/>
		<path class="st3" d="M-251.1,285.9h-0.2c-0.5,0.1-1.5,0.6-2,1.1l-0.1,0.1c-0.3,0.3-0.6,0.6-0.8,1c-0.2,0.5-0.2,1-0.2,1.2v0.1
			c-0.2,1.4,1.6,3.2,2.3,3.7l0.1,0.1c0,0,0.1,0.1,0.3,0.2h0.4c0.1,0,0.4-0.1,0.5-0.2c0,0,0-0.1,0-0.2c-0.2-1.3-0.2-3.2-0.2-4.8
			C-251.1,287.4-251.1,286.6-251.1,285.9L-251.1,285.9z"/>
		<path d="M-142.1,246.8c-0.1-0.4-0.1-0.7-0.2-1.1c-0.1-0.7-0.1-1.4-0.4-2.1c-0.1-0.2-0.3-0.7-0.8-0.9c-0.3-0.1-0.7,0-1,0.2
			c-0.5,0.3-1,0.4-1.6,0.4c-0.4,0.1-0.9,0.1-1.3,0.2l-0.1-0.1c-0.9-2.1-2-3.9-3.1-5.7c-0.6-1-1.4-1.4-2.5-0.9l-0.2,0.1
			c-1.3,0.5-2.7,1.1-3.9,1.9c-1.9,1.2-3.7,2.6-5.4,4l-0.8,0.6c-0.2,0.1-0.2,0.2-0.3,0.2c0,0-0.1-0.1-0.1-0.3c-0.3-0.8-0.6-1.6-1-2.2
			c-0.4-0.8-0.9-1.7-1.3-2.5c-0.9-1.7-1.8-3.4-2.6-5.1c-0.2-0.4-0.5-0.9-0.9-1.1c-0.5-0.2-1,0.1-1.4,0.3c-2,1-3.5,2.1-4.6,3.5
			c-0.2,0.3-0.3,0.3-0.3,0.3s-0.1,0-0.4-0.3c-0.5-0.4-1-0.9-1.4-1.4c-1.2-1.1-2.4-2.3-3.9-3.2c-0.2-0.1-0.7-0.4-0.7-0.4
			c0-0.1,0.3-0.5,0.6-0.8c0.6-0.7,1.3-1.8,0.2-3.1c-0.1-0.2-0.2-0.4-0.3-0.7c-0.1-0.2-0.1-0.4-0.2-0.6c-0.4-0.9-0.8-1.8-1.1-2.8
			c-0.5-1.4-1.1-2.9-1.9-4.2c-0.5-0.8-0.8-1.5-1-2.3c-0.1-0.8-0.6-1.3-1.3-1.3c-0.8,0-1.9-0.1-2.9,0.7c-0.3,0.2-0.7,0.5-1.1,0.7
			c0.1-0.7,0.1-1.4,0.1-2.1c0-0.8,0-1.5,0.1-2.2c0.2-1.7-0.1-3-2-3.8c-0.6-0.3-1.2-0.6-1.9-1c-0.9-0.6-1.9-1.2-3-1.4
			c-1.1-0.3-2.2-0.7-3.2-1.1c-1.2-0.5-2.4-0.9-3.7-1.2l-0.3-0.1c-0.6-0.1-1.2-0.3-1.7-0.6c-0.8-0.5-1.3,0-1.6,0.3
			c-1.6,1.6-2.4,3.5-3,5.2c-0.3,0.9-0.6,1.7-0.8,2.6c0,0.1-0.1,0.3-0.1,0.4c-0.2-0.2-0.4-0.5-0.6-0.7c-0.7-0.8-1.3-1.5-2.1-2.1
			l-0.3-0.1c-1.1-1-2.2-1.9-3-3.2c-0.6-0.9-1.3-0.5-1.6-0.4c-2.5,1.3-4.3,3.4-6.1,5.4c-0.3,0.3-0.5,0.6-0.8,0.9c-1,1.1-2,2.4-3,3.9
			c-0.1,0.1-0.1,0.2-0.2,0.3c-0.2,0.4-0.3,0.5-0.6,0.5c-0.2,0-0.4,0.1-0.6,0.2c-0.2,0.2-0.3,0.5-0.3,0.8v0.3c0.1,0.5,0.1,1,0.3,1.5
			c0.5,1.6,1.6,2.7,2.7,3.8l0.2,0.2c0.5,0.5,0.9,1,1.3,1.5c0.3,0.4,0.6,0.7,0.9,1.1c-0.1,0-0.1,0-0.2,0c-1-0.1-1.9-0.1-2.9-0.3
			c-0.5-0.1-1,0-1.4,0c-0.9,0-1.7,0.1-2.4-0.4c-0.4-0.2-0.6-0.1-0.7-0.1c-0.3,0.1-0.4,0.5-0.4,0.9c0,1,0,2.2,0,3.3
			c0,0.1,0,0.2,0,0.3c-0.1,0-0.1-0.1-0.2-0.1c-1.6-0.8-3.2-1-4.6-0.8c0.1-0.3,0.1-0.5,0-0.8c-0.2-0.4-0.2-0.8-0.3-1.3
			c0-0.2,0-0.4-0.1-0.6c-0.2-1.4-0.9-2.5-1.5-3.6c-0.1-0.2-0.3-0.4-0.4-0.7c-1-1.7-2.1-3.4-3.5-5.2c-0.8-1-1.5-1.2-2-1.2
			s-1.2,0.2-1.9,1c-0.1,0.2-0.3,0.3-0.5,0.4c-0.1,0.1-0.2,0.1-0.3,0.2c-0.4,0.3-0.8,0.6-1.2,0.9c-1,0.6-1.9,1.3-2.8,2.2l-0.5,0.5
			c-0.6,0.6-1.3,1.3-1.9,2c-0.2,0.2-0.4,0.4-0.6,0.7c-0.8,0.8-1.7,1.7-1.3,3.4l0,0c-0.5,2.4,0.4,4.5,1.2,6.5c0.1,0.3,0.3,0.7,0.4,1
			c0.2,0.6,0.4,1.2,0.5,2c0.1,0.6-0.5,1-0.7,1.1c-0.1,0-0.2-0.2-0.3-0.3c-0.1-0.1-0.1-0.2-0.2-0.2c-1-1.1-1.9-2-3-2.8
			c-0.3-0.2-0.5-0.3-0.8-0.4c-0.3-0.2-0.6-0.3-0.8-0.5c-1.1-1.1-2.6-1.2-3.6-1.2c-0.8,0-1.5,0.3-1.9,0.8c-2.4,2.7-4.2,5.1-5.5,7.5
			c-0.9,1.6-1.7,3.4-2.3,5.2c0,0.1,0,0.1-0.1,0.2l0,0l0,0c-0.4-0.2-0.7-0.2-1,0c-0.3,0.2-0.4,0.7-0.3,1.2c0.1,0.4,0.3,0.8,0.6,1.1
			c0.6,0.6,1.3,1.2,1.9,1.7c0.6,0.5,1.3,1.1,1.9,1.7c0.8,0.8,1.7,1.5,2.6,2.2c1.1,0.8,2.1,1.6,3,2.6c0.8,1,1.7,1.7,2.8,2.1l0.4,0.1
			c0.6,0.2,1.1,0.4,1.6,0.8c-0.9,0.4-1.9,1.1-2.5,2.4c-0.2,0.5-0.3,0.9-0.1,1.2c0.1,0.2,0.3,0.4,0.8,0.5c0.3,0,0.3,0.1,0.3,0.4
			c0,0.2,0,0.2-0.4,0.4c-0.5,0.1-0.9,0.3-1.4,0.4c-0.5,0.2-1.1,0.4-1.8,0.6c-1.9,0.8-2.6,1.4-3.8,2.4c-0.2,0.1-0.3,0.3-0.5,0.5
			c-0.5,0.6-0.8,0.9-1.4,0.7c-0.3-0.1-0.6,0.1-0.8,0.3c-0.4,0.3-0.7,2.8-0.5,3.1c0.6,1.1,0.8,2.4,1,3.7l0.1,0.3
			c0.4,2.9,1.5,5.7,3.3,8.8c0.4,0.7,0.9,1.4,1.7,1.8c0.1,0,0.1,0.1,0.2,0.1c-1.5,0.8-3.2,1.7-5.2,2.6c-1.5,0.7-1.9,1.1-1.5,2.8
			c0.1,0.7,0.3,1.4,0.4,2.1c0.3,1.7,0.7,3.4,1,5.1c0.3,1.4,0.8,3.2,1.5,5.1c0.2,0.5,0.5,0.9,0.7,1.3c0.4,0.6,0.8,1.2,0.8,1.9
			c0,0.2,0.1,0.5,0.3,0.6c0.2,0.2,0.6,0.3,1,0.3c0.3,0,0.6-0.1,0.9-0.1c1.1-0.1,2.3-0.2,3.4-0.6c0.8-0.3,1.6-0.5,2.3-0.6l0.5-0.1
			c1.9-0.2,3.8-0.5,5.2-2.1l0,0c0.1,1.7,0.7,3.2,1.3,4.7c0.1,0.3,0.3,0.7,0.4,1c0.5,1.3,1.2,2.4,1.9,3.5c0.2,0.4,0.5,0.8,0.7,1.2
			c1,1.6,1.9,2.8,2.9,3.8c0.3,0.3,0.6,0.5,1.2,0.5c0,0,0.1,0,0.2,0c1.2-0.1,3-0.3,4.5-1.1c0.9-0.4,1.9-0.8,2.8-1.1
			c1.3-0.5,2.7-1,4-1.8c0.2-0.1,0.4-0.2,0.6-0.3c0.2-0.1,0.3-0.1,0.5-0.2c1.2-0.6,2.3-1.3,2.8-2.8c0.7,0.3,1.3,0.5,2,0.7
			c0.9,0.3,1.8,0.6,2.7,1c1.7,0.8,3.4,1.4,5.1,2c0.8,0.2,1.5,0.3,2.3,0.4c0.8,0.1,1.6,0.2,2.3,0.5c0.7,0.3,1.5,0,2-0.7
			c0.2-0.3,0.4-0.6,0.7-0.9c0.5-0.7,1-1.3,1.4-2c0.9-1.4,1.8-2.9,2.8-4.8c0,0,0-0.1,0.1-0.1c0,0,0.1,0.1,0.1,0.2
			c0.3,0.4,0.6,0.8,0.9,1.3c0.1,0.2,0.2,0.4,0.4,0.6c0.4,0.5,0.8,0.9,1.3,1.3c0.3,0.3,0.7,0.5,0.9,0.8c0.3,0.4,0.6,0.6,1,0.6
			c0.5,0,0.9-0.3,1.2-0.5c0.5-0.4,1-0.8,1.6-1.2l0.5-0.3c0.5-0.4,1.1-0.7,1.6-1c1-0.6,2.1-1.2,3-2c0.4-0.3,0.8-0.6,1.3-0.9l0,0
			c0,0.1,0,0.2,0,0.2v0.2c0,0.4,0,0.8,0,1.3c-0.1,2-0.1,4.1,0.3,6.2c0.4,1.8,1.4,2.5,3.3,2.3c2.4-0.3,4.8-0.8,7.1-1.2l1.2-0.2
			c2.4-0.4,4.7-1.1,7-1.8c0.6-0.2,1.2-0.4,1.8-0.5c1.3-0.4,1.8-1.4,1.5-2.8c-0.2-0.6-0.2-1.2-0.2-1.9c0-0.4,0-0.8-0.1-1.2
			c0-0.4-0.1-0.7-0.1-1.1c-0.1-1.1-0.2-2.2-0.4-3.2c0-0.1-0.1-0.3-0.1-0.4c0.1,0,0.2,0,0.4,0c0.2,0,0.3,0,0.5,0.1
			c0.5,0.1,1.1,0.2,1.7,0.1c0.7-0.1,1.3-0.2,2-0.2c0.5,0,1-0.1,1.6-0.1c0.4-0.1,0.8-0.1,1.2-0.2c0.9-0.2,1.7-0.4,2.5-0.1
			c0.3,0.1,0.6-0.1,0.8-0.2c0.7-0.5,1.1-1.3,1.1-2.3c0-0.5,0-1.1,0-1.6c0-0.9,0-1.9,0.1-2.8c0.1-0.7,0.1-0.8,0.2-0.8
			c0,0,0.2-0.1,0.8,0c1.6,0.3,2.6-0.2,3.3-1.7c0.3-0.7,0.6-1.4,0.8-2.2c0.2-0.6,0.5-1.3,0.7-1.9c0.6-1.6,1.3-3.2,1.5-5
			c0.2-1.5,0.5-3.1,1-4.7c0.1-0.2,0.2-0.8-2.1-2.6c-0.1,0-0.1-0.1-0.1-0.1s0.1-0.1,0.1-0.2c0.1-0.1,0.3-0.2,0.4-0.4
			c0.4-0.3,0.7-0.5,1.3-1c1.6-1,2.6-2,3.7-2.9c0.8-0.7,1-1.6,0.5-2.6c-0.3-0.8-0.5-1.6-0.8-2.4c-0.1-0.4-0.2-0.9-0.3-1.4
			c0.3-0.2,0.5-0.3,0.8-0.5c0.4-0.3,0.8-0.6,1.3-0.7l0.6-0.2c1.8-0.6,3.5-1.3,5.3-1.4c0.8-0.1,1.4-0.5,1.6-1.2
			c0.7-2.5,1.3-5.3,1.4-8.1C-141.7,251.5-141.6,249.1-142.1,246.8z M-179.9,235.4c0.3,0.3,0.7,0.7,1,1c0.8,0.8,1.6,1.5,2.2,2.5
			c0.7,1.1,1.4,2.2,1.8,3.5c0.1,0.2,0.1,0.3-0.2,0.5c-0.7,0.5-1.6,1.1-2.6,1.3c-1.7,0.3-3.3,1.1-4.8,1.8c-0.3,0.1-0.6,0.3-0.9,0.4
			c-0.3,0.1-0.7,0.4-0.8,0.8c-0.1,0.2-0.1,0.5,0.1,0.9c0.2,0.3,0.4,0.5,0.6,0.5c0.4,0.1,0.6-0.2,0.8-0.3l0.1-0.1
			c0.1,0,0.2-0.1,0.2-0.1s0,0,0.1,0c0,0,0,0,0,0.1c0,0.2,0.2,0.6,0.8,0.8c1.2,0.4,2,1.3,2.8,2.4c0.3,0.4,0.6,0.7,0.9,1.1
			c0,0,0.1,0.1,0,0.4c-0.7,2.1-1.6,4.2-3.1,6.1c-0.2,0.2-0.2,0.2-0.2,0.2c-1-0.2-2.1-0.1-3.1-0.1c-0.4,0-0.8,0-1.2,0
			c-0.3,0-0.4,0-0.4,0s0,0,0-0.1c0-0.3-0.2-0.6-0.7-0.8c-0.7-0.3-1.3-0.7-1.9-1.2c-0.2-0.2-0.5-0.3-0.7-0.5
			c-0.8-0.5-1.6-0.7-2.2-0.4c-0.6,0.3-1,0.8-1.1,1.6c-0.3,1.9-1.2,2.7-3.1,2.9c-0.7,0.1-1,0.2-1.2,0.3c-0.1,0-0.1,0-0.2,0.1h-0.1
			c-1.1,0.6-1.5,1.3-1.5,2.4c0,0.8-0.1,1.6-0.3,2.5h0.1c-0.1,0.4-0.2,1-0.3,1.1c-0.2,0-0.8-0.3-1-0.4c-2-0.9-4.2-1.5-6.3-2.1
			c-0.5-0.2-1.1-0.3-1.6-0.5c-0.4-0.1-0.7-0.2-1.1-0.4c-0.6-0.2-1.2-0.4-1.8-0.5c-0.2-0.1-0.4-0.2-0.4-0.5c0-2.2,0.2-4.6,1.4-6.7
			c0.1-0.2,0.3-0.4,0.4-0.6c0.1-0.2,0.3-0.4,0.4-0.7c0.4-0.7,0.2-1.2-0.1-1.5c-0.1-0.2-0.3-0.2-0.5-0.2c-0.2,0-0.3,0-0.4,0.1h-0.1
			c-0.9-0.1-1.7,0-2.5,0c-1,0.1-2,0.1-3-0.1c-0.7-0.2-1.5-0.3-2.3-0.4c-0.5-0.1-1.1-0.2-1.6-0.2c-0.4-0.1-0.8-0.2-0.7-1
			c0.2-1.4,0.3-2.9,0.4-4.4c0.1-1.7,0.2-3.4,0.7-5.1c0.3-0.8,0.5-1.7,0.9-2.5c0.1-0.2,0.1-0.2,0.6-0.3c1.6,0,2.8,0.7,4.3,1.6
			c1,0.7,2.1,1.4,2.6,2.7c0.2,0.4,0.6,1.1,1.7,0.8c0.7-0.2,1-0.8,0.8-1.6c-0.5-2.2-0.2-4.4,0.2-6.2l0.1-0.4c0.1-0.7,0.3-1.4,0.7-2
			c1.2-1.5,3.5-2.7,5.6-2.1c1.5,0.4,3,0.6,4.1,0.7c0.5,0,0.9,0.2,1.4,0.4s1,0.4,1.6,0.5c0.1,0,0.2,0.2,0.2,0.4
			c0.1,0.5,0.2,0.9,0.3,1.4c0.3,1.4,0.5,2.8,0.3,4.2c-0.1,0.7,0.1,1.1,0.6,1.3c0.8,0.3,1.2-0.3,1.4-0.5c0.3-0.4,0.6-0.9,0.5-1.6
			c-0.1-0.7,0.3-1.4,0.7-2.1c0.9-1.6,2.2-3,3.9-4.3c0.3-0.2,0.7-0.1,1.3,0.1c0.2,0.1,0.4,0.2,0.6,0.2
			C-183,232.8-181.5,233.8-179.9,235.4z M-188.5,259c-0.8,0.1-1.5,0.2-2.2,0.3v-0.2c0.1-0.4,0.2-0.8,0.4-1.2
			c0.3,0.2,0.5,0.3,0.8,0.5C-189.2,258.6-188.8,258.8-188.5,259z M-212.4,270.2c-0.4-0.2-0.9-0.2-1.2,0c-0.4,0.3-0.7,0.6-0.9,1
			c-0.2,0.5-0.4,0.9-0.7,1.4c-0.4,0.7-0.8,1.5-1,2.3c-0.1,0.4-0.3,0.4-0.4,0.3c-0.6-0.1-1.1,0.1-1.5,0.3c-0.1,0-0.2,0.1-0.3,0.1
			c-0.2,0.1-0.4,0.2-0.6,0.4v-0.1c0.2-1.4-0.2-2.6-0.5-3.8c-0.1-0.4-0.3-0.8-0.4-1.3c-0.7-3.2-2.6-5.9-5.5-7.9
			c-2-1.4-3.5-3.1-4.9-4.8c-0.6-0.7-0.6-1.5-0.2-2.5c1.1-2.5,2.8-4.6,4.4-6.7l0.5-0.6c0.7-0.9,1.1-1,2.2-0.5c0.4,0.2,1,0.3,1.4-0.4
			c-0.1,1.1-0.2,2.3-0.3,3.4c-0.1,0.7-0.1,1.4-0.2,2.1c0,0.4,0.1,0.7,0.3,0.9c0.2,0.3,0.6,0.4,1,0.5c1.1,0,2.2,0.2,3.3,0.4
			c1.8,0.3,3.7,0.6,5.7,0.3c0.2,0,0.3,0,0.4,0c0,0.1,0.1,0.3-0.1,0.6c-1.2,2.6-1.7,5.5-1.4,8.7c0.1,0.7,0.4,1,0.6,1.2
			c0.2,0.1,0.6,0.3,1.2,0c0.2-0.1,0.5-0.1,0.8-0.1c1.4,0.2,2.7,0.7,4,1.1c0.6,0.2,1.1,0.4,1.7,0.5c0.8,0.2,1.5,0.5,2.2,0.9
			c1,0.5,2.1,0.9,3.3,1.1v0.1c-0.2,1.8-0.3,3.6-0.4,5.3v1.3c0,0.2,0,0.2,0,0.3c0,0-0.1,0-0.2-0.1c-0.6-0.2-1.2-0.4-1.7-0.8
			c-1.4-0.9-2.9-1.5-4.4-2l-0.6-0.2c-1.9-0.7-3.7-1.2-5.3-1.6c-0.1,0-0.2,0-0.2,0s0,0,0-0.1C-211.8,270.7-212.2,270.3-212.4,270.2z
			 M-255.4,224.8c1.7-2.7,4.3-4.5,6.8-6.3l0.8-0.6l0,0c0.3,0.4,0.8,0.4,1,0.4c0.1,0,0.1,0,0.2,0c0.2,0,0.3,0.1,0.3,0.1
			c0.3,0.5,0.6,0.9,0.9,1.2c0.3,0.4,0.6,0.7,0.8,1.1c0.3,0.5,0.6,1,0.9,1.5c1.2,2,2.3,3.8,2.3,6.1c0,0.1,0,0.5,0.2,0.8
			c-0.1,0-0.2,0-0.2,0.1c-0.7,0.2-1.2,0.7-1.2,1.4c0,0.3-0.1,0.5-0.1,0.8c-0.1,1.1-0.3,2.2-0.1,3.3c0.2,1.3,0.2,2.7,0.3,4
			c0,1.5,0.1,3,0.3,4.6c-1.2-1.3-2.3-2.7-3.4-4.1l-0.3-0.3c-1.3-1.7-2.7-3.4-4.6-4.5c-0.6-0.4-1.4-0.6-2.1-0.6
			c-0.6,0-1.1,0.2-1.5,0.5c-0.1,0.1-0.2,0.2-0.3,0.3c0-0.1-0.1-0.2-0.2-0.4c-0.1-0.4-0.3-0.8-0.4-1.2c-0.2-0.7-0.5-1.3-0.7-2
			C-256.6,228.7-256.5,226.6-255.4,224.8z M-257.4,241.9c1.2-2,2.5-3.8,3.9-5.3c0.8-0.9,1.3-0.9,2.3-0.2l0.1,0.1
			c0.3,0.2,0.5,0.3,0.7,0.5c1.4,1.4,2.8,2.8,4.1,4.6c0.9,1.2,1.9,2.4,2.9,3.6c0.6,0.7,1.2,1.5,1.8,2.2c0.1,0.2,0.4,0.5,0.8,0.5
			c0.6,0.1,0.8-0.5,0.9-0.7c0.1-0.3,0.1-0.7,0.1-0.9v-0.2c0-0.6-0.2-1.1-0.4-1.6c-0.1-0.3-0.3-0.7-0.3-1c-0.2-1.3-0.2-2.6-0.2-3.9
			c0-1.2,0-2.4-0.2-3.6c-0.2-1.3-0.1-2.7,0-4c0.1-0.6,0.3-0.7,0.5-0.7c1.8-0.4,3.5-0.3,5.1,0.3c1.3,0.5,3.1,1.1,4.9,1.5
			c1.6,0.3,2.1,0.8,2.1,2.3c0,0.1,0,0.1,0,0.2c0,1.3-0.1,2.6-0.2,3.8c-0.1,0.9-0.1,1.8-0.2,2.7c0,1.9-0.4,3.6-1.1,5.2
			c-0.1,0.2-0.3,0.7-0.1,1.1c0.1,0.2,0.2,0.4,0.5,0.5c0.3,0.1,0.6,0.1,0.8,0c0.3-0.1,0.5-0.4,0.6-0.8l0.1-0.4
			c0.3-0.8,0.6-1.7,0.8-2.5c0.3-1.3,0.3-2.5,0.3-3.7c0-0.8,0-1.7,0.1-2.5c0.3-2.3,0.3-4.1,0-5.7c-0.1-0.7-0.4-1-1-1.4
			c-0.7-0.4-1.5-0.6-2.3-0.8c-0.5-0.1-0.9-0.2-1.3-0.4c-1.1-0.4-1.5-0.9-1.5-2c0-0.6,0.1-0.6,0.5-0.7c1.4-0.2,3-0.2,4.9,0
			c0.7,0.1,1.4,0.2,2.1,0.4c0.3,0.1,0.5,0.1,0.8,0.2c0.8,0.2,1.5-0.2,1.8-0.9c0.1-0.3,0.1-0.5,0-0.7c-0.2-0.3-0.5-0.5-0.7-0.5
			c-0.1,0-0.1,0-0.2-0.1c-0.5-0.3-0.9-0.6-1.1-1c-0.5-0.8-1.2-1.4-1.7-2c-0.1-0.1-0.2-0.2-0.3-0.3c0,0-2.2-2.7-2.4-3.8
			c-0.1-1.1,0-1.1,0-1.1l0,0c0.2-0.3,0.4-0.5,0.5-0.8c0.2-0.3,0.4-0.6,0.6-0.9c1.6-2.2,3.4-4.1,4.9-5.8c0.9-1,2.1-1.7,3.3-2.5
			c0,0,0.1,0.1,0.2,0.1c1.8,1.3,3.7,2.8,5.2,4.7c1,1.2,1.5,2,1,3.2c-0.1,0.3-0.2,0.8,0.1,1.1c0.2,0.3,0.4,0.4,0.7,0.4
			c0.4,0,0.6-0.1,0.7-0.3c0.3-0.3,0.2-0.8,0.1-1.1c0-0.1,0-0.1,0-0.2c0.1,0.1,0.1,0.1,0.2,0.2c0.4,0.3,0.5,0.6,0.5,1v0.1
			c0,0.2-0.1,0.9,0.7,1.1c0.5,0.1,0.9,0,1.2-0.4c0.4-0.5,0.2-1.1,0-1.3c-0.4-0.8-0.9-1.5-1.5-2.1c-0.4-0.4-0.5-0.8-0.4-1.4
			c0.4-2,1.2-3.8,2.1-5.7c0.7-1.4,1-2.1,2.3-1.5c0.2,0.1,0.4,0,0.5,0c0.8,0.1,1.7,0.2,2.5,0.5c0.2,0.1,0.4,0.2,0.6,0.3
			c0.7,0.3,1.3,0.6,2.1,0.8c1.1,0.2,2.1,0.6,2.9,1c1.3,0.6,2.7,1.4,4.1,2.5c0.4,0.3,0.6,0.6,0.6,1v0.5c0.1,0.8,0.1,1.5,0,2.2
			c-0.1,0.5-0.1,0.9-0.1,1.4c-0.1,1.5-0.2,2.9-1.4,4c-0.3,0.2-0.2,0.6-0.1,0.9c0,0,0.4,1.7,1,1.8c0.4,0.1,0.8-0.1,1-0.5
			c0.1-0.2,0.3-0.5,0.3-0.8c0.3-2.1,1.9-2.8,3.7-3.6c0.2-0.1,0.5-0.2,0.7-0.3c0.3,0.9,0.8,1.6,1.2,2.4c0.1,0.2,0.2,0.4,0.4,0.5
			c0.4,0.6,0.6,1.3,0.9,2.1c0.2,0.5,0.3,0.9,0.5,1.4c0.3,0.6,0.5,1.3,0.8,1.9c0.3,0.8,0.6,1.5,1,2.3c0.3,0.6,0,0.9-0.4,1.4
			c-0.1,0.2-0.3,0.3-0.4,0.5c-0.1,0.1-0.1,0.2-0.6,0c-0.1,0-0.2-0.1-0.2-0.1c-0.3-0.1-0.6-0.2-0.9-0.3c-0.2-0.1-0.5-0.2-0.7-0.3
			c-0.6-0.2-1.1-0.2-1.4,0.1c-0.2,0.2-0.5,0.5-0.4,1.3c0,0-0.1,0-0.1,0.1c-1.3,1-2.3,2.4-3,3.5c-0.2,0.3-0.4,0.6-0.6,0.9
			c0-0.2,0-0.3,0-0.5c0.1-2.5-0.2-2.9-2.6-3.5c-0.1,0-0.1,0-0.2,0h-0.1c-0.2-0.1-0.5-0.1-0.7-0.2c-0.6-0.2-1.3-0.4-2-0.4
			c-1,0-1.9-0.1-3-0.5c-1-0.3-2-0.4-3.1-0.3c-1.4,0.2-2.6,0.8-3.8,1.4l-0.6,0.3c-0.4,0.2-0.6,0.5-0.7,0.8v0.1
			c-0.5,1.1-0.7,2.3-0.9,3.4c-0.1,0.5-0.2,1-0.3,1.5c0,0.2-0.1,0.3-0.1,0.5c-0.2,0.9-0.5,1.9,0.1,3l0,0c-1.2-1.2-2.6-2-4-2.8
			c-1.5-0.8-3-1-4.5-1.3l-0.4-0.1c-0.5-0.1-1,0.1-1.4,0.6c-0.3,0.4-0.4,1-0.2,1.5c0.1,0.3,0.1,0.4,0,0.5c-0.8,1.5-1,3.2-1.2,4.5
			c-0.1,0.8-0.2,1.7-0.3,2.5c-0.1-0.2-0.2-0.3-0.5-0.4c-0.2-0.1-0.4-0.2-0.6-0.4c-0.1-0.1-0.1-0.1-0.2-0.2c-0.5-0.5-1.2-0.5-1.8-0.1
			l-0.4,0.3c-0.5,0.4-1.1,0.8-1.5,1.4c-2.1,2.5-3.8,5.3-5.2,7.7c-0.1,0.2-0.2,0.3-0.2,0.5c-0.2-0.4-0.7-0.6-1.2-0.4
			s-0.9,0.6-0.8,1.2c0,0.3,0.1,0.6,0.3,0.9c0.6,1,1.3,1.8,2,2.7c0.4,0.6,0.9,1.1,1.3,1.7c0.1,0.2,0.3,0.4,0.4,0.6
			c0.3,0.4,0.5,0.8,0.9,1.2c-0.1,0-0.2,0.1-0.3,0.1c-0.1,0-0.1,0.1-0.2,0.1c-0.7,0.2-1.4,0.5-2,0.8c-0.8,0.3-1.6,0.7-2.4,0.9
			c-0.3,0.1-0.6,0.1-0.9,0.2c-1.1,0.2-2.4,0.5-2.8,2.1l-0.1,0.1c-0.1,0.1-0.3,0.2-0.4,0.4l-0.1,0.1c-0.3,0.5-0.7,1.1-0.4,1.9
			c0.1,0.4,0.3,0.7,0.4,1.1c0.3,0.9,0.7,1.8,1.1,2.7c0.3,0.6,0.5,1.1,0.8,1.6c0.6,1.1,1.1,2.2,1.5,3.3c-0.6-0.2-1.3-0.4-1.9-0.6
			c-1.5-0.5-3-1-4.7-1h-0.1c-0.3,0-0.6-0.1-1-0.2c-1.1-0.3-2,0-2.7,0.2c-0.6,0.2-1.2,0.4-1.9,0.5l0,0c0.1-0.2,0.2-0.5,0.1-0.9
			c-0.1-1,0-2,0.3-3c0.1-0.4,0.3-0.5,0.5-0.5c0.4,0,0.8-0.2,1.1-0.5c0.2-0.2,0.3-0.6,0.3-0.9c-0.1-0.5-0.3-0.7-0.5-0.8
			c-0.3-0.2-0.8-0.2-1.2-0.1c-0.3,0.1-0.6,0.2-0.9,0.2c-0.5,0.1-1.1,0.3-1.7,0.5c-2.2,0.9-4.5,0.7-6.9,0.5c-0.4,0-0.8-0.1-1.2-0.1
			c-0.4,0-0.4-0.2-0.4-0.2c-0.3-0.7-0.7-1.4-1-2c-0.5-0.9-0.9-1.8-1.3-2.8c-0.2-0.5-0.3-1-0.4-1.6c-0.1-0.5-0.2-1-0.3-1.5
			c-0.1-0.4-0.2-0.7-0.3-1.2c-0.1-0.4-0.2-0.8-0.3-1.2c0,0,0-0.1,0.1-0.2c0.1-0.1,0.3-0.2,0.4-0.3c0.3-0.2,0.6-0.4,0.9-0.5l0.4-0.1
			c1.4-0.5,2.9-1.1,4.4-1.5c0.3-0.1,0.5-0.2,0.7-0.3c0.2-0.1,0.5-0.3,0.6-0.2c0.5,0.3,1,0.4,1.5,0.6c0.4,0.1,0.8,0.2,1.1,0.4
			c0,0,0.1,0,0.1,0.1c0.2,0.1,0.7,0.4,1.2-0.1c0.1-0.1,0.6-0.5,0.4-1.1c-0.1-0.6-0.6-1-1.2-1.1c-1.5-0.2-2.7-1-3.7-1.8
			c-0.5-0.4-1.1-0.9-1.6-1.3c-1.7-1.3-3.4-2.7-4.9-4.2c-0.7-0.7-0.9-1.4-0.6-2.3c0.4-0.9,1-1.7,1.7-2.5l0.3-0.4
			C-258.7,243.8-257.9,242.9-257.4,241.9z M-265.5,254.2c-0.9-1-2-1.8-3-2.5l-0.6-0.4c-0.8-0.6-1.4-1.2-2.1-1.9
			c-0.7-0.8-1.5-1.5-2.4-2.2c-0.1-0.1-0.1-0.1,0-0.6c0.9-2.7,2-5,3.4-7.1c0.3-0.4,0.5-0.8,0.8-1.1c0.4-0.6,0.8-1.2,1.2-1.8
			c0.2-0.4,0.6-0.7,1-1.1c0.4-0.4,0.8-0.8,1.1-1.3c0.1-0.1,0.4-0.3,1-0.3l0,0l0,0l0,0c0.4,0,0.7,0.2,1.1,0.3
			c0.2,0.1,0.4,0.2,0.6,0.3c2.2,0.8,3.6,2.4,5.2,4.1l0.1,0.2c0.1,0.1,0.1,0.2,0,0.6c-0.4,1-1.1,1.9-1.8,2.7l-0.1,0.1
			c-1.4,1.6-2.5,2.9-3.3,4.6c-0.8,1.5-0.4,3,0.9,4.3c0.9,0.9,2,1.7,2.9,2.5c1.1,0.9,2.2,1.8,3.2,2.8c0.1,0.1,0.2,0.2,0.3,0.3
			c-0.3,0.2-0.6,0.4-0.9,0.6c-0.6,0.4-1.1,0.8-1.8,0.9c-0.2,0-0.3,0-0.3,0.1c0,0,0,0,0-0.2c0-0.6-0.5-1-1.2-1.1
			C-262.2,256.9-264,255.9-265.5,254.2z M-235.3,300.7c0,0.5,0,1-0.1,1.4c-0.4,2.6-0.8,5.6-0.9,8.7c0,0.5-0.1,1.5,0.8,2
			c-0.3,0.2-0.6,0.3-1,0.5c-0.3,0.2-0.7,0.3-1,0.5c-0.7,0.4-1.5,0.7-2.4,1c-1,0.4-2.1,0.7-3,1.4c-0.6,0.4-1.5,0.6-2.7,0.5
			c-0.1,0-0.2,0-0.3-0.1c-0.3-0.1-0.8-0.3-1.4,0.1c-0.2,0.2-0.4,0.3-0.8-0.3c-2.4-3.1-3.9-5.8-4.9-8.5c-0.1-0.3-0.2-0.5-0.3-0.8
			c-0.4-1.1-0.8-2.1-0.5-3.3c0.1-0.4,0-0.8-0.4-1.1c-0.3-0.3-0.9-0.4-1.4-0.4c-0.7,0-1.5,0.2-1.8,0.6c-0.7,0.8-1.4,1.3-2.3,1.4
			c-2.3,0.3-4.5,0.9-6.5,1.4c-0.4,0.1-1.9,0.1-2.4-0.9c-0.6-1-1.1-2.2-1.5-3.5c-0.5-1.6-0.8-3.2-1.2-4.9l-0.2-1
			c-0.3-1.4-0.5-2.6-0.7-3.8c0-0.3,0-0.3,0.1-0.3c2.1-1.5,4.6-2.7,7.9-4c0.1,0,0.1,0,0.2-0.1c0.3-0.1,0.9-0.3,0.8-1.1
			c-0.1-0.3-0.2-0.5-0.4-0.7c-0.3-0.2-0.6-0.2-1-0.1h-0.2c-0.3,0.1-0.5,0.1-0.8,0.2c-0.1-0.5-0.5-1.3-1-1.5c-0.1,0-0.3-0.1-0.4-0.2
			c-1.1-1.3-1.9-2.5-2.4-3.8c-0.8-2.5-1.4-5.2-1.9-7.7l-0.1-0.4c-0.1-0.4-0.1-1,0.4-1.4c0.7-0.5,1.3-1.1,1.9-1.7
			c0.3-0.3,0.6-0.6,1-0.9c0.3-0.3,0.4-0.4,1.1-0.7c0.9-0.4,1.8-0.7,2.8-1c0.5-0.1,1-0.3,1.5-0.4c0.1,0,0.1,0,0.2,0v0.1
			c0.4,1.6,1.1,3.1,1.8,4.5c0.4,0.9,0.9,1.9,1.2,2.8c0.4,1,1.2,1.1,1.8,1c1-0.2,1.9-0.3,2.9-0.2c1.8,0.2,3.8,0.4,5.8-0.5
			c-0.4,1-0.3,1.9-0.2,2.8v0.4c0,0.2,0,0.6,0.3,0.9l0.1,0.1c-0.7,0.3-1.4,0.9-1.5,2c0,0.3-0.1,0.6-0.2,0.9c-0.2,0.7-0.3,1.5-0.3,2.3
			c0,0.1,0,0.2,0,0.2c-0.4,0-3.5,1.7-4.1,2.4c-0.6,0.7-2.4,2.9-1.2,5.5c0.6,1.2,2.7,3.8,4.3,4.4c0.5,0.2,0.9,0.2,1.3,0
			c0.1,0,0.3,0.2,0.6,1.2c0.1,0.3,0.4,1.2,1.5,0.9c0.5-0.1,1.1,0,1.7,0.1c3.4,0.7,7,1.4,10.6,1.4l0,0c0.4,0,0.7-0.1,0.9-0.3
			C-235.2,299.4-235.4,300-235.3,300.7z M-250.9,293c0,0.1,0,0.2,0,0.2c-0.1,0.1-0.4,0.2-0.5,0.2h-0.4c-0.2,0-0.3-0.1-0.3-0.2
			l-0.1-0.1c-0.7-0.6-2.5-2.3-2.3-3.7v-0.1c0-0.3,0-0.8,0.2-1.2c0.1-0.3,0.5-0.7,0.8-1l0.1-0.1c0.5-0.5,1.6-1,2-1.1h0.2l0,0
			c0,0.7,0,1.5,0,2.3C-251.1,289.8-251.1,291.7-250.9,293z M-212.7,307c-0.3,0.6-0.6,1.1-0.9,1.7c-0.8,1.6-1.7,3.2-2.8,4.5
			c-0.7,0.8-1.4,1.3-2.5,1.1c-0.5-0.1-1-0.2-1.5-0.3c-1.2-0.2-2.4-0.4-3.5-1c-1.5-0.7-2.8-1.3-4.1-1.7c-0.5-0.2-1-0.3-1.5-0.5
			c-1.4-0.4-2.8-0.8-4-1.5c-0.1-0.1-0.2-0.1-0.2-0.1s0,0,0-0.2v-0.7c0-1.5,0.1-3.1,0.4-4.6c0.1-0.5,0.1-1,0.2-1.5
			c0.1-1,0.1-1.9,0.8-2.7c0.2-0.2,0.2-0.4,0.2-0.7c0-0.4-0.4-0.8-0.6-1c-0.6-0.5-1.1,0-1.3,0.2l-0.1,0.1c-0.1,0.1-0.2,0.2-0.2,0.2
			c0.1-0.2,0.1-0.3,0.1-0.5c0-0.4-0.1-0.6-0.3-0.8c-0.3-0.3-0.8-0.3-1.1-0.3c-0.7,0.1-1.5,0-2.3,0c-0.4,0-0.7,0-1.1,0
			c-0.6,0-1.1-0.2-1.6-0.3c-0.6-0.1-1.1-0.3-1.7-0.3c-1.6-0.1-3.1-0.4-4.6-1c-0.9-0.4-1.3-1-1.4-2c-0.4-3.3-0.6-6.8-0.2-10.2
			c0.1-0.8,0.6-2.4,0.7-2.6c0.3-0.6,0.6-0.7,1-0.7h0.1c0.3-0.1,0.7-0.1,1-0.2c1.3-0.3,2.6-0.5,4-0.3c0.4,0.1,0.8,0.1,1.2,0.2
			c1.1,0.2,2.2,0.4,3.2,0.7c1.5,0.5,2.7,0.7,3.9,0.8c0.8,0,1.1-0.3,1.3-0.6s0.3-0.7-0.1-1.4l-0.3-0.6c-0.3-0.6-0.7-1.2-1-1.9
			c-0.3-0.8-0.7-1.5-1.1-2.2c-0.7-1.4-1.4-2.7-1.8-4.1c0-0.1,0-0.2-0.1-0.2c0-0.1,0-0.2-0.1-0.2c0.2-0.2,0.4-0.5,0.5-0.7
			c0.4-0.6,0.8-1.2,1.5-1.4c1.8-0.6,3.7-1.3,5.8-2.3c0.6-0.3,1.1-0.5,1.6-0.2c1.9,0.9,3.4,2.4,4.4,4.4c0.4,0.8,0.7,1.8,0.9,2.7
			l0.1,0.5c0.2,0.7,0.4,1.6,0.3,2.4c-0.1,0.6-0.1,1.1-0.2,1.7c-0.1,0.8-0.1,1.5-0.3,2.3c-0.2,0.5,0,1,0.5,1.4s1,0,1.1-0.1l0.1-0.1
			c0.3-0.2,0.5-0.4,0.7-0.6l0.4-0.4c0.6-0.6,1.1-1.1,1.9-1.2c-0.7,2.2-0.8,4.4-0.9,6.6c0,0.4,0,0.8-0.1,1.3c0,0.6,0.1,1.1,0.2,1.6
			c0.2,0.6,0.3,1.2,0.1,1.7c-0.2,0.5-0.1,1-0.1,1.6c0,1.5,0.5,2,1.9,2.4c0.1,0,0.2,0.1,0.3,0.1c1.6,0.8,3.3,1.2,4.8,1.4
			c0.3,0,0.5,0.1,0.8,0.1c0.3,0,0.6,0,0.9,0.1c-0.3,0.2-0.6,0.3-0.9,0.5c-0.3,0.1-0.6,0.3-1,0.4c-1.1,0.5-2.2,0.9-3.2,1.8
			c-0.1,0.1-0.2,0.1-0.3,0.1c-0.4-0.1-0.7-0.2-1,0c-0.5,0.2-0.6,0.8-0.7,0.9c-0.3,1,0,1.9,0.3,2.7c0.2,0.4,0.3,0.8,0.4,1.1
			c0.4,1.1,0.8,2.3,1.7,3.2c0.2,0.2,0.3,0.5,0.5,0.7c0.1,0.2,0.2,0.4,0.3,0.6C-212.6,306.6-212.6,306.8-212.7,307z M-166.1,290.3
			c-0.1,0.7-0.2,1.4-0.2,2.1c0,0.6,0,1.3,0,1.9c0,0.7,0.1,1.4,0,2.1c-0.1,0.7-0.1,1.5-0.1,2.2c0,0.3,0,0.6,0,1c0,0.1,0,0.2,0,0.2
			s-0.1,0-0.3,0c-0.8,0-1.6,0.2-2.4,0.4c-0.3,0.1-0.6,0.1-0.9,0.2c-2,0.4-4,0.4-6,0.3h-0.8c-0.4,0-0.7,0-1.1,0c-0.8,0-1.6,0-2.3-0.1
			c-0.4-0.1-0.8,0-1.1,0.2c-0.2,0.1-0.4,0.4-0.4,0.9c0,0.3,0.1,0.6,0.3,0.7c0.3,0.3,0.6,0.3,0.9,0.3c0.1,0,0.1,0,0.2,0
			c0.2,0,0.4,0,0.6,0c0.8,0,1.2,0.1,1.4,0.7c0.2,0.8,0.9,6.1,1,7.7c0,0.2,0,0.4-0.4,0.5l-0.4,0.1c-2.2,0.7-4.5,1.4-6.9,1.8
			c-0.9,0.2-1.8,0.4-2.7,0.6c-1.6,0.3-3.2,0.7-4.8,0.8c-1.6,0.2-2-0.1-2.2-1.7c-0.3-2.2-0.3-4.5-0.2-6.5c0-0.1,0-0.2,0-0.3
			c0-0.2,0-0.4,0-0.6c0-0.5,0-1.3-0.9-1.7c-0.2-0.1-0.3-0.1-0.5-0.1c-0.5,0-0.9,0.3-1.2,0.6c-1.7,1.3-3.4,2.7-5.3,3.7
			c-1,0.5-1.9,1.1-2.8,1.7l-0.2,0.1c-0.3,0.2-0.4,0.2-0.6-0.1c-1.2-1.3-2.4-2.8-3.6-4.5c-0.2-0.3-0.5-0.6-0.7-0.9
			c-0.4-0.5-0.8-0.9-1.1-1.4c-0.8-1.2-1.3-2.4-1.6-3.5c-0.1-0.5,0-0.7,0.3-0.9c0.5-0.3,1-0.5,1.5-0.8c1.8-1,3.6-2,5.6-2.7
			c0.4-0.1,0.5-0.2,0.7-0.1c0.7,0.4,1.3,0.3,1.7-0.3c0.2-0.3,0.7-0.8,0.3-1.4c-0.3-0.5-0.8-1-1.5-0.9c-0.4,0.1-1.9-0.1-3.1-0.3
			c-0.7-0.1-1.4-0.2-1.7-0.2c-2.3-0.1-4-0.6-5.4-1.7c-0.3-0.2-0.5-0.6-0.6-1.1c-0.2-1-0.2-2.1-0.2-3.2c0-0.4,0-0.9,0-1.3
			c-0.1-3.5,0.6-7,2.1-10.5c0.1-0.1,0.1-0.3,0.2-0.4c0.1-0.1,0.1-0.3,0.2-0.4c0.2-0.4,0.2-0.5,0.8-0.2c0.9,0.4,1.8,0.6,2.7,0.8
			c0.6,0.2,1.3,0.3,1.9,0.5c1.8,0.6,3.2,1.2,4.5,1.9l0.7,0.4c1,0.5,2,1.1,3.1,1.5c0.7,0.3,1.6,0.3,2.3-0.4c0.6-0.6,0.4-1.3,0.2-1.7
			l-0.1-0.2c-0.1-0.3-0.2-0.6-0.2-0.9c0.1-1,0.1-2,0.1-3c0-1.5,0.1-3,0.4-4.4c0.2-1.1,0.4-2.3,0.6-3.4c0.1-0.5,0.1-1,0.2-1.4
			c0.1-0.7,0.4-0.9,1.1-1c0.8-0.1,1.6-0.3,2.4-0.5c0.7-0.2,1.4-0.3,2.1-0.4c1.3-0.2,2.6-0.3,4.2-0.4c0.5,0,1.2,0,1.9,0
			c0.9,0,1.7-0.1,2.5,0c0.2,0,0.7,0.5,0.8,0.8c0.4,2-0.7,3.6-1.8,4.7c-2.1,2.4-3.8,5.2-4.9,8.3c-0.2,0.5-0.4,1-0.6,1.5
			c-0.3,0.6-0.6,1.3-0.9,2.1c0,0.1-0.1,0.1-0.1,0.3v0.2c-0.1,0.4-0.2,0.9,0.1,1.4c0.2,0.4,0.7,0.5,1.1,0.3c0.5-0.3,0.6-0.8,0.7-1.2
			v-0.2c0.6-2.1,1.6-4.1,2.5-6l0.1-0.3c0.9-1.7,1.8-3.4,3.2-4.8c0.4-0.4,0.8-0.7,1.3-1l0.4-0.3c0,0,0.2,0,0.3,0h0.2
			c2.1,0.4,3.7,1.6,5.4,2.9l0.3,0.2c1.3,1,2.5,2.2,3.8,3.8c0.4,0.4,0.4,0.8,0.2,1.3c-0.5,1.2-1.2,2.2-2,3.2
			c-0.3,0.4-0.6,0.8-0.9,1.2c-1.5,2.1-2.6,3.7-3.8,5.1c-0.3,0.4-0.4,0.8-0.4,1.3s0.2,1.1,0.6,1.4c0.5,0.2,1,0,1.5-0.3
			c1.1-0.7,2.3-0.9,3.6-1.1l0.3-0.1c0.7-0.1,1.4-0.1,2.2-0.1c0.7,0,1.5,0,2.2-0.1c0.2,0,0.3,0,0.4,0c0.1,0.1,0.2,0.3,0.2,0.6
			C-165.8,287.5-165.9,288.8-166.1,290.3z M-154.5,271.4c-0.3,0.2-0.5,0.4-0.7,0.7l-2.8,2.7l0,0c-0.4,0.3-0.9,0.5-1.4,0.6h-0.1
			c-0.3,0-0.4,0-0.6-0.1c-0.5-0.3-1-0.5-1.5-0.7c-0.7-0.3-1.4-0.6-2-1.1c-0.4-0.3-0.9-0.3-1.3,0c-0.5,0.4-0.2,1-0.1,1.3
			c0.3,0.6,0.8,0.8,1.2,1l0.2,0.1c0.9,0.5,4.4,2.5,4.9,3c0.6,0.6,0.6,1.2,0.4,2.3c-0.4,2.7-1.1,5.1-2,7.5c-0.1,0.3-0.3,0.7-0.4,1
			c-0.3,0.7-0.6,1.4-0.8,2.1c0,0.2-0.5,0.5-1.2,0.7c-0.7,0.1-1.1,0-1.2-0.1c-0.4-0.5-0.3-1.2-0.1-1.8c0.4-1.5,0.5-2.9,0.2-4.4
			c0-0.3,0-0.6,0-0.9c0.1-0.9-0.2-1.6-0.7-2c-0.2-0.2-0.6-0.3-1-0.3c-0.2,0-0.5,0-0.8,0.1c-0.8,0.3-1.6,0.3-2.4,0.4
			c-0.3,0-0.6,0-0.9,0.1c-1.4,0.1-2.7,0.4-4,0.7c0.1-0.2,0.3-0.4,0.4-0.6c1.7-2.2,3.5-4.6,4.9-7.1c0.2-0.4,0.3-0.8,0.4-1.2
			c0.1-0.4,0.2-0.7,0.4-1c0.3-0.5-0.1-1-0.2-1.2c-1.2-1.7-2.6-3.4-4.3-4.6c-0.5-0.3-1-0.7-1.4-1.1c-1.6-1.2-3.2-2.5-5.4-2.9
			c-0.2,0-0.3-0.1-0.4-0.4c0-1.3-0.1-2.8,0-4.2c0-0.5,0.4-1.1,0.8-1.6c0.2-0.3,0.3-0.5,0.5-0.8c0.3-0.5,0.6-1,0.8-1.4
			c0.4-0.7,0.8-1.3,1.2-2c0.2-0.3,0.3-0.7,0.4-1.1c0.1-0.4,0.2-0.7,0.4-1c0.1-0.2,0.2-0.5,0.1-0.8s-0.3-0.5-0.5-0.6
			c-0.8-0.4-1.4-1.1-1.9-1.7c-0.7-0.9-1.6-1.7-2.7-2.2c0.6-0.3,1.3-0.5,1.9-0.7l0.4-0.1c1.5-0.5,3.3-1.1,4.8-2.3
			c0.7-0.5,0.8-1.2,0.4-2c-0.2-0.4-0.4-0.7-0.6-1.1c-0.3-0.5-0.6-1.1-0.9-1.6c-0.6-1-0.5-1.5,0.3-2.2c1.1-1,2.1-1.7,3.2-2.1
			c0.1,0,0.2,0,0.2,0s0,0,0.1,0.1c0.8,0.9,1.3,2,1.8,3.1c0.3,0.6,0.6,1.2,0.9,1.8c1,1.8,1.8,3.8,2.5,5.7l0.3,0.9
			c0.3,0.7,0.5,1.3,0.6,2c0.3,1.1-0.6,2-0.9,2.3c-1.3,1.1-2.8,2.3-4.7,2.9c-0.5,0.2-1,0.4-1.5,0.6l-0.5,0.2
			c-0.3,0.1-0.6,0.3-0.8,0.7c-0.1,0.2-0.1,0.4,0.1,0.7c0.3,0.6,1,0.7,1.6,0.4l0.5-0.2c0.6-0.3,1.1-0.5,1.7-0.8
			c0.3-0.1,0.4-0.1,0.4-0.1s0.1,0.1,0.1,0.3c0.3,1.3,0.7,2.7,1.1,4.1c0.1,0.2,0,0.3-0.2,0.4c-1.1,0.7-1.7,1.7-2.1,2.6
			c-0.1,0.2-0.2,0.5-0.1,0.9c0.1,0.2,0.2,0.4,0.5,0.5c0.3,0.2,0.7,0.2,0.9,0.1s0.4-0.2,0.5-0.6c0.5-1.6,1.9-2.3,3.6-3.1
			c0.5-0.2,1-0.4,1.5-0.6c0.8-0.3,1.6-0.6,2.4-1c0.3-0.1,0.5-0.2,0.6-0.1c0.2,0.1,0.3,0.2,0.5,0.5l0.1,0.2c1,2,2.1,4,3.2,6
			c0.7,1.3,1.1,2.8,1.5,4.5C-153.8,270.5-154,271-154.5,271.4z M-144.8,259.9c-0.1,0.6-0.4,0.9-1,1c-2.6,0.7-5,1.5-7.2,2.4
			c-0.3,0.1-0.7,0.3-0.8,0.3s-0.3-0.4-0.6-0.8c-0.8-1.2-1.4-2.5-2-3.8c-0.3-0.6-0.6-1.2-0.9-1.9c-0.3-0.6-0.7-0.9-1.1-1.1
			c-0.1,0-0.3-0.1-0.4-0.1c-0.3,0-0.6,0.1-1,0.3c-0.8,0.4-1.6,0.7-2.4,1c-0.9,0.3-1.9,0.7-2.8,1.2c-0.1-1.3-0.5-2.5-0.9-3.6
			l-0.1-0.3c-0.2-0.7-0.2-0.8,0.2-1c0.3-0.2,0.7-0.4,1-0.6c0.2-0.1,0.4-0.3,0.6-0.4c2.4-1.4,2.8-4.6,1.7-6.6
			c-0.2-0.3-0.2-0.4,0.1-0.7c2.3-2.6,5.1-4.6,8.1-5.9c2.1-0.9,2.1-0.9,3.2,1c0.1,0.3,0.3,0.5,0.5,0.8c0.6,0.9,1.1,1.8,1.4,2.9
			c0.1,0.4,0,0.4-0.2,0.6c-0.6,0.3-1.1,0.7-1.7,1c-0.5,0.3-0.9,0.6-1.4,0.8c-0.3,0.2-0.7,0.4-1,1c-0.1,0.2-0.4,0.8,0.2,1.2
			c0.3,0.3,0.7,0.3,1.1,0c0,0,0.1,0,0.1-0.1c0.6-0.3,1.1-0.6,1.6-1c0.8-0.5,1.7-1,2.6-1.5c0.7-0.3,1.4-0.6,2.2-0.8
			c0.3-0.1,0.7-0.2,1-0.3c0.3-0.1,0.4-0.1,0.4-0.1s0.1,0.1,0.2,0.4v0.2c0.3,1.7,0.6,3.5,0.5,5.3l0,0l0,0
			C-143.6,253.7-143.9,256.5-144.8,259.9z"/>
	</g>
</g>
<g id="레이어_6">
	<path d="M-228.6,217.2c0,0-0.4,0.6,0.3,2.4s3.8,5.6,3.8,5.6l-3.1-2.3l-2.5-5.2l0.5-0.9L-228.6,217.2z"/>
</g>
<g id="레이어_7">
	<path d="M-227.8,220.6c0,0,3.3,4.3,3.7,4.6c0.4,0.3,1.3,1.2,1.4,1.2h-1.7l-4.6-5.7L-227.8,220.6z"/>
</g>
<g id="레이어_8">
	<polygon points="-223.3,225.8 -222.8,226.5 -222.8,227.2 -223.3,227.9 -224.3,228.1 -227.8,227.5 -225.2,226.1 	"/>
</g>
</svg>
