<?xml version="1.0" encoding="UTF-8" standalone="no"?>
<!-- Created with Inkscape (http://www.inkscape.org/) -->

<svg
   xmlns:dc="http://purl.org/dc/elements/1.1/"
   xmlns:cc="http://creativecommons.org/ns#"
   xmlns:rdf="http://www.w3.org/1999/02/22-rdf-syntax-ns#"
   xmlns:svg="http://www.w3.org/2000/svg"
   xmlns="http://www.w3.org/2000/svg"
   xmlns:sodipodi="http://sodipodi.sourceforge.net/DTD/sodipodi-0.dtd"
   xmlns:inkscape="http://www.inkscape.org/namespaces/inkscape"
   width="297mm"
   height="210mm"
   viewBox="0 0 297 210"
   version="1.1"
   id="svg904"
   inkscape:version="0.92.2 2405546, 2018-03-11"
   sodipodi:docname="armeria_icon_and_text_horiz_inverted_pink.svg">
  <defs
     id="defs898" />
  <sodipodi:namedview
     id="base"
     pagecolor="#ff0089"
     bordercolor="#666666"
     borderopacity="1.0"
     inkscape:pageopacity="1"
     inkscape:pageshadow="2"
     inkscape:zoom="0.98994949"
     inkscape:cx="413.77445"
     inkscape:cy="557.97969"
     inkscape:document-units="mm"
     inkscape:current-layer="g328"
     showgrid="false"
     inkscape:window-width="3840"
     inkscape:window-height="2105"
     inkscape:window-x="0"
     inkscape:window-y="55"
     inkscape:window-maximized="1" />
  <metadata
     id="metadata901">
    <rdf:RDF>
      <cc:Work
         rdf:about="">
        <dc:format>image/svg+xml</dc:format>
        <dc:type
           rdf:resource="http://purl.org/dc/dcmitype/StillImage" />
        <dc:title></dc:title>
      </cc:Work>
    </rdf:RDF>
  </metadata>
  <g
     inkscape:label="Layer 1"
     inkscape:groupmode="layer"
     id="layer1"
     transform="translate(0,-87)">
    <g
       transform="matrix(1.2716849,0,0,-1.2716849,-951.86593,800.63958)"
       id="g957">
      <g
         transform="translate(839.3203,486.7051)"
         id="g238">
        <path
           inkscape:connector-curvature="0"
           id="path240"
           style="fill:#ffffff;fill-opacity:1;fill-rule:nonzero;stroke:none"
           d="m 0,0 -4.462,-11.154 h 8.96 z M 5.688,-14.166 H -5.689 l -2.455,-6.098 h -3.531 L -1.859,3.57 h 3.941 l 9.815,-23.834 H 8.143 Z" />
      </g>
      <g
         transform="translate(858.1123,466.4414)"
         id="g242">
        <path
           inkscape:connector-curvature="0"
           id="path244"
           style="fill:#ffffff;fill-opacity:1;fill-rule:nonzero;stroke:none"
           d="M 0,0 H -3.309 V 17.81 H 0 v -2.231 c 0.967,1.636 2.491,2.677 4.462,2.677 1.115,0 2.082,-0.26 2.714,-0.781 L 5.801,14.389 C 5.205,14.798 4.351,15.096 3.495,15.096 1.339,15.096 0,13.236 0,10.262 Z" />
      </g>
      <g
         transform="translate(871.9316,466.4414)"
         id="g246">
        <path
           inkscape:connector-curvature="0"
           id="path248"
           style="fill:#ffffff;fill-opacity:1;fill-rule:nonzero;stroke:none"
           d="M 0,0 H -3.309 V 17.81 H 0 v -2.231 c 1.079,1.636 2.863,2.677 5.131,2.677 2.789,0 4.871,-1.339 5.949,-3.607 0.967,2.082 2.938,3.607 5.801,3.607 4.127,0 6.804,-2.789 6.804,-7.362 V 0 h -3.309 v 10.374 c 0,2.937 -1.599,4.796 -4.239,4.796 -2.677,0 -4.313,-1.859 -4.313,-4.796 V 0 H 8.552 v 10.374 c 0,2.937 -1.636,4.796 -4.276,4.796 C 1.6,15.17 0,13.311 0,10.374 Z" />
      </g>
      <g
         transform="translate(924.6191,466.4414)"
         id="g250">
        <path
           inkscape:connector-curvature="0"
           id="path252"
           style="fill:#ffffff;fill-opacity:1;fill-rule:nonzero;stroke:none"
           d="M 0,0 H -3.309 V 17.81 H 0 v -2.231 c 0.967,1.636 2.491,2.677 4.462,2.677 1.116,0 2.083,-0.26 2.715,-0.781 L 5.801,14.389 C 5.206,14.798 4.351,15.096 3.495,15.096 1.339,15.096 0,13.236 0,10.262 Z" />
      </g>
      <path
         inkscape:connector-curvature="0"
         id="path254"
         style="fill:#ffffff;fill-opacity:1;fill-rule:nonzero;stroke:none"
         d="m 937.756,466.441 h -3.309 v 17.81 h 3.309 z m -3.718,22.736 c 0,1.115 0.929,2.045 2.045,2.045 1.115,0 2.044,-0.93 2.044,-2.045 0,-1.115 -0.929,-2.045 -2.044,-2.045 -1.116,0 -2.045,0.93 -2.045,2.045" />
      <g
         transform="translate(956.3359,475.3647)"
         id="g256">
        <path
           inkscape:connector-curvature="0"
           id="path258"
           style="fill:#ffffff;fill-opacity:1;fill-rule:nonzero;stroke:none"
           d="m 0,0 c 0,3.495 -2.417,6.247 -5.763,6.247 -3.346,0 -5.8,-2.752 -5.8,-6.247 0,-3.458 2.454,-6.284 5.8,-6.284 C -2.417,-6.284 0,-3.458 0,0 m 0,-6.135 c -1.376,-1.97 -3.532,-3.235 -6.246,-3.235 -4.834,0 -8.626,3.979 -8.626,9.37 0,5.28 3.643,9.333 8.626,9.333 2.714,0 4.87,-1.19 6.246,-3.124 V 8.886 H 3.309 V -8.923 H 0 Z" />
      </g>
      <g
         transform="translate(908.5254,481.8716)"
         id="g260">
        <path
           inkscape:connector-curvature="0"
           id="path262"
           style="fill:#ffffff;fill-opacity:1;fill-rule:nonzero;stroke:none"
           d="M 0,0 C 2.759,0 4.788,-1.822 5.335,-5.066 H -5.408 C -4.896,-2.145 -2.866,0 0,0 m -0.037,2.826 c -5.057,0 -8.812,-4.164 -8.812,-9.333 0,-5.168 3.904,-9.369 9.332,-9.369 2.864,0 5.589,1.328 7.287,3.631 l -2.405,1.7 c -1.479,-1.645 -2.762,-2.394 -4.77,-2.394 -3.339,0 -5.661,2.32 -6.079,5.455 H 8.524 c 0,0 0.108,0.792 0.108,1.312 0,5.019 -3.687,8.998 -8.669,8.998" />
      </g>
      <g
         transform="translate(793.7822,487.4087)"
         id="g264">
        <path
           inkscape:connector-curvature="0"
           id="path266"
           style="fill:#ff9dc3;fill-opacity:1;fill-rule:nonzero;stroke:none"
           d="m 0,0 -7.621,-4.4 v -8.8 L 0,-17.6 l 7.621,4.4 v 8.8 z" />
      </g>
      <g
         transform="translate(809.0244,487.4087)"
         id="g268">
        <path
           inkscape:connector-curvature="0"
           id="path270"
           style="fill:#ff9dc3;fill-opacity:1;fill-rule:nonzero;stroke:none"
           d="M 0,0 V 8.8 L -7.621,4.4 Z" />
      </g>
      <g
         transform="translate(778.54,478.6089)"
         id="g272">
        <path
           inkscape:connector-curvature="0"
           id="path274"
           style="fill:#ff9dc3;fill-opacity:1;fill-rule:nonzero;stroke:none"
           d="M 0,0 V 8.8 L -7.621,4.4 Z" />
      </g>
      <g
         transform="translate(801.4033,456.6089)"
         id="g276">
        <path
           inkscape:connector-curvature="0"
           id="path278"
           style="fill:#ff9dc3;fill-opacity:1;fill-rule:nonzero;stroke:none"
           d="M 0,0 V 8.8 L -7.621,4.4 Z" />
      </g>
      <g
         transform="translate(778.54,496.2085)"
         id="g280">
        <path
           inkscape:connector-curvature="0"
           id="path282"
           style="fill:#ff9dc3;fill-opacity:1;fill-rule:nonzero;stroke:none"
           d="m 0,0 v -8.8 l 7.621,4.4 z" />
      </g>
      <g
         transform="translate(809.0244,487.4087)"
         id="g284">
        <path
           inkscape:connector-curvature="0"
           id="path286"
           style="fill:#ff9dc3;fill-opacity:1;fill-rule:nonzero;stroke:none"
           d="m 0,0 v -8.8 l 7.621,4.4 z" />
      </g>
      <g
         transform="translate(786.1611,465.4087)"
         id="g288">
        <path
           inkscape:connector-curvature="0"
           id="path290"
           style="fill:#ff9dc3;fill-opacity:1;fill-rule:nonzero;stroke:none"
           d="m 0,0 v -8.8 l 7.621,4.4 z" />
      </g>
      <g
         transform="translate(786.1611,500.6089)"
         id="g292">
        <path
           inkscape:connector-curvature="0"
           id="path294"
           style="fill:#ffffff;fill-opacity:1;fill-rule:nonzero;stroke:none"
           d="M 0,0 -7.621,-4.4 0,-8.8 7.621,-4.4 Z" />
      </g>
      <g
         transform="translate(809.0244,496.2085)"
         id="g296">
        <path
           inkscape:connector-curvature="0"
           id="path298"
           style="fill:#ffffff;fill-opacity:1;fill-rule:nonzero;stroke:none"
           d="M 0,0 -7.621,4.4 -15.242,0 -7.621,-4.4 Z" />
      </g>
      <g
         transform="translate(801.4033,483.0088)"
         id="g300">
        <path
           inkscape:connector-curvature="0"
           id="path302"
           style="fill:#ffffff;fill-opacity:1;fill-rule:nonzero;stroke:none"
           d="m 0,0 v 0 -8.8 l 7.621,4.4 V 4.4 L 0,8.8 -7.621,4.4 Z" />
      </g>
      <g
         transform="translate(786.1611,483.0088)"
         id="g304">
        <path
           inkscape:connector-curvature="0"
           id="path306"
           style="fill:#ffffff;fill-opacity:1;fill-rule:nonzero;stroke:none"
           d="M 0,0 7.621,4.4 0,8.8 -7.621,4.4 V -4.4 L 0,-8.8 Z" />
      </g>
      <g
         transform="translate(801.4033,456.6089)"
         id="g308">
        <path
           inkscape:connector-curvature="0"
           id="path310"
           style="fill:#ffffff;fill-opacity:1;fill-rule:nonzero;stroke:none"
           d="m 0,0 7.621,4.4 v 8.8 L 0,8.8 Z" />
      </g>
      <g
         transform="translate(809.0244,478.6089)"
         id="g312">
        <path
           inkscape:connector-curvature="0"
           id="path314"
           style="fill:#ffffff;fill-opacity:1;fill-rule:nonzero;stroke:none"
           d="m 0,0 v -8.8 l 7.621,4.4 v 8.8 z" />
      </g>
      <g
         transform="translate(778.54,461.0088)"
         id="g316">
        <path
           inkscape:connector-curvature="0"
           id="path318"
           style="fill:#ffffff;fill-opacity:1;fill-rule:nonzero;stroke:none"
           d="M 0,0 7.621,-4.4 V 4.4 L 0,8.8 Z" />
      </g>
      <g
         transform="translate(770.9189,483.0088)"
         id="g320">
        <path
           inkscape:connector-curvature="0"
           id="path322"
           style="fill:#ffffff;fill-opacity:1;fill-rule:nonzero;stroke:none"
           d="m 0,0 v -8.8 l 7.621,-4.4 v 8.8 z" />
      </g>
      <g
         transform="translate(793.7822,469.8086)"
         id="g324">
        <path
           inkscape:connector-curvature="0"
           id="path326"
           style="fill:#ffffff;fill-opacity:1;fill-rule:nonzero;stroke:none"
           d="M 0,0 -7.621,4.4 V -4.4 L 0,-8.8 7.621,-4.4 v 8.8 z" />
      </g>
      <g
         transform="translate(801.4033,491.8086)"
         id="g328">
        <path
           inkscape:connector-curvature="0"
           id="path330"
           style="fill:#ff0089;fill-opacity:1;fill-rule:nonzero;stroke:none"
           d="M 0,0 -7.621,4.4 -15.242,0 -7.621,-4.4 Z" />
      </g>
      <g
         transform="translate(809.0244,478.6089)"
         id="g332">
        <path
           inkscape:connector-curvature="0"
           id="path334"
           style="fill:#ff0089;fill-opacity:1;fill-rule:nonzero;stroke:none"
           d="m 0,0 -7.621,-4.4 v -8.8 L 0,-8.8 Z" />
      </g>
      <g
         transform="translate(778.54,478.6089)"
         id="g336">
        <path
           inkscape:connector-curvature="0"
           id="path338"
           style="fill:#ff0089;fill-opacity:1;fill-rule:nonzero;stroke:none"
           d="m 0,0 7.621,-4.4 v -8.8 L 0,-8.8 Z" />
      </g>
    </g>
  </g>
</svg>
